<mxfile host="app.diagrams.net" modified="2023-04-11T20:44:05.338Z" agent="Mozilla/5.0 (Windows NT 10.0; Win64; x64) AppleWebKit/537.36 (KHTML, like Gecko) Chrome/111.0.0.0 Safari/537.36 OPR/97.0.0.0" etag="tnqfGTbKKkDL7eKWF8vj" version="21.1.5" type="github">
  <diagram name="PÃ¡gina-1" id="8jphHRyJU70X06yeodMn">
    <mxGraphModel dx="1970" dy="451" grid="1" gridSize="10" guides="1" tooltips="1" connect="1" arrows="1" fold="1" page="1" pageScale="1" pageWidth="827" pageHeight="1169" math="0" shadow="0">
      <root>
        <mxCell id="0" />
        <mxCell id="1" parent="0" />
        <mxCell id="ksuQdM8JzwMH5ROLxWta-33" value="40x..." style="rounded=0;whiteSpace=wrap;html=1;fontSize=8;" vertex="1" parent="1">
          <mxGeometry x="480" y="240" width="70" height="240" as="geometry" />
        </mxCell>
        <mxCell id="ksuQdM8JzwMH5ROLxWta-2" value="" style="shape=image;verticalLabelPosition=bottom;labelBackgroundColor=default;verticalAlign=top;aspect=fixed;imageAspect=0;image=data:image/png,iVBORw0KGgoAAAANSUhEUgAAAj8AAALaCAYAAADeJTIGAAAAAXNSR0IArs4c6QAAAARnQU1BAACxjwv8YQUAAAAJcEhZcwAADsMAAA7DAcdvqGQAAP+lSURBVHhe7F0FoBXV2l2nzy26URQV7O5ALMAWC7u79ZnPZ+ezu7sVRGxRLOwOFBNEFKTr5unzr/XtmXvPvaBP5eJ7/M66d5+Z2bNn9/6+tWP2hIoESpDL5ewYjUbt2AQ5ozHXIc/8AYSK7lEil/fCiLgwdCf0R/37Ffh+lYbRmv63xNRpU9GtazfvqvXRMq9aG8qbQqEAVYP/HMZ/zkXVppDnqPQ8m1U6iojFYnat8ELezdLzhcWUKVPQvXt376r18evto/XQMozWzB/fr9IwWtP/lpg6le2j2yJsH4u4PJQ3je2jFcIozevS82w2a8egffw6SvUH1UlTGMyfJn2k84LpG3cuI4Rp6N6//BXIK2V1LuccRqOhRrtFgalTZ7B9dPauWh+l6VgUUN6weVgdbY0wSvO69DyXzcsG0RjLkHbN2wd/FhC0VYFStHCjGvH70eiZTkrNfwLd8H8B8Quw2IDEp7TIF2RKTltYEyr9oAYECBBg4VFsFCULkja8aQ6k3nwjOx4CLKbwOt5eMYdUvo3nVrrzQ5alpgX+GPkx7Uea18wsyK6l8WLJGNhfMexM6XVr/fl+lYbRmv63/FuUfuuvNB2L4s/3/z+F4RVhcUHF6oPnVhFbGGfvnQQIECDAn4LGqX050lKeeBrOlCLVWjFCGSUT9QzP/du/YSSw3DFvptRu0RgXxqIypelYFMYJ+dYLozSvm+c7FY5ZEvMVv7sImWlSUEUzjJdnSh4w/DHyo9qjoSYzuvQi87tAt16ELb+8c//aP19Y4/tVGkZr+t/SLEq/ZUrTsSiM7/9/DMODlbiVvU68YzNDxy3PDSWeBAgQIMBCwImVBciURnnjQU6aOfMtFmyKniDUsfS81E2rmkXpN01pOhaF8f1vrTBK/Znfz5aF2xJy4x9bmvnxB8iPApZzMuhGw+vQ7zWlEW8ZoQVH7s/B96s0jNb0vyUWpd9CaToWBXz/f0cYfhXwjHWwWEHzZNiNhgzd/xNbN/ato5j7Ik1HgAAB/n/DH4WmIDJRIoFEJWmn/DXjWftGsso/t8N/+KPfjcfS80X1tyj91l9pOhbFn+9/a4VR6k/JuUpO4zqNKClTZy/jFFOI3KTJRD0jvlLyPCHXvxuqZH/WGCzsBd0NzP+8aRQuEjb+n8iNu+//+eelz6raBggQIMDCwFdxpWcGySXKosapDskoM5Q+Mj4B+h3wnelYer64ojQdiwK+/60VRqk/zf1UebKM1eGmKfCmyvY3A2+uhubDfORHq6h96Ny/duc62mXjMZfTXNrvhZsbDIcLCHnzhGZ43Xi+sMbzKxIpmim1W2iDXPPrYhaxmEpBb2q0uNdKZr68am1D/39XGCZcmNSS2uYYubtSRZLx+bbkUZh/xTyfY22N8DwSjjTWp9K3V3ReWu8WBqVvyyzo2BoojXtr+ruoobj6cdex9Lw10tHSD137b5O1hv8+Sv0qLYuFRWvGcUGQ/6Xx9c9lHw6ztdD4cWjprrXitli3D3lF40YESsH6xT+NPbtx6AyPWTs6k6Vthu4ki+jBrxm9tiTw6MuzUrsFPvNHTEs/8nnEWOY6mim9tzCmJBylwdZbLkqj8ForfwT/3D8yb8JSKJEctazKNUvi4x09TqFj3nszWihIZfGR34KVbylUcf3K2/I8rNMiFaUdGCAjFotK1SmwvB1/zVhM9F9gND2jc9/OIrqQptS/HJWuTKuGoZSUXlOZKx02rdfy3p8wC4qrn1f+9cIY+dsyH3T9e8NYkBPBL2PVByeW9BuhhQQ6hS2FlR1/A349W1jkvFdt5Z8Eb2n9bQ3Iz1YV6C3g+70ow/H9bu0w/Dz2/dS1XhNvrbxfEFo7Db/mV2uEsTD50Fp5uLi3D1/o6MULFwzT4ckcdb009uOmOJxMztkbGjrzpz1+w/hynEf5Yv6W2NlxYUxLP9QZ5JmOZkrvLYwpDUfnrRH3XzP0O6S4t0YYC4q3DP1XGKGIeynHuXG/orzUTHYWiahOk5ewzBuzU/iV6jjfPj/ab0INwd9DwW8gduRfPpdHhIRHEOEJR3TOCi8hJxbbDH7oHnipwPIiJfQv6vmzKKAwhAgzrLWhHPNlxdSp09CtW1d3sQiwqPNKaZH/UlL/KQy/ovil2qJ0HZrVJoLXIuQFkWYbjWMF/hVBq3gsDOTvpEmTsMQSS9i11dmSsBbWf0HKQ35GrN47+O2jtZBnu5J/aoO+360Vhu+PwhCUjtb0W/AJj4y/r0xr+C+0jGtpXrUm/HBkWmufHz9/WkJ+tyyPBUHuFgbyd3FuHxrxEVyZFxCJxei365T5yUhncojHo2anzrofqt3+HVEw/6g6SstDaq0Vot+IAiOnPJG/v/wyFT16dLMw/TQsLBRX3y/NzCjvY9ofZyHh50FpPGXX1D4WXkfJbz8cH41hhNwIqQtfjsRJZGThd7zN2vPIPdvES7z7Hv4QM9AoQWmlNuJD31URQ2RdNtfRaDxHPnitCumMohy2c/43HhfWlPon7iPTmmGU+uWfZ7KsXCX3WsP4/jvD3rOZBbv9o8b3t/Tc5ZPKZH73pUbwi7WxeFs4EgludCzQoeZojbWXtpoFQPcXxvh++Cg9F0rdtqZpbb/9KRCd+377x4U1C/JnQXZ/xvgojbuv9Fq6/bOmNf36LeOH45eFn6aFMb+FP+LmzxrfDx+l50Kp29Y0reU3wqxLNOrVh02emNfejATDoElQyeuo2RANCOgRW/3AS3P/H4wetQEH+S/Dc9ktyO2fNWHqSt/fgvSnrKWJF+D2z5hSv/x0lN7/s8bypUU8za4Vw1hQXisMtb9IKELDNklLW0bh/TI3+UdHetjYjh70Caz52CiHSrHAHZ5V0UpJjg9NjYRZ08RcBZ2r6FxQLT33Y98EP175vHOrYSqhJL6tAvlXOvLTmn63hM/cFxVyOZeOaFS1rvWhvFJ5Oub+n8NopEg6zFfmHlhb5aeqnli377TIuhVhnTFB5sE/V/il9n8Gen7y5Mno2bOnXfsjEK2JXxsZbQ34TdHvSfmjAK0ZhvyR/817tk1rTRYWpfHVUeXRo0ePVou/UJofkle69teytDbkd1PPduF6z6Xx1rkPPwzBJ1k+St0vbB7q+cW3fbhOtuDKQ3U3RnmkesZ8YxBa52HTHcpaXhelZ4wZyY5ppXxryvXfAD0sbR9MgJ0vNBTRFn5ZebB9tFoYQkk4ea99RBdF+6C/ft1tlTBK4m3ngq4tDHKPgiNYIkOlt3llFlbXVN7G0DyUeNcyi0OMuOeNw4LIj6716nJei3oZkCqcrsTA8vwT/3LXLlARIheq42SC8bM8K6qWaXsNnS3dxWhBMfsz8P3R0au8TEjrhlEKpqN29mxUdujg0rKwKI2/H1eWh6G1hvXltw8/LJWHjr8VBrtTLD0r2SY/ePRPBQknzc2y8hW1BX08ztt6KoxMNoN4NEZZ1Mpl0AIzZ85Ep06dvKvWh4Si2oOU1KJCqSJcVPgrwpAwms320YHto3UU4PzwBe+COmutBfkvs6jzSlhU+eRj8W0fyh+XR02db6/MfRmkcsqRfMm6dPhHRtlqefsb+asykBv54+mPUGvqj5Z+MIy5c+agXfv2Tk8tLEri74ejDqcQai39UQqF4xlb9tKa5KclrINODlFKbBrhPeMKnnERCWJ61QmnlxJ1lr08934MITL1pivi18hPPpRhbUvj8+8+QjweY0QU0SIymTSv4yxH91wT3LkiK/t4Noz26QSSueh8AssXLL4A+LPQ834cmjF3ovTewkBxlz+Kr3o5mUwGiUSiWX79WfhxbJkOXatnq+PCwvfD91/XvvmtNLDesdroGdFZzw8+4+eonZF15+SXBB8bW57HcRMmWMOrT2cQjif5kKsPfph+PFoD8q+urg4VFRV2rjxTGeno1+uFgZ6XP4J6tqVpaI20+H60JCayb6324ftTGoYf5sLGX/DTIKO88tuHn5aFge93yzAEvzwWBeSvTGukwUdpGnz/hZZ2Om8tyL/FuX3YukHKGEd+KK/oH33mKTvgmt8q5tjNymLNNVam3GzgdQaxKMNVB51EqVBQ3f/1MlQc/fZRqj8U70XVPtLpFNtHcpHqD2FRtQ/56ZuFTUNpvH346SmwbPWqu5NXKiO612ALy5Mh834E2XyIRLIzwtEy5HgeiSZpH7ZlHbEY3eT0UlZTHsxHftQYFGDLYctCJI0x497FlddfgnSmgSRLw1yOAJhQ8NzJM394UpF0c3JhlGdi6BPtjqpc3CpSaWbpXH74AvnPwvdHKBXuQmtUXvlV2rNR5dXRD1fH1oIf19LKu7D50xJWXoyzH+/fyh8rV5ZjkU6slPkv0eOuvHSzPK0+RFmWzI/xkyfjsWdfRIa3FXNtCFD0wmjNvPKhMvDLWf77wl31zM/HhUGpP355y/jhtQZK/fLLQ9d+2hYWpfEWFIZMa/nt+9Myvq2VR74/LePdGmUs/wTffx+tEe9fQ2mYQsvr1oRfJgpD/i/W7YPZ5GWVCRfN2Mt6nTV74NILT0E8prWYqhskMrkMyY9TlGZ+A37+l9ZjoTXiL798kqm88s/9e60Rhp8/OsooDEFl3Rpl7MOPt6Dw/DAXBgvyQ9eyL5DgFkJ6wUrzTSI7csc883RQoUCeEU5itTU3QIcuvUkqeTeSpN5MIOMt+m4kyx4WuOZH8MmPjzxSGPPjO7j06nNRl56LZCUrekFEiZU+zF6+t8ZGFS4cDbFR5ZCIJZCj5gvlI+hQaIO+6IHKdNzcBVi8oEpiFcXqpspa1UivavJouzfrPqslq1O0kEaWx/GzZuOhZ0ehjg8WNCqkoUtzGSBAgAB/DK6zJTnTXIo49Udlx5/VV+qAW679B/LZeUjno+ygl6GQ9zrFNhUWYHFFvqiRnxiLUaM/7GiToGqddSJaQEN9iryjAutuMACJdsvSdSUriiOupq1YN1ztacIfID8N+OKnd3HJ1ecgF6pF1yXaI1HG6kj/NbqjwR6xtDwZmsiPWGaoGMGs6dXI1BbQPdYVh22xHypSCc/HAIsn2HOkMdKDmDvaRoi8QyFTEY/i49GvYsqM6WioqML6A7dFrqwSadaylnUqQIAAAX4v/Ffd3TefXGdL0KVkUghpdGyTQd2M9ymMarHcimsjXtaOuklTXnrGddICLH5Q6blyD2uW04hNgXwjEsohXTcTkyf9jFQ2jHU22Brxdn3poI17SE71w2d98uzjD5Gfzya8hQuvPBOheBrLLN8TVW0TrFQ5ekIGxIrpyA/ZWYyX9LVIr34cPwX187JYtsOyOGm3E5DMJD0fAyxOUL3TtLooj+bQNQWGYpTF7pEf2sQiMeTqavH6s0/h56lT0Knvihhy0ikIRRN0I/fNqlqAAAEC/C6Y2vLFB4WRTh35cSpN5EdrfPL1P+OD1+9FNJJG35XXQ1W7buyUhdkhZ6fbRgJkAix2sE9bkFBoBC+naTZakaOEInnUTP8RX439kjUgQfIziOSnDx8oIT/ezIRfU3z8IfLz5c/v4vzLz0Ah0kDy092RHzGcgrx1lUpjAtKSIkJhRPH91z+hoTqHlXqsgmN2OQ6JgPwslrDelYyJHFUmnpH86Og+f0E6RAJcSDXgvVEv4Lvx47Hk6mth8NHHsT7EUAhrjwb5FCBAgAB/AqapPEFkZ06ZObEiuxxmTvocE78eSd1Tj+VWWh8V7XtSKUk3saNmS14C8rM4Qhun5Itp2NY1Kk8Wt14cj8QKqJk5EWO/HENum8S6jeSnylUJPWv6STVFZd+khP5wTdDePtqfJ8QKqEVICkFkLBzhUYugI3IjZq6FdTp3b5PYwiXtuyBuFZjFzmj9X47kJsPKo6/kyGgBsxkVKzm0TDQWR21dPW1DSKflSsKJ1Y51QTRbXDswgQlMYP6I4U8z4/7U1XYvz5g9UVnZxnZ5rm/IUE8lkUtrRCiOfE6akspJ79gEZrEz2nIgGi3jRRyhcILXCZY9O995cYsYYt7InqsFLUDLJsrThD9EfjQqpFXwrkKq90/urVEekR2txtb3vsjQNP6je1YpdcVntABa7365V98Ds9gZVRVbNCij2lhyNIIbpmyJkuTorQXY680JEiFVPNUDVT6RYZ8IByYwgQnM7zX88YzkDu0kT/w/d4FsWiMDETOxuHvNGSF96iLCjjkJEPWQ1qQGZnE05BTUN/mC1hOLVegtcmNFVvj2bUqDKoOpnRLoqrmNwNrx++FGcWSoCnmuUSBVPPu8hdVJESMRH53bwdxKKVoFtogFZrE1Wtclo6vSI+uVTJ4El5IGlWXlSNc3oJDNeptskRB5O1UHCBAgwMLBl0mCr9SKiCXiqE/V2+vQQiaTRSxZzjOnHLUpotNbgVncjL4UIA3iPsPkGXEKr0z9rQn+CP4Q+RGJ0ap597FNZ6drf9hR3/qyUSFFjRFThGSkJlXxGO8AizFEcFRh7EhjpEdl7Y3sxKJR5HJZFPI5+9q/BJJ980VHVlAeAgQIEGAhUUp+BAkWZ7QmRJsh5iiDovEoO2QZuyN95GYsdAzM4mdUzuIgYbgPqIqHqLOdN14hztGsSjRDy/ri8AfID8lMXkrOjf4oQrJTpbJRHdqJCLkpEhdZf7RH9v4H3ArUmIFZ/IyYjmZUwyxHIz48N9LTWOfojhXRNk7TaI/qhRb6WKX0HDmHAQIECNAK8AUK5YsZrTMVwckjEpXekRzSdEmeRvfp3t5MDsziZjTDIP2iJTa5vG2XSxIkjaQNDLX/jzSSK+L5sWDlQ5//CHxPSj3yrv36Z1iQO8F3FJjF1hgFl/FgxMYRW/1qLwbfONLEf+8YIECAAK2DXxEoJmskjUR6CpRD7mjXuh2YxdI4eOXqla0rZ9/OP5dpifl9Ev4g+WkJembh+R7Lu9IAfHv/zBs9CMxiZ6ye8WhFraOdk+DwaFWPjFxvIBZ0pH1e9/zip5H7AAECBFj08JWgllx4L+BQWYZMUuk6MIubsbJrJDymceYzNvaj0/ngK6Lm+IPkpzQw3zPfY++6kQj9Ckq9CMziY3RgsbpRHV7YedOxmXOzKxmGlAkQIECAVoYTLb6QCVE3atGF+3PSSGiSTk0uA7M4GSs//hv3aQF338cCHPwK/gD58UIuDd20n49m0fSgsyZj3ExKMTCLoVF5OvglKjQdfQeuHlhV0bkxoZYjggECBAiwcHAEx5ctJcaElU+APFsTVJRjlEWBWfyMytmVp8rXrQGS8UqX5rdQqrGasBAjP75nfoR4MKuWEaFlMyvPfWAWYzM/3B1XIWW027NVThntAO5XlwABAgT4M/g18WNyhqrMM/bhS8+uuYKUCbB4wpWnlWkJ4XXlK/ynsp1fAf0B8uOzG2fIoRmef/1roLtGN96QIyMbmMXZWJVzf7wWyWk0JDkyETuGEcmzevG8SONVgQABAgRYSJQIE1+mUP6YOitGaDwlaUd37bQPHZsAC8xiZwzSOSpT6RPvqHK1o+AfW8J/3j860Ic/iWbhKII8mJ0/AaKAWgTaPOwAiyVYulb5XCk3wquI+hPcFa1bugsQIECA1oIvXloeGyVQE3yNFJjF0ei3JfwyFiniwZy4Mp+/5OfHHyA/TQGZafTPD9U3gn/UHGvJMzrM5z4wi5cRrCAJrbqXEZydWxBdQMEMbVXD3MZATY8FCBAgwB+FL348OIUo2SLjvQ1EeSQZ5BzLBPj/AtMtYa98fdNYxk65LFDF0HJBNeHPj/yUBmOnnvcWoZZocqsKG/wt7n9+afNXFdK79sf8Gu3tkqzcKqrdCBAgQIA/Dwkag5M4pdLHjK8QTeZ45wEWf3gcw8pbusXK1S9b/yhHNL+zyBeC/AQIECBAgAABAix+CMhPgAABAgQIEOBvhYD8BAgQIECAAAH+VgjIT4AAAQIECBDgb4WA/AQIECBAgAAB/lYIyE+AAAECBAgQ4G+F8JQpU+CbqVOn/rqZORXV1dXI5fIIh/W9jSLyeX1xFQjp20+8DhAgQIAAAQIE+KshPjJ37lzMnDYN06dPx/RpMzBt2nRM5fWMmTPm4zTh7t27wzfdunWzY48ePey8menUDWVlZYhGIxaQCI+MIOITkJ8AAQIECBAgwH8DiUQCVVVV6Ni5E7p06ULT2Y7dunZF506d5+M0YZ+4+EbsSca/LhQK7px/8XjcCI9vpxEgnwAFCBAgQIAAAQL8N5DL5dygTCTqLEhNHD1pPkjjm7A/guMbERqf1PjXdq4/HvWQyI8PXQtyFyBAgAABAgQI8FdDXEQcxUchL66iMx6LhUZO45tmjMVnRC2N3ZMH3oiPPRxuzqZkFyBAgAABAgQI8Fej5UxUmBzFjcnwGHLrlEtNM/LjM6KWxu55Q0e6bhmIIM8CBAgQIECAAAH+avikhj/OooSi/MeRH6HRAw8tSY1PeooF5873qKW7AAECBAgQIECAvwKNS288jtKEBXOT+ciPT258lF77xEjTX82mwOYLLECAAAECBAgQ4K+Bz0+8hT4lnMdNe7XE/Da/AZ/k6CiWJeMHGBCgAAECBAgQIMB/A+IhNvrjc5FGSvI7R34CBAgQIECAAAH+PyMgPwECBAgQIECAvxUC8hMgQIAAAQIE+FshID8BAgQIECBAgL8VAvITIECAAAECBPhbISA/AQIECBAgQIC/FQLyEyBAgAABAgT4WyEgPwECBAgQIECAvxUC8hMgQIAAAQIE+FshID8BAgQIECBAgL8VAvITIECAAAECBPhbISA/AQIECBAgQIC/FQLyEyBAgAABAgT4WyEgPwECBAgQIECAvxX+NPkp+p+Lb/xsvI8WFt5lkUEVEaNJBGaxNUlnijKenY52HkeB5ZunXRaVNBU8j7Pk/SpW9I4BAgQIECDAfxehbDbbTCvxGqFQCNFo1K6LxaJdFyIN+GLCu7j4qrNQiDWg9/LdUNmWyi1UQIhMKERf5C6fzyMc43Uoiky6gAnf/4JcQxi92vbFXv0PRyLdxvwNsLiBLNYYL8u2kcgU7cwRYdHbAsKFMN5+9R3MnD0Ty6zSG0OOOpCP5BCKiQS55wMECBDgD8MXO1I2nuwRnETRVR71c8bji/eHURalsPyqG6OiTXfeUadb8sd/IsBiBxZyoUj9Eg6jmCsiEo6wNHmNDOrmTcLYLz5HrhjD2utvhbL2fZAvVqKY13N8MJyzkhdP8WuLMB/5yeWoqPhAJBLxbPQ8SU24HmN/fA8XXvkvFOMpLNWX5KddjPdIfgoWM4tYoVCgMmTkIlESoTAmjJuC2jlpdIotheUq1kc81c7zNcDiBxEfVSKd84cnOlV56zqfyyAZq0AuFUWIsqbnsu2x2yG7IxSV2wKNT4ACBAgQ4A/C5A4RkJ+/H4xi/H7yU0AVCnQXonuRn4IGcVqQn7BIzu8x4VDESJBMS2h0yD/6bkrPCyRG6UyWdlFGOB6YxdBoSqvAssyz+Mlpee4bVkHvPJZMkHHTZSJOwsP6wgrq2BLrA02AAAECBAiwKCBiJKNOto6Ou4R4Pj+fkQmRpDSjwwsa+RHyaMAXP75tIz+a9iod+eFNbzTARcCNBGgKLIwfvv8FDdU5dKvogwMGnYZ4ur1zGGCxgpWpyppUyE55NHv9WXm7VV3ZVAHffDkR06ZPxTIrdMUuBwxmpeB940EBAQoQIMCfhBM5nrIJRn7+VmAh/6eRn0IogXU2GIB4uz58oLKxuIumt3z906SD5iM/v7bmJ4d6jJ34biP56dWn63zkR+6EgiLFyBUKEYz7dhIydUUs3WkVHLXb2YgFa34WS7AW8NcZER+TP4SIjzvlbyFv016vvvgOJk+ZjN7Ld8Gu++/ESllAKBJu9CFAgAAB/jB8TRWQn78fWMj/ifzoBRtNeyXb96X7KhERe07kR7UlbHWgSQPpqtXQSH4KjmnZ0JJnZ8s9woxEJB+YxdAgorJTGTqjczNhlm+EhkdVMU17ZTR6yMqZy2nFGW+R+KjiBggQIECAAP8LmI/8iKz4hEVoJC8ljKnFYFHjM/4okX/uX+toC6E9u8AsjkbllyfBkeEfr/0/ER4Rn1gyjkw2qwph5a1FZk1oqj8BAgQIECBAa8LnHtI/zsIdhFL+4mM+8uMru/nO+fefoNfcI+zlR6MRe07X/iiQpsFcbLyhg8AsVkbTXlos76a5WBf8o507e02Z5vI5JJNJ2gPxeMKGHlWFwn6FDBAgQIAAAVoZPldpRMnlgviLNFszGHPy0MikdO4xJz+A0nuCzjXNlc3mSHiaRoBkGiNVZHCN8yWBWayMViwbWJa2gKwgOuSsvKPmY+PxONLptJV7PpezGqaZsQABAgQIEGBRQnrHett24Q7STz5/KcV85GeRQuFrsVpgFj9jBMeZpmrk25XAuzQ3/i0erejdVYAAAQIECPBfxV9IfqQJc9SAgVkcTUjGRntUlCpLn+W486ZRoBbwnAbEJ0CAAAEC/K/gLx75kSZ0UyaBWdyMT27c0ZEZ386hieCUugkQIECAAAH+t/DXkp9gzc/ia35HVfEXQvtXzhBkQb5tgAABAgQI8N/GX0h+NDESmMXWtPguSks0JzfuKiA8AQIECBDgfxF/7ciPKc/ALJ6mOURsjA+1OPr2Rnxk790LECBAgAAB/lfwF5OfAIsvfBbjMxpnFjy6w3u+cw9GirzfX0dLV//J/e/Fgv1xtqX2C3b3v4OW8fu1uMq+dJ1WSzS3Vx4s+nzw/Szxd75gdNE83s1uBwgQIEAr4S8mP760C8ziachovOkv++O5O9JKtt4959w7bwZPsfnemSkhO95bZG6Jtc71eQz3iQyD77DxbTNnml01u6CxH+ejZ2Fwt1sqfc+du+kfSlw0v/JR6s7dbWnjGUWuWQQdSm1KTXOU3Gl00JSCRm/tkDfjLDxLoZlDGu+Wctzt0d10baVQ4tT78X5/L0o9UDxdvCzG+lcQXrG4dHjlbflk/2YMjScBAgQIsPD4S8mPrw4Ds3iaBaKFUnLuFux6/nEiaj7vi7sOfI6kqUnp6Z5Tys2f9P1v6d8CUOrE88g7LADz2y7YnYf/eLOl8VByunBo4a+HJtsF3/8t/DHXfxxN8fIOzQL0mFBLLMAqQIAAARYGwbRXgL8EjaSoqE9lePospJ5+lqbgRo9KRovs1xsa0K1SitQcWo7t3Dc9XYoSWwXin7pDM/fuy8+ysdjZrzsTms7+HEpD9M2CseC7vk3zOxp5axazokZQlMdKC+/YSI+Hlh7zXHflh76577v0xvOau/Uumln9R8h1qYnw14sXy0Kbsco4+G50aLT0bQIECBCgVRGQnwB/HbTVgQfxHDfV0QK0kCvnsvld40bzQW7m86UF9GBzhdpkw99GL9w3zObHr4SxIKeNWMDNEqX+Z9BE83y0jK+Lp6MuzMGSDGuKfUs/dOX/+ShxM7/zPwk/DJ9mkc6qkFv43ZhG99/ydoAAAQK0Cpq0UYAAixyeKvMUm0OYapBK3LegXgzTmIIsGRpodK+TxgsfUqYyRMt7di3fnDF33kKTRkXrwfnSZOdImLNpctfk/tfxG25l9Ste/MYtg0tDE/yvqzkO4WIvD5w/+nUpEHTlufCuZEp/3ROl1/PD96Gl+R1o5lz5n3cE2DMutGYpcSgduQoQIECAVoKTjAECLGKYCvP0qZt9kirXr6uCjSpObmwOTApSFxopcGeC7ji3vo2PpjuND9D4to44+M9oUa2m3BqfMDT62HgieuGIUpOnvxe+2z/yzK+gJJKl8W0C46i1U5ZvgiMyFnbJ6I+PBftB6MYCbjpr/4bvyDd/AH5W2sH52Dx6uhDd9FB6Mn8yAgQIEOBPIyA/Af4yiG6YspNSK/jq1Buj4IXfyS8gS5PjGe8UI44sefe8Q+OzzpTa+uct3ZbedeRHTy4I5sa89UmSG42YH85HPxa+aYJ/1dy2JZqea4phIxYUcNMDHvznmhw3npm7lve8vPesG+941+600Zbwz0vt/jjs6Ub/Zdx6rqakOILq7vnwz5psAgQIEGBhEZCfAH8JfIXmVJiGALyPpPLX18925I/cuCkdVk9NezU9+CvQk6UO5ne8IC/0lIXZAk3u5venOXxff8vdgkJYEP5TWL8FPw4Kyxspm887302J8Q6NdMM7lJyUQNd+jpWa3wnPS+drhMeSER6BF6UTb00ovW72RIAAAQL8acxHfoot5thLrwsFKa3mCHlrMlo+FyBAS6iGmMml+JtjhZIKdPWHp6bn8jmNtOhbYjG6iEDjM/5eMFLodu7BVbkQCnk3OmMWjQ6KyJu93Wk0QjHvAitmc+Znls5yPHrBIJ1xb6A5+P66KzulyWYzzsJQpJ2MuyrIv2yh8VoobTs69e/puYIecFfut/RBBl/wrguMt2uw8sv5l801xTXP/LIzjaopED5rSfWe99Ofz+sZwrdguIV8zkKXUXwcIZJbjQG5cwc95ExB4Xi3/Dj7eZ7LaeTO2Vva9YiLJtLM7ALLtzHVeXdD/vlR8o/uHq/8gJrFRc80bYXgm/nx63cCBAjw/wPhsEdn/BdLGpu8L02aIywh9XtMvuiEWSmcwA+ESoDfB9UUVcNQNO6dFZHLNPCswIrr3Y+K+ETQkM5QOTq1G5KVV3/dGhwqPSpZV/dCrOv+wzxaxddFEdGI7EWC/FEmIMO6HIomnFIN0Y9cBpEonXleyDoZV4BSzbLUk95NGnkvE4vFzCLL56WAfXtxL6UlGiWt43XOyJxrmIqHoqz7uie450LIZNKOJJidiEXBKXZzL4/pp+xzdENLhRtiHOMMR/HLkmyJQPLfPDU/eGrR53mR8XDEpIhYhCSJZMeCUxyzWYRpR2eWhU6IsGz4TDii8RjFR8+GzE4kRWgUNoTCU3lE6E86nWb6malm78VfMQu79EV4L81TvflVsGlFF3HnTpcFkmBH0EL0z6EpLEFpkSmNQ4AAAf6+8LlKkbJNskGySp23PK9zMt5938wnOfyRHB+l16XnAekJ8EegmiN1mM+KROssYfosGifBydaywqaNgBToUASkPJFEnA6k+jLZND0Q2WGFDblVIVKyvuILhanMWR198qC6qcotjaoqG6U7v+ZGoxpx4DUJEJuLGfIGO8vwKL7krqiU9XAoSnJAwsRTVXm/1rsGlUWMityREz6sOCjyhN88oiRzonByG6HnipsjQbT1RnzkdzzO1Hrp8dtWSNfy2q4InoT0HB+QvyGkeZ2xkZRQLGH+1Ncp7k15YdBz9Et55hLh8k+ksshnosw/nSj/NVJkxJJxjBgRpR2JSERuCNmFmF7FKa+RHy9nJWwkH3RMxB0xdOmTS57nVIYZnpI80UZJS2fyJHQsC/lHt1kWAB8H+ZaRxwxJmXlPo5A0muVG+fS8lx5C+SkhFyBAgACSQ77xrxeEsHpopUYCZUHXESqBAAEWBkYWYiQDUpqZNKZMnY6zzr0A6224AeIiO5EE9th1H7zx+pum81JpqTwgRmKg+SmNStgNWko55zV94ul4KcOwp6BV1x0hkUOzonunpsVN9IjI0Yxx32LVZZbC4Ucdiyzd2SAKH8h7i5ztigFEY17dFzlwupftIoxohMRIU0giPl4DizhP7FK63x8lidCtSI0aop7VfZ3nsplGhW6EyHNjxIfI5Qo2qiNcdfHF6NaxI2ZX1yAlMlFsQN3sqXjg0eGoZl5lM0VUljMcOSZJEc0QWbSpRMs8+c2DzhlOKkXCKceKGw8ZurORH16HZGTLtLkBGRIb5Z1LjgcJGO+MJ4q70mZZx+dEajTCpBwX0Qohg9GvvIhOXVfCjDkFG2Ezp+amyLrBZxWA8pPPxEiirKwUfS9PjCDKbz9gQmFGxJgWiGYRDhAgwP9TiKtYh4hCzHWOnFyQXmjJa2QoSZrDhEyJYCk9/y34vdUAARYE1Y5wRCMCeRSzczDs3lvRu89qeOTp17HHIcdi5Ksv4bkR9yOanolttuyPM04/H6GE1CWfsLrljcaYOpRi9RQeb/lKWa6yJBIWlpEHWcq9iJOrx7LWIIEITds2Vairr/X8l3KWKaBIoq/RIZuS86q/DVgR/rWGUeVvRP7y3x/F0cEnSApL7Sfv3bN42EHEjc/zIhqLMV9cXP22l/dHsGhEpoxQKc58Lsbw0vQuqqm7XDXOOv1E3HL3QwjFQ0jE+Dzd6b5iJ1/z+TSfJ3nTEA/vFWxETBELoyxJARAqIMPMyzEyNoVWzCFNtqHVRQURu4KmxOSTPWJx9vNa2ebWBLn8Lnp5bVBCCzn3rNnnMGvSeJxy6kmoT5P0MY6WTIuXI0pZEriokRiWQS5jPllOyEqQBc81uuSHk5VHLeDFgPDPmmwCBAjw/xy+kC4BJaN31gQn1Urg9z5Ljdnz79eIkO8mQIBfg0YRwkhRm6Xw4hMjcNjRJ+KoI4/Dx5+8j0OPPBr9+m+FgdsMwqNPDsVNV1yEay6/ADffNgzUh3xY1VSGFyQSBU2HeBDBcCTDKVONsPgV3V/0ywpqoyuma2lEEKRw4x074odpM3D77Tc5e/4WkSXxiRjpisbYixAZYCTC5G1S+gpLcHVebcJZWNugnQaf1PmQfpYTWbspI7/9uDblTykpXtmMpoM0HeYUuYiECJDCE/xmF6c/qbo6JBJaM6WbmrfOo6y8Cg0kIRnymlyWBIJcRwTPKAzzQ9BIWVHz3IxcmkzOSIWmoEhwChqhUfRJlGxakR4oJopHSJnFuCgtxpsELz5Kuj/iIhJihFMOmbc2mkN/RWL0/OxpU3DAAXvjiy++o10IUZI18UbxohAJUjGbQYx2BpEh2mUZ57S8obdGcFWeRGPeMShN/wkaISsFb3nwz3Rssg0QIMD/L/wWD5FkbwlPlM8Pvxfqw1cov0aAAgT4LYRJJ8KFWZj9y3gcfurF2GDAXjj/7HNQxeqUoNHIQzFWZfXr0CP2xE6brYNLLroEc+uLtjiWKt3pLt4PaxqKFV0DKur4+2pNylj1VBVdxEdrgYokFFLEUvpyI6Wu2ZVinko5TKIU0vSQawiiPHoBW5SiCLIdEp9iMYs4Iygy4Q8yiKTEohrFEkiXbE0Sw1UAHuzNJaZLIyMaJWoaFaG9tL7OLF5hm9YzQiTWJHs6i1Dje85ga5xlaK+1UMVsA2MoJsIY0/+yGMkLL4uKEgmEfImFbNKLrqLMJz5snrkIRmIxN3pDYmLEgnaik8ZdsikjRo5eukDd4nCtMzIe44gd7yp9zkc9qxwkZKl/pqtAQqMFyyNHPo8NNlwfM2dOxSb91kA4UWkDPoqzYiVPQsxPyyJdeoudNWwt3qgwNBOpMHIZ5rWuVb72sCsXjY6ZO2fVHKUFEyBAgL8HPPkg/K6Rn/lIT8l5SwQjPgF+N6i9ioU03h/9KiZNmYd9Dz8RVZVRRFSFqPSksPVqOzWzuvPYZbfB2GiDtTDum588siKNG8Yn732IAw46DBVt29v6oZ222x4vvfCaKUD+m+IOUXWHQjl8++13OPLoE9CubUdb9Lz/3vtg7OdfODfhJGomT8IyPbvh0CNPtGe1gPiqy87D1ttvg2mz5+LsM8/F8kstjWQsjm0G7YhPP//OppREpBwxSKOueg6uv/E2bLDxZojGmR6SjA3XWQs3XXc1iQldac45ojVLVO5sbv5ojohVKEQlX8xg9JtvY+8DDkP3nr2M9HRpV47DDz4A73z4qY1AkQPQHf+tvWkNTxZTp0/BSksvj7vvfR6vPPMMerVfBgcf+S/k2Vwvv/AiLNGpE+bV1zpSo+kskr1iph5r9FkWBx12NLJq59GsjbAN2nZnfPjpt9hg/Q1RUd4GZ/zzTBI6Rp7hffDmm9jvwIMYt5627q9bl6444pBD8eEHn1qeyWSyBUu3clCLw/0pNomOb74ai2233xV9+q7AcnoGq6zQ10ifSKG/jFB0c8akiei95NIY9cIreGnU69h8sy0RZz6vsdKquPvOB0lugC+++AZ77LUvyspiWKp3L9x44602HSmCJHIqNJdW/pWLT4AAAf5/w2Skz0tK2vzvHvn5zeEj755Ikd/bKz0PEGCBYLUp1GXxyRvvI1ZWhb4rrWJTLRqViLDLLz0YtroVR7isC/Y84gQ8OewubL72UrTJQWtTXhr+FPpvOgCT5zbgxnvvx7PPDkf3TlXYZcedceEFV5O6ACmSChSq8dLjD2D1ddbHh1+Mw613PIinn3gKc6d8h0FbbIDX3v8WGSrrcKEBUZp8tMJIBlCP8nA9qqdNxS4774mJs3K44e6H8Mh916Fm+vfYmGG/OPprI08oZFA3dQK232ozXHDJddh1vyPwwisjMfKFR7Hach3xr9NOwQX/vgHzckXzWySEMSN/05SWUQaSwbl45LZrsQWJVX2oAjfffh9eeelFXPLP4/DOq89i8B774ssf59mUj/S3mlg6m0E8UYYOHTrhoYfuwY47boxVNu6HB154DseedJiRyHK2x2i6AHJNQ1bDNWGSz0w1yjMp5EJJZJTVhdmIx+rxwzcTSLZOxJ77H4bHn34SW/brhzbRCO657TZstfU2zNcwbrnjTrzy8vO48F+n4v3XX8auO+yA8T/PQQP90UJlt5aI0dT8oJEfkZuwLaK+/Z4H8MyzL6OqcxdEstraQOknYZGziBZZk/aGswhn03jg/odx6In/wn6HH4/nhzMvl+6OIw87FGedcyUG77ofidpgDH9qKNYjMT7+hDPw8CPPOTJLv5ggoztuWtP+ddXCBAgQ4P8rmvGQxuZOWbSAth8wlgB/DaiJtL/Ps08/j1C8Al17lXlraMKIq8JqCogaTC825ZGg2zIqctoV6vhsNaZP/A4HHno0Bu4wBPc++BB233VHbLPdNrjjrttw1glH46qLzsdLr32kQJCdMxun/ONErLXeRhj1xksYsvdO2HbH7fHMiKFYontnXHHVtahPF5HQQBOJl0ac3BZ/aRRz9fjy06+w0fpb4vY7rseAQQOxyz674sEH70A0Fsfo0W/biI5eX/rovY+Rrk9j2OOP4+gj98WWm21O91vhlrtvxq47bYFbb7/f1Hxaoxx+HvCgtw+0QLrYUIdRL7+E7bbfHg/dfxO223ZLkrt+OOzkk3D3XXdg9qRf8NLLrxnp0YIbrXmJJeI2KhOPJrHG+uujc+dOSJRVYuP+K2KFvkvTf6Ykk6UhodS0nsLVqIzW3hSzKIuSeoRiRhTFlDLpakz9ZTqOPfYUHHHM0dh6m+2wwzZbI11bizffepdkY0em/SFsv+022Hyzfjj6+KNJim7CzOm/4LmRL1muyagcszkSWVsDpAirTPNYbfU1sN/++yLMstfUn/LbkVz3nEZ9EBJxKpDkFfHGm+/ihZdew5A998TWOwzEzddfgXZVHXDppVfjwYeH4uBD9sPWAwfi7nvuQK+leuOpp55z64GM+IgGyTg4/y0HAgQIEKAZAvIT4C9DMZNCOFmGfDiJOm2pLDvqPdtokDXRhiapqLU6J0QlaWtV9MHO4jySpscwO5/Esf+8GB0rI4hTyWkaSa90n3zYECxVnscro15DPb14851P8POUBpz2r3MQobLXCJNGWiKV7XDIQYdi1rQJmDdrpq0bCYfCyFEZu7GItK0zQbgD9t3naGRrGIL32vsyKy6PHh2rMGvyBJtmyRbj2HTbvfH2x99gq/7rMj6+2xjTmMT6G/fDnNkNqKMfSRICW9CrN6foRm+kIVKOcFVX3D3sGYx49EHEmQ9xb7QkFEliyb6romPPJVDG6NigSjRKAhExAuSm3RheImokSkTMlvvQ2GolEiSti8oXtJJK4C+vi/ks9NW0Qly7Zyv/QyhLlJMvFLHOBhuCWUWyKfKQRaIiidvuvA/Dho/gpUio1tgwMnSz0grLoUuHdkZW5Dql+JH8xOxtMXrHtNpQTESlFHbTdszhEMvSSr0YYT4Y9+JdPZx3ZZSswtob9MNyvToiyWcKDbPRedkl0LlrT/TrtyVWWaW3niZBZl4yPQMHbIGZM6cgQzLIXLN7FoESWJ3yh4Ja3AsQIMDfFyaWAgRY5KBuCiViqOrUDiFpPl7bAIBqoE0DSY1qWbOIQg6FFBUolaf25ynmG/DTuG9IAMqxdJ8epubcWE2Uj5AstS9D1/ZJvP/+B+bdJ599aaMBSyy1tPkq37VznqZkjvvHKXhn9Egs1aOjRUD+a7GsVLCQ43WyohMSiSQqKxSSNkGk4o4kSDBCqJ8719aX2D48YkEka7l0Pb79ZizeGP02rrn8ahy85144+9wLEI0nobfFFaeEFmmbftbCZu1fI9XvFmRHqJwz9XV495238dgjj+CsM8/GwG13wMyffka6vtZGfsQ7NOWczZBA0UJKvZhNM+syiMcTjoDIdxIebcCovYr89XouWJKl8iRSvK9drp2t2yU5UtkGHTolnTuLrRaJp9z+RkxrXU093nvvAzw27Amc/6+zsMO2A1E7d44tZtaUntbuqCj9V9BFvOztMqZPNhm9siUSy1S75UBKjAvJL3dt3JgphlHRpq2t8YqGSGgqEygwb0PhKHr1WhrJRMiNeoXjSMaSJIIiq+71eEfDFAsVDg8Wjg/ZNV0FCBAggJM/AQIsaphmzWHDTddHoX460jVUV9JH1Fkhve2kkQUqzJBZ0o7KTYq1EK3ibxh1M2chrFek6Y95RbsGKkIpxnB5AkXeiCVjVO5FxKNxlFFRatRHKEov0r2NMvF+VEo4XS1tbVND+VzG1hyJjISjZcgVomjXKYS8dHQoR2VcRhITQTxSgck/TSXZkR+aWpqGh2+8DJ3bd8OqK62PzbbYBvc88AiW7t0be+yxC8mHNu4DCYxIlouDRmkMetWpmMaMSeOx8/bboaptO2zUb3Psd8gR+G7cOOy77z5o3707ysvK3aiY3oBS3KMxN3JEhR5i+uK8qW3ck0yAZrdszluLqZlGETQNsCkXNGpTzGRQJDFp2uCLhCOrxeFRlJWF7JV+YzKMdyhaxLRxX2HnAQPRsVMXbLLJFtjngEPw2Zgx2G/vIagoY5k01JsvQsamvBhGQaub6AWJoQiexvHKEmJHIlwqW5Y7/RcJEgd2bEhkTi/tF7HuBusho4VEYo18uijWx6NLAxCPkXCxvLRuSnsYJRL6tIc+9SEXgmihFXgJXLgBAgQI4MPJwAABFjWoucKJcqy77jrszc/CmPfeRIG1Lx+X/tNEl1ufYh89LTbgo7dfw4ab7YL7hz1rerNt27ZGjPSGuiBlqU9LSDEW6uuQliMqVb11FCLTENloaGiwER3NxogBmV6nmxQDDiXa8EbcRknimk6Sp/zV5xa06SF5lhsxovKWKegTElTUVZXl0PY/WvD8+B134cSTz8GRxxyHL8eNR0MhjTFffolzLv03luzRw0iJeIqIhRspCpmdohNWWubOwg7bbYPR776HUaPfxdzaNBrq6jF02CM4cJ8h9o2s2vqUqW29Cq4hIL2mrtSL3GiUR+nSWhvF1RozryNhGqY17xEtjbDZq/Z0nyXZEeFz6Q3btFchW3QbDMY1giJkMWvqz9hxt93wxbff4/kXRqK6oQ4NqXqMePY57L3XEJSXx1FeUWnjb1qnpc9RiHYobhaWyBavlJdWrioQ2cuWEdU0F4uClz5poVsRPLpJMr+8uTJyxbjbNsB84zVjnogm6YwkNx5BOlNvpMujR+ZGYbi4CE12zgQIECCAJy8DBFj0EMEpQ78N+6FPtyoMves6zKwp2BqdBurwMJmJTdNE9Er2VLz4wlCM+WQM2nZbFuFkFZZaYXmSgVr8MG6mKVuRmhida7VOauYMzKutwQor9tUXw7D6Kiva965mzpptFdzUH8lKMTMLzw9/BOtuOhgvfzSRCpgkIEI1SYZSJldU0Lm6aircAuIVbhdixVub7SXLypBJ15EcZWjTYCMxI4a9iopoGxx3xilYonc3p1oLWSNjk777gQQnam/ua5+iXCjHmPJEwx3yN1/ER++/hzFfTce5V16HtfqtQ0IRtvgWszWYOuFrNMydjUIsYc7FHbIkbdpMUNNCRtdI3DT1lNQ6Kt63ZzMZkoMi86oec2ob7Flbg5zPIjdjBubOrEYuRcJHK1IWhHMkVPxLJrVzNOMW4hNFkrgvPsNH307AIWeeiwFbb4YK94Bl5rjx32PqTJEyTWyFLD5aKpRjJOyzGCRp2rhRwbq1OB4Bcjlkfrh1WLTTB8UMBZQn4silUzZaZVNjmmgMx4yganpLI1u2pxLvqb7o6/QVFZr+0phRE80phQtRd3wTIECAAE5eBgjwF0CjEHFU9lwKZ512Al554Ulce+WltkmfRincAABVVTaH0aNG46IrbsM2uwxG/01WonUZtttpCDq1i+KqS86gnpQyDZvC1ZTNLQ+MwKTZeey6085GiFZbY1UstWRb3H7DdSQsTo1K8YlAjHjqWVTX1qPP8ktTAdOOQWpUwW8ImlaSjUZCNFijEQV9Bb2BpCiRiJryjdj6lSI6dOpMchFCg76RZTYEH/r07Xfx+BPPUznn6d6sGv33d4SWZTKZtGemT59h027iflr/VKhvwLXXXS8b1NfW8sgzZp//1XOtj9FC4lC83MhQMVWDGKMkv2TXpXt3ZSMm/vA9fSDvEalhJg998knMrueTNnpE9zm3qFypz5FxxKMhmwIU2rZpy98Q5s2bZyM0irVMXXU1brntDpuynDdvriiYhaHRNe2unbMF09oQ0Y3kGfFymWzk1h/o8Q7uSMKl199z6Yx7Q41+FewO08mAtKO1fWqDkL+qS9pzSF/Cr6+rQSIuyiv3iqHvcymcXwECBAjgQ9IiQIC/AKxqRSq2SAz7HXkwLrnwFNx8yVnYaKW+uPP2W/Hy66Mw/PFHsNMu+2KLXU7Culvuhhuuvhi25hjt0L7H8njgtovx4asPYqett8bQx57EC6NewZ77H47T/n0vjv7nFdhikzVs5KfdEj1w5XVXYdSIR3HY7rviuaefxHPPjsTgXQ/H/Y+/hKsv/xd6VJHUINeo2DWSROaAhnwE8XAScdpHaaSG9RZYIhGiYs+RQySoyzUFVcSeB26H6tw8HLLvwRj5/Gi88spoHH3c8dj78KOxwz67kVzUYsb0nPmjMDTGIvJj/IcKf5U11sbWA9bBVeeejRsuvxEvv/oW7n3kYazbfxBqcnG079gVE78aa7QRoSyPJCZFEpaI1kOV0f8IlujREx+//gyefPApfDp2EjKhGDbacmu071COA3bbDo/efz+ef3EUTjzpNNz0yKPYYNAGyGv6TV4yYoUI/eO1piC14WSU5VPMR7HGqmth643Wwc1nn4HrLrsOL496C/fcfR8233wLVDek0LVbFb775hsbQVL87GO1JBi2zw9JjkZ/3EoeeipWZ4buxAQLpDopJUq8SKRGIzskTHw2zDJQtruJPFIgEk2N7IgECTa9VYzYiFEs6j5WmCeJs2pivy6n3bn/23QdIECAAIKkQoAAixymGKNJ6jMSgHglTv7X2fjk/TcxeNsBuOLyizFo4EDssff+iJVXYvjzr+CZ54aiZ4cElaRGIkgYomUYsPO2ePHFEViye1ccdfjh2GXnwaitb8AzL72Kc88/xRSxxgWkaAfusCPGfvoJOldVYchuu2P3vfZFqKwd3vvoM+w4sD/d5VBdnwYDJK9Ie9NASZS174pUzSzoM2Tml7gPYy8FrKkX7UuTTuctLZvssA0eH/EgaudVY68dBuPg/fdD5y5d8N7nY7H3QYcynQVMmfS9LXXJZ90iZDW4tKaEonFE2nbBAw8PwxEHH4ALzj4d220zAI889ijOv/QqPPr4U9iq/6aY/OP3qNXoDz0RHVDatKGgJnpC8TY44tiTsOOgLXDcYfvh7LPPxrz6Itp364nRb72FHbfeCicedTgOPvhgprMML45+Gz2X6k3e1mAkUemtz5KkROkz/7WESMwjFC1HuLwtnhw2FIcdsB/OP/c8bLMN08rrs885Bw88+SzW33hTTJwwDuls0Y2ukUCJnvjGQZnnRoK0w3Uo3pbBxBENNaA9yaemFbWmB4xNOs30FXMkmA02haepuKKRnAiyOZLPMh4zzD9bxyQCSaJEIpVJp4wA2XIiIziiR0aRmsOGnAICFCBAAIdQscV2zjl7DdYfXm5CHg34cuI7uOCKM1GINWDp5bujsp2Gz6kI2JPT3L68Mu+MUuk6ivHfTUZDdQ7LdlsdR+x6JqKZNroZYDGE6Q8Wr69GfEXnT2Vo/UcoH8VrL72PGdOnodeyHTHkoME2ZSM3Oe11400rqbdu0zisK3mbRpKtjUcgm9UXymPIZfS2FJU9nWXzKSQiniItJvm83unJ8z79c4+7SNkq2hp3UahyEWQY2VzWvqCuS32iQtMx8bDWj+ijFo76xPUc/SqG3HNuditLve29eZQrY2RFOjR9I0LUgIhGOorO31Aoz9tpHqWgE7Y2Sa/cx9mUNAJSyNWxXTGsogtP8deASDaTQzzu2eX9r6jziaI+7skze57+k2jYCfMhna9H0nOnUZRIogx1vK3pp4QlwsVZRMIt7CZ5K9YhwvN65p9ehIsjgzzzOGvTRqRCfF4fNw1FI3SvhdP63hbTq9EaZScJoD58WszWMQ/KUWu7C/E5hqFwtUhc+SDJYcVg5Uk7rediWrWWSaQvVSjnFUA+o8QzD1hv9HYYw1GWa3WY9nmyQC3nyEWZ9oQ+fKr1PVZ3RIhFJ+kzK5fKU7nhYuCIWKMPFhdCFwEWXzSWo04aV5B5xaqrPOrnjMcX7w9jXUhh+VU3RkWb7rzjPi3T5EGAxQ5q+pQJts0HZb8+Fi0NoG9G1s2bhLFffM7Sj2PdDQci3nY5uvdkP1HUOkZ64LpETULAyYsAARYxVA9FPnJUqprB0PemtHZF2l+vQws5Vm6praQ+eVAoICaNRrcZW/BKBW4kxSlcTZNo2oMtgVdu6sR9ENOtYZEKTqczrv7zRyRJIy6C1gVJWcs/7e4c4/2I6elyRizJ+GkvHUaNWlMLikVW5HUoLHUqIy8Z03AZnw/b96zUpAoFvYItoZywcOWvNusT9K1416GgJf9F7KTmtRwnJnakeDNvwiJTatIZBki/tNWOkGGDDzHNRhQYajISs/i77ZBEwEh6GJaCS+lZEg5dSUjILsp0RKJMHwlVOZ+Pi1wU4ojEEkZWvJgZOamvT5OAxZEm88qLkJAFZu2L70wH8zQUIwlk3FVq5jd/8uw0qewc7RD8o7OxpdFRdXwSPMsw/u6+dn5WmRZJeFVyGlnTE3kxR5E/e/2eT5H4FArMbcYnQgJt5UJoMbRgS40EF5hBZRIgQIAAC4JkV4AAfwlyxQyVHVUSa50RIJ5qfx+9sSVFFQvFpK6pteLG7m1MUoov4valMe7BM+1ybEMmvCmlW9SUi4iKeAPJUIFKU8o2kYw7Z4TCi8S14zCVNe1CfE69Bo1WMXhnV3TqvBjOUwXX0yLF+JFIFLU3jj7HwTDiIkN0Rp0r13ppPKrVxgWSAxKXSKTCwlDc1eHQqEM200C3SqV+Y6aoo2RgYcY1WlTaSQj1DBW6FmEr/tq4UGuD7MvvvBfTKAf90oiMRs0sngw9FicRoUN9pV7ulFw9ayM+ReaLZaKD8QkjRYwH7xe0+aBuk7QpDvrWVqYQQnkyybzI28aMir+chLUqnXGLaoSKfjSQYMknR0XpI4md/NBuPU0ESLGRYRAyWljEsLUdgdzJZ43IKZ0h5QfdRuhrMac9mugzH40llQbni4icoDT53xLTImsbQJTXjeHSvZ2KjClkOy29HSBAgL85TGQECPBXwK3XIAkQKXBW0ohUZO7zBDIF04k802Y6Tm/y4MZyNJ2k/Xb0eQcREWnFSCyOLI+mcjWMQuUZDmnkxSlKQdM1IkEiD07/8Vrrd2TPKylKeecghekFzYdCWk/Ce3rZSKMNCsKc0oG5EeSA2jdNQmB21Lca2RHPEHkpi8fopEDy4UalbM8bgzwhDbB36t2Uj43wyBNF1lzTLwauK2WfdqMOR5N0G7U9g+RUbz0pni4f3aOaRhLRMJrhEYVwOGqjOSJFmsoKeSNOYRsWzjEfNdUllyRHGTElix79yyHvb15IC1GcGAmWQpAP3uCLpcClQrEV+DAT41+ZX7ytT4rYXkCERgMLJMX24VURPYXJZ3JZlg8Tl6c7+elIDPOPeR0SeWJZ5ER8G30XvHPv4D8TIECAAC1hoi5AgL8GUnpFxCK2UsM0oRRyXJ+xyFKx0ehaAwTSp7YvDhVzUbsp60qKMErFTGt9BNUIRzpjrz2HqIZDoTgVn3bA0QiLFsrSFzIbW9CrN7Z4boNDWsxjj2u6iMqZhEPXcpvT97ekNumkCMZLo0G8p/16RIBshEE6ndYatdKoEMIJug/ZK9dS3lEGm7S1ShkSDJIekqIY46bPMhRIfDSI4jYoJJnKOTKTV14wRLcZsvxloDRaqxPlA5rfLpB5pTJa7BxChpmU0GgLM0Nfedcr71HmjZKh2UIjUAKJhjZ2VG5qWtGmHj2ml6tvsKMIjca6YiGNMqkceJ95I6LHmNg0YVzp1nMiLnqGJpuppwNNSfLCINcqOR0FufIjwsdprfxTdhcUL/6p/EREVT4iXnKj9VwazZNPORFFlRfDEZlpShfz2Uab6J5sTz7wac/4UDxU9qV2AQIECGBifPGB+uS+GDOxyguT66Y2KLYpUGVk5RvBueXTMrRt8kVKUpqMQtKUrB+GM96TnpFklnFPN+9x+m4ctBOwjI+mEBUOlQsj7a7dc3afp1LKzuiZpvsOcqfiotLgTT8tfkxcfH3X7mnnwn9e8M9dPMx4rswfxcsyVH5S3dK5rcuhC0uP8/ZPQb5o9UmE5WMembf64RWjoWkVjaxoga0NhPCWFv7m8pqScXH097nJeSMZQiyR4D3au6QY5EpkSR+/1IVLkaBRJz2rOkJV6qVJC5j1vMhVhORLoyVREhUdBV/hUtcaNBKitSnmBzPJ+S82xH/57x6zsBUtjZKoUE3d27AMn7TFunSqBTNENCzi4kY4wmQvbnSI8YnHkEqn+Sz/aK+9hgRtLGiLkfUEiZNIjUFxUIQILbbmbZITpldp89pGlPmoUbJYhdbuCEyvlQ4f0BoqsSfet6IiRMwcnMe60lkinmTeaBTOD1MsSIYXVkmdO2WfjIhPlsQqwgy11DKMZEKvtrPO8749JreMnwii4PZFcj4otXLnSKfvq/JC9dMLSYXVdIsH70TgqYVjMJ+c0bN+pjXCv98E36bpjspIhmiyNDR356HRwp24dOuv5JZhfhth/vsO7sy3K7nX4rQJJTcaoWu/ZJtcNLnyrkryqdl978TZ6Vd+uTrsWQYI8D8FT7w1h+20+x+gHry/nsDm4BsF5KKBCT7GSyMDWhiquZMyCXx1TzUFQJPO0Y32KWH09UXrsKYCKJljFKDhAnvG9EV0RwI+QkmczWhBaJK5UGCPP237uGhNg4kAa7Da4E4brElZUHXlo+z90w8qLFsMqzQz/Kjc0L3kvQ3b8zkzDMuRCUZIcWcPV98j0qVN2/BxuZPiF9EosOcdTUaQyWdJBGgnBSR/fHehBO2oXGifIFHQOhVN3djeKTKKOCMijpC1qRLtg5JgnPUNKz5HRaVesuIRiyuP3IiKRg8sri7JCsyMvm2VV7wZubClRzf/HOxJ5ZfiqBEP+qmvceuGVTczjAfjpnXMpt9opY+AOsKiKydMtUBY+ScbxamQ0dodDxaQyILe5KJ7xlsjOAVop2SWm2lVqV5Nj4kc0QfFwU7li+6LAPGcYZh3gh9HQtM2pr6Z5zYCJDsRBkKK2y2Mlq0Uuxb0enFn3ru3FDTuRfcKjgff68b8Zd4rPqpM+ksm3EdHXXoZO8YrQqNYyMaRQpcfguUnwaZifikPNDpmdvqhleIpLq83rCwvzMT4rDKCbli55NZCCOttMD2vENyCZJ25sSq68NJRzNJNQfsgqZxyvK96xVtaLK0rOY0plapzaoNsd1ndU3mybTFvCvTLosoAFL6mSjWSlwu5j8EqPP/tM/2IFKr+KibKEaOPvKcScHEWKaSFZ6d4O+iMRsxb8bWj/Xum6cwO3pX8aPJHdYzGa8ulzmWauS214IXaHVNP44XEHzvqtjlydV0ovWeu54uv+3MOnY0ZPS6rxj8fnt+6Z/cF/Tp7nelR7/Gm+xamjs6uMYaN4Tp7F5YbsXX1nna+ZwECLEI04yGN9c2ExXwI+yTmt4zAs8bz/xqkyBgFxSNZlsS8eXPY46Xwo5LQBw/Lkglk2UvWLr1S8n6POJVJUUG4NRnKCK2H0Acdo/pIYiZN/zR1ELW3i7IpuuWf1lNoMWVDQz3Jjp4RaQAqKytpl6L/Ui6S1GzeFEbN88Zltp9zvhjRYlVTWVSe9haONCdv5dIkIQxPu+1meR6LkeRIYZFUOQXNx6UIqci0sFdKS2GKFEhB6BtXllZ/aILESItelVlpxlU9/xTTqW9A2RQJ015fV29vQEU02uLlqcJROS8Qv2L9h8Aw1GtX2YQYpxjzPJNR3jEPtBWyiVMZJkEJI7T4V/mgT1Dk7G0ulavsXR5LEev1cflh8TdrqUhZuEjLyrl2EB8ouW156yzlrtS17LzG5Ll1dxQ5d+Z7YTAWJaNzd3DJ8C68QF3szMLBWRPOTi78P8FC8wKygzRJaSOnrZ40NzzRHT1reWAP2F3v1wNPdMv5pwuFQsNzc6Mf3nTu5RPrqrkr8UPwL3j0R4pszY4WUdOtvQWmDgvja2HRXUFlrrkvFpqrs6IujtjoUyKapgtrDZBNQbq0edzSofRcBW+F7gK3MAyOeP1nyJVvHFy+l5rmsPJwpx7mD0k2vjvzhSdNvikElVLJc96pu98UgitHO/GgE9136W0O357G8mQBaOYPQWc6k1xSp8TVg+Zw4cuh76d71j0nyN555MYW/RxUvZnfvwAB/gqYTjCoPvKPFqUmLKXpG60v+DWjtQq/Bnv91u9uLiKY7xploSDViE51XS3K2lUgW0xRKdYi2zAXkXw9e8XsTeWA8rI2bHb69ID2JIkgS+lZ1rY96rPsj+T1JlAZlXAd4kn2v+ivFljGQuxB5lOIs1ecjCctg2xhbDiFUCyFbKEGtfVzSLIqmZ9U3IU8wskI0rl6uqMws/avnqdGTSjeLNJq/lrISWEe0hs85QgVGDM6t2kL5luMpiKaQHmU9xi3UCFqXw7P81zTeDn+KZ0KP1ZOopAoojYnUqMvjUeZdvc2USGfMVKUYfq1IJbM1sKtaltlhChGcpihckkmqljwMRvN0gxSXiMZeruGwk0jTPSK0Ll+mX6e+NNhfxb2pEZFRLZYFr7oF2mV0tTbTxotQDHLdIvkSHHKjeKoESG9ceXt18F/kSPFLUeyK8j/HO1US0PQVJg+HSFyyjxmHkRUBjRGCAQ/KTb1p6e8UQraW7HJgRYC2313aZEuuVR8qa55dIpdZe8YgIzyT2HrDq+lVMwvhaNU6VeuSsC8V/o0KmQjQ54bVkQ7+lFg6l04GmGSnzbU0eQTa5p73rdn/dJzLlbeD42u6VPjteUA3VqUZXipgyAnzsL5omtnNJ7G9sF8UBg2ZUkb7dYsV5pGTGeYPzz6fC0cS/JX7YukKCu5o3agBcxsgypYBiqyFGYbymRqmUTGTKNmvGHx8COl+mKhutgJLk7KRTnyCbWDOK6Me0beMCzlozohVm4Oet7Vk8aAGs8s9Xxcxo0o6u0374aRaMZVBzMib26xutVLupNRbVEIzB3e11/jGJqZotWDCJ9Rip1nKkH5pTv60r3bJkIlpnqt+7Lz4mk/BAkkQsojWXh1SRDJoXuLZCm8shUxc/4qTNnrR0/rGRmlxnW8Gv0UlK0sJ9kr/hpt1WidPdbMYYAArQ+f1Khz2MRppEfVcSYv8Ox802zkx0fpudDy+r8BxSAaj6Ehk6aAzaO8shL1De6bSmVUnJUJNrN8DdrYTm1pzKuezYZXQHmVvjxNwRCJYeacuWhDAiThks1SaFMJ50hgEokyEgFmUroOFQmqyGy9LebUWyh6BTcXziFNwROuiNs6CY0WFbI5VJRVIlWfspatPVhEemQcWWDErMHrpyn/7E0XDRupAFhIYQqwWFibzVWzgPRF85wtCE4m6Y7hZtiDVrc3UU4hG8lhXt1cximJcKLSXl3WvjkaEUmQ4BULaSRiIog5htGAeJTnjP+c6nkmgmvTKRIjfdlbr0NX2gJemxZjHLNMv+LqRCR/eSnyZMrbS9PCQE9rUa6812vZ9nl2GwtXPohcy5UUSYI8TVNdVC1Rk5umInTmprqcIpex6Txvc0DNhPiwNFDAu7R48VYy/KdbJEWXZlVir1OFYVYuSxz8I+FbOyO/S9Hkg86csnJGf4quS0lJoIZSX3huGs250R27aydOSckYzIni0ORWp7oqiQXteWXa27tp8O95aAyo9FS/Tmk22clnL3yBidIacr01ZpTDi3ciJgVPosr7oqq1KYYlvqFwqUgjrK+qDxphteeURyTKesstGdc0GtPJNuegZ+SvXOrcLF0SCDfxpQvflMSvEU337Zd++DYubU33fVh78I6+NVuXGQvB4uHlhzniUemnceXMU+e5QQc3Zacr3RdJ8VDixoGOnEOitNbol6bkIK5r4RhoY+euzMyB2SmFKhF7ojFdfj4IcuG8kY1nKwtzoz+XJln54ZkrfwTRjAfVNyNivu8BArQ+fg+PKTVhjR78J6Ohafea8n8PamAZCogCFXo8GUcmrV5QAoloBUkP7evn4JvP3sQ5Zx6N/puuhvU2WBUbbrohTj79n/jw07FU7lG0b98e1fPmIKmN1bQdbUijPzGkUyRATGNFPIzJP32LKy4/DzsM3gp9V+6NNdddAyefdSZe/+gj1FD4zyPpSZRFURYPoWFOLcpC5ShPkoiIhETyyJOgFNkjNwHaKO2UdzySnERIdPRqsZtKk1DQtNscTPz5c6y6+jJYYdWl0Wf5rlhxBZpVlqRZFn1W7IOlevfG8isuj7XWXhf33D0MmWyS4j9qrytHyuJoIHHTxnGh9Dy8+sIjOPygXbHySr3Rd5U+2GnPPXDXww+hPt3gFt9GEnxemwSS9OnVKpatomqxZbRtnRGPrqcsQcc/WvhC7s9A1TAUizGfsiR7aXz5wasYsvPWqCCh7NilKw499hR8N6Ue1Xn1dvV2EXMwO4dmFkY9/wLWXW09kroEVltjbdx426OormffUlMmksEWaY11ae2PFiJ7AYpR6Wjpk6KSQHZuvYTqJo3slQHyzDdy6dabGHhbWeUPsJho15texRi98ZSYyByJnDPyQ35qvMkfo3DkweJk92Vr6t4ga0EKXCGLJDk/XKD+yIXKQXvyKKWscbSkX+aEP7yppdr6nhiLzqwVkjoC/pkz/OVNnblwPSWtZxhFC1Ln8oT25s55b3461SkVqDNtLUDW4/sX0gaMUTYx+sh6WTfxKyzVqRL7H3sqquldvMx5ksrVsU4wD4rz8MUHb7Jd9cA2uxzpPjtCH+MRt5O38kF1h1YWtoXSrOwcHGlpSpG7754wK9/ac6fRjRJL57LpknAUwKzsEeWPwuZBRvaEF4JnqSvnBmGRea2l0laaWctvlZuoiIiPRZVwOe/qvfPTjSjqOaXOERXddyOf8lqQnVvXJFfyTJ1BbafpwrGCVCeAnlrVLilLuzS/FA/a857K3JWv/FN+63l55Fz7cHkiNw5WFDq6A9FYcw1a2+TW/8ifAAEWDXy+onqvZS56+1Wb4Wr5ijhMKaeRCftTVqXGto4vuRZ4Zsf/FtTc8jn1BKnoG+ptvU4yEUW6oRq5dA0u+/cl2G2/w/Dg8OcxddYcpHMZzJo1DY8//jD233dPnH3uWZg8cxYKsYRNDUVJPgr0rzweQzhbx45JGsMeH45NB22Dex97DN/+OIGhFpGqq8Ezjw/FUQcegAsvvNxIlEZRtCi5jCSsmMshn87ZdJwTAowphYYTDsozCRAJIE0B6D6FD4WNySGeS8hFIymMH/8lMvRAlE5ZruWQeQkzLYLWVJ/++Ew+k7MpOm26h0gcaRK/EAlXNF7ArNnTcMihh+DEf5yGDz7+FClNAVLwfP3lB7iGhG7gVptizBefoYEELpIoJwFiXLTGQtNRGjqh/yYoGTOVt0uPIz0mAxcCJi6LaRvVGvnUs9hoo21QXtUGTz/7NMnmJXj1lVHYYqvt8Ms0UlyTkYwX3d56/TXYfqfBGLT9YIx88SXsvOP2OPeMk3DBeReAnJV0h3nNDHNfI3dqxKKqH4u4ykJ3nJWd+Yn0bITGM+/EPaNYyzTB+V9qI+jaF+zygEaKR3Ezu1Lonne0SsBE2LU7KGo2IkDTBM+B55kfmh8/s3GF5aBTWZmHLhbyTXG3Gxauc+/O9Cd44Qj+KW+49LL90c5m0Tw7Py/8uiKjETvfNwUTTiQQZxvTG2aalpUa9L3W+jOhwI7Mww88iA6duuHmW25GRbn73IY6DVrkr7zUwn4fTSG4ToXVTRlZ2g39yEL3Zbx0+wHbibtQ/Bsfa4TuKddEOHjuOzdyS+Nfe3DPyn/PGOhApzYSohzyLmkMjSc+XBn5pd4Uq9IzBxe8u2rKTT8Ul1qXYl6rEvgPtkBz1zIaA3Y+NiVDJy4NTZArP6Ye7CHP8JHSS0G+/Eo0AgRoXXicpbHyESajaF9qWtRgVlBKLBkfpee/hpbPLAqoDSYk5TIkQBSomWw9ScBsJOINuPiSs/DQsBGYWyzHcmsNxGXXPoDRr3+EN18ehfNPOwHl4WoMG3oXTj7/QtTGy1FPJZzN1SCufVgaZqF9oh7vvP4cziK5qUUb9F17M9z/2LN4/+2PMXL4COw/eHtEsxk8fu8juPWme1DD3miOxCtVqKcAp9hINyBOzRAlMQrnNRKgTe3Y+w2p/84sth6UpmE0UhDlPZKmgtbkUKwUsoiHc/ju+2+QKSSwygZb4frb78Xd992P+6kQ7rvnbtx3x914+M6HMPSux/DQ7fdj6y37k6BqJVCYykiF2ICammk4/rR/4LWPPkd9uDMOOPpcvPHOl3jjtddxy5VnoXfHEDLVv+DQQ/bHNz/8QFoVQrKs3MiPpuIK+SYlbCeMmy8IhVIh+2eg3ZTDodmY+8v32Gv/E3DkKRfijgcex6ZbbolDD94Lj91/C2ZOnohbb7jOja6Espjw0Wf497mX4vIbbsc/LzkHWw0cgAvOPg0P3XAB7rr2Qrz6/teoZdbWKwB9NNVThrbWw7q6hKql8tnOmUbVVeVbSXqazuSqiSr4kBfmB73Uei1daMwjSyd5U3j+2hLveSlrlotPGNU3d312xclNGNg0mGDtRn7owDs2uiB/lBbZ6z6h+6ow3rWLoUixfNdFwcJT3lm4vhc86rGI543BC9v5YaFYPW3KE8VQhjC3cqGVRO7MwIDcmiamW8SEhF6bLCYYpj5EEpXR6B3zK9qpJ8ZPm4mht1yLLqqvGnAhRC6y2ThmTm3AiCdfxl233Iilu4ZJ8JmfzAPjO4yk6jg08uPF24+v6qSyrzHNTbEjRM28DFBabO2Ljrone3/ExPnZmHS58fLf/HeWvM8zha8jOxV6W81N0mnq0Z7i0V2b/1YY3mWBcWcNUBAuGPkl45zp2sYHtdkj89NNpelNQYXfRLbdszq6O/61/FCdU87bG3uyo1GKrdQaH9Q5y42nLuVy4RWGbJluW/OnOJuVnuYzFgCvZWTNp2V0aelu9N8zOnhuBdeelOe+wwABWh+NHKTx6A6/BtXKZvBHenyUXre891dCjUlTU4U01TYFRJyaKBZK44P33sSjTzyPeWy4/QbsghvveAgDtt4BPXsuia6du+DA/ffCM8MfQruKGN596UU89MijCCXitgha+8DkcynUzJ2C6667HPOyeWw+cFfcdOs9WGONtdGpfScsv+xyuPS8C3HeqacigZQJ6K+/n4RMtAo5kpt8IYOkFqfkslSOFAkSnCY8nZARdDQxRmmuhVZaoBLWAuMoBT0VnhbtThj/Izu4ZejYfVlsusV2WHfdTbDx+hvTbIQNNlgfG264AdZaax3077cpenTvRKmTJtEqojyWQDFdg7ffGIXR73+AbKQMt971EI486iS0bdsRPbr1xA7b7IDhTPdyS3ZD7bzpeOCxh1HHuNQ2kLzFKOTzWRuVkqAzQWY/pWXd8vpPQEKdef3wPXeislN3HHHSGU5w2mKfENZbZx37Cvm4rz9DqmEe7fIY8fRIZIsJ7Lrn3laPtS5Js6/b7LAFlupahXsefIi0z6/h9E2VXgTC+dwYbVOOcuLdkzqRmnJ2ekaKx8S8/6RBykEq1Oz14xvaSvU4peSHJ+MUSan+EJwr51pnYcYjJM1uSkVKwfeWheAvXpKFKUMRK+eflY/51AQpFjf9wRhpgS3zWfd99/p15Ski7i0Y18obdgDstsERMqNwcqr8YP3yHThVq+cdxVN+GhFQehnHIsPV6+0aSi7YsB2P5ojOWLFst26mWTG3HPL4mhafxSIxdO7VB9/99DN22G4je1lBa/sKLOiMRpHojYJyb0qqNBzpKYUfr1Iy49Lpp8BPnUiVc+nsnV+6Y/Fq9FZ55s5k5WoLy4LyxvzwiIsrUcVJ4bs6YQ9qZFfFyyuzopEbGdk5dwwxpIXiLp9FeBxpcvVBaFZn+GvByvtGe3Vh3PfrFEOz4498kHu5s3h5cXALlWlDNzIuRjS6x3qnaUorf9mpIMwdLcyO4FGPNYXv57iu5LdykUe5pzGubjbaisSvewECLBo08pMF8BQnC5vjT9dGBeQHpqOmyhYp2FrT2bS9kl7MNKCcLTyUasATjz+FuYUyVHRdASeffgY6tC9jotIUvimEtViSDW+1FVfCqUcfacr3nhuvw4yZs5EOxVHHdlqkm3c+eg9fjJvCRlqG4048FVWxOJL5PBsvxVRE375OYMgee2Dt5TrybCaee/Ed1GQqKWUqKaTd7rhanBzVWh9TVprK4iGfs7Ur6iVKoYhg6KOZlPdI5RuouCnQk0mkUjmM/fxb6oc41l5nYyp5kiPtVky5GA/FKJTyyMQKyMbDyEaLSGgmINuABOMfa8igIpfG3bfcbCNNg/c9AGuvvSqihXqUaQ0SZXYO3dGh66o44ZhjmTcZPP3MCIyb/BPzh71rCjn1cU0hKz6NlUQizRNypqRV1vNXqt8NPl9sKOCtl1/HBputjw7doybulb5MjuUUKcdjj92Dp594AO3LGCPG65WPvsByJIFVbVSmzO4I/aBiCcWLGLDlRnj/3dG26FtZHZESzqfw8ZujsfOuuyNWXoEunTvi4EMOx4+/1ELfx5QYHvvJx4iVdcanYyfjnnsfxnprr4lEOEGSuTZeGvWeXijECy+MxsCBA0iO41hllT548snXSML4NAOSbtJr9tr3KELHEY+8FUmC500bj9NPOgw9e/Sw9VRrrLIq/nXm2ZhZWwT/SZ2lbLMoNMzGjO++wMlHHYeKRBUSsSS2HLQjnhz9BWYrHMvmesz96Vv0JdG9/tqb8dTTL2Ot9daF9oTaYIMN8dijI6SioK9QGN0hqS7m5+Lz0U/ioP2HYMmlelqb7Nq1G/ba9zB88NkPDF/1jj/5eTjpkCE49NCj8MJL72C11VdBp24dcc3tJMVqEyTyj99xMwZtvjHKyhP0J4YVV1sPZ553A6bNKYgGsN4zokV9/6wBv3z/FU464jC0LauwNwn32OcQfPDpWK/upFEz8Usss0Rn7HLMyZjJNpVmjIuF2eQSs3HXtZdho3XXZJuIoFevpXDhJZfi59kZG83T5pPKirGffIYOle0w5stv8cjjT2BddgT0oVbl7x2332Nf6ffULkElzk6MZaEiIKNRQLa7L957G/vtPhhLsROgvZE6du2C3fc7BB9+NQ0NdKdtp9RxUWfAyI7qlJFAtV+eZ2Zh8o9f4tAjjkSyTSdEWT/23usAfPLZNAvb1uSQ/BXqGjD0jrsxcKtBSFZUkPyFsNKqq+DMc67DtNlqY6zf2WpGeCpOOGRnHHTwIfj2x2k47KiTEU+2QbfOS+CE407CnHnzMLe2GqeddjKW6tkDSXaODjv4eEyZXc88VMJq8M3nbyLKTtTTI1/FTbffjRVXXhlJXm+/9TZ4+bUPLF5WRZWGfB2Padx+y20YsPkAtIknUUY/V1ppRZxx3kX4mZVUa7KUX3Mn/4hlOvTA2y+OxjtvjcYWAzezDUW7dl8aF19+C+bVSWbQqV7JVD0o1uLz99/E3kN2wZK9epLHh9CzUxX233tvfDx2kuWv6muAAIsKGvkxTqIOrWBCQJAma7xoxGJDxRV927SQ6dICpnR9PXJ11fj4gw9oUYU1N9gcvZboQVJQD23Tn0s3kFRIRGgvnzy2HTAI3SvL0DBjGr4a+z2FQtz80WaHL7/ilNtK66xHktAdZfqgI5VvjgolQ0IRildQKJVj1x22orJO4aknRqAuJTXGhzQXkq9lD5buyWpyYb1iLWXoyE42XcsYNCDKXqPWPMQocOqosfKRBKKJcuksTGKvt5qCLhSrxJI9l2H83acQ1OvS21x5I0AkfWRUDUxXJp0icSjSDUUZhePP47/DzxNmksy0x2pr90NVRRXv51HIpC2NhVA5srkI1lptJSzRrS2KqXq8TxIgRa6NDm0tEoWY/9kHNyVD01hfVHV0w7v8M+CzuRmz8MP347H2Wqtj4k/TcSSVf/uqdujRuQv+cdI/MG3WPOoeRoZB1dTWY8z3k7DUCqvZ4nK90yWSo3iGSDR7L90dv/w0EVMn19s0SzFXj1uuuwXr9x/EdCXxyKOP4dZbbsDbb76KTTbZGBMnTtPDiLNsQ9Ekzr/4clx3/Y044/RT8fSIe5FmnmyzzQ4486wbcP75F+HwQw8jsb4TXbt0IPHdB2+++Z2VlRa2N7Ytn/DzxryZs7DZltvgnQ8/ww033IQXnnsae+62E267+QZsvd320EfctSu0CObbr76OPiutiY/GfIH7H34Yw4cPQ89uJAcDtsDD9z9pCktksZzlHcpl8PDQ4Tji+H9g1yF7YuSLz2K1lZbBvnvtgjP+eZkNFomw6eSJe+7Bllvubl+vv/mWW0nmXsTpp5+Ozz58FztuOwg//FStNxzoViNEWbz2xrs4+YxzcCo7DbfdehOJ4OqmKfcfsjeOPPoUbL55fzzz9JN4cdTL2GzT/rjuistw7JHHuM9TMCWq46899yz6rLo2CcQ43HH/Axg2fChmTJ2IwdtvjTfe/Yhu9FpCAVF1JhJt2BJUjhnkGuZh5112x/n/vhoDttkGr772Ms484xQ89uAD2HLTzfHD+BlGaLTyLaIXBUguL7j437jupttZV07BqBefw1qr9sHRRx6Miy65wcitSKMmakRKpGltdEOGdeZ+5s06G22JssoOuOraa/Ha6FH41z//QfnxNrYjUfjpJ2226NxLcetEB72NqY6L1vaNGvkalu27Pr767gfcde+9GDZsKKZNmcznB+KN18bqaXvz8vCDD8RRxx2DjTfth+dGvoDnnnkCW2y6Ma6+/BIcd/Sxln/6Mn6xUMswU/j6+5+w/eD9UNW2A0a99ByOPmQP3H3rtTjksKOx2x4HsUgiuP++e3DROWfiyeGP4Yhj/qFcYRq1wF8jbxFcfOlVuPjfl+GU01ifnxyBhAjQlpvhllvuU1ViO2fkmCH7DNkdRx9/IrYYsC2efup5PPfU4xi05Ya48rLzcTTL3NW9rHXikiTwN91wO4469ngM2XtPPP/80xiy2844/+xzcMyRx0HfxVU90O9D99yNdTbcAmVt2uCqa67B6Ndd/n7E/N12653w40/ulf8AAf5X4EnvxQEhCnntqcOmRuUW1kaAmVr2xmpN0OktqDh7Z+US7Nk0yuNxtGGvS4IwVYiisl1HdCqPIVasw9djx9O/MrqjEK6rwScff2GNfoXV10KiTRXP2KTZpjNUFKlwFFkSkSJNn2WXh/barZ/3MxXvGETiecyc8wtOOHpvrLByXyy94poY/dk4kppKUwyZTAOSZSEkY3WYPWMcdtppOyzVdwXsuMfB7L3p9XYqkFQW06dPxtx6hhmNYZUVVkU4VUC6utZ6vnlNjeXLKb0qoU8u6BMFleVV1LdFFEgCytsm8NVXX6CBErVYaIc+fTak2zjJVlRSnOSHRRzOMD0pKti26Nu7J4VbER9//KntU1TQaBXTa/Ke4sne6rIzxk1WzAgpEVMkCwP5E4shTeL24etvYMuN+iFW1h4PPDIU115yFl55Zig22HwgPv1hCmMTR119FrUNIaTZCdcKiEihhgWS0hAPPatHoozEgPmRbaDSKszFLz98g1MvuhkHnPhvPPDoUOy8404YPHhbvDLqORTS1bjjpmuYP1nU19ehyDiM+3EiRr36KnYZMgSDdtgeN15/Pe8Xcc899+FREqchtB+802DcS6FeXl5BwT+ScYARzoi++k6FbGSR+VfMNeC1Ua/jywn1uOq2pzB4l50xaMCWOOPsU3HrTVeQhM/Dl2PGopyKqnbWTBxzykXYcOCuePr117Dj7oMxcOvN8MA9N+CW847Fvw7eFZ9+PgHZUBnSDW6x+wcffYKbHngEJ/7jVAzaakvccdfVOPeMY3DdNdfjszEzbIqlviGF4S+/iy132QH3PjQc2227A8nYQJx0wol46OZLUDd1HF4Z+ZSngNz7RxN+nIxrb7kTe+99AIn9dth87T746esvMXb8L7jurgdxxrkXkkxtjgFb9set112KUw4bjLeefwgTxk3RLC/yc+qoqI/DmpvvhOFvvYFt99iFSnwgnh96C3p3K8clV97AktKX9Vl3syFE6vOoYr1KFFO44Yqr8czrY3D1Iy/g7IsvwWab9SORORYvDn8S2RlTcf4pJ1lMFd94pAFZErovv/0WDz/+NPYYsge23HxT3PPQzRiw+Xp4dOhTqGPvRWRJ5MdLJENyppDP4rkXX8UOex6MK267Fzvtuic27bcRTjr6QDx86+Wo/vlbvDHyaRvJsJlRfdeM7Ud5ZOySGVw7qxbHnHg1CdTOePrZlzBkl8HYZfAOeHr4g+jVJYJbrj2b1XMexk38Ae8xDy+/7Wacdf5Z6LdJPyr/7XHz9dfh7OP3x4tPPoivxk1DbU5f44+BjQAffTKBfp+FKy47B/3W74tzzz8C+w3ZEs888Rw22nwX/PuKq7DpZv1x8pmH4+ij9sbI51/DhJ816hanDGSECwlM/HEmnn/hNRxw4IEk2ztg+LCHsf/e2+K6y8/C1Fl17GxF8cXnX+Lrb8fh+jvvw4n/Ogn9B26NzbcZiGuuPxvnnLgfXn7yWfz0XZ3Vab21Ws3O04djvsZtdz2CQw4+EgO22hw3XkcCvP8QPDX0IUxmZyVNGZltKOKZ51/FjvvugStvvwu77joEm26yCY46/gjcdcdNmDvpJ7z+4ouLk7IJ8DfAYlUf1YvUvjTalFDyLcdecTyhxYRU1FSuEUk62klR53MFCqO0LcK0jznSPkayoFUH436cRA2WoKMsZk37BTW1dEdBt2TvZWxNiXpvNq1HgWFD1Ow6aW+erp06IMkwCg1zMHnyBJKSHDq0b4/TTz0ZbXSDQv2q667CLzPnspdbhfLKcmYwFV7tTNx62034+ocf6WcFTvjHSWjXthKhfAbtKsvw3ddfSUVg5RV7U4h9g8suvxh7sKe14koro8/yfXHKP05kj/AlkgEq2nAZ41tHUkMukKljXqQwdcoUZQ9i7NV26NgVqbQmJiS3I7amKE9FHYtTSDJ+fZZZiscwJnz/I+pSKUTLlJ/Unso7wukN74JwOd0aIFlLNzAs4MkRz+O8c/+NK6++ANvusA32OeRADH3kQUz/6Udce/llyLKnLZkeTVSQaGjDQqUlTHKoiTJpqBx7wyRumu/IUt0xXc89PRypbAQHHP4PG8nSM9pMb4mll8IO2w7E5InjUSDRLdf3rHhzx10Ho207LZImqOD69u2L7kv0xKBBA7D0Uh1oyXBIYDWF1YNm9sxZWhbhQNKoaRftZ6PdsnWjqiLJDjN78V9+gax17eU4gt333hcfv/8W1l9jZT43D++/9Qq+HvczjjjhDNbdBDLsYcdtQ80CDtxjJ3RpU45nSaTIixFj/dPej4P32Y9KdGUtETNoiu34445CVVkFHnvoUegTZuXlZXj4kUfw2LDhVndValZyJLor9emNZXq0Zz1wpVkgUdIC92SHjlh6uV5G/LX2Rp+hWGXVFfDJ5x9iz332oXu1Ky3U17R2CAM23QTZ+lqkSES0ZO3Dt97CrBkNOOXMM5lcdU5cvpe1a4P999kLM5hnM2bWI1NXzw4ACTkfUgnWTZmKB+59kMryUGy8xdpuhId5KsLde7mlcdLhe2H0i4/j2+/G2QiHSKv83XvfA9GpQ9zqkHZcB2qx1ebrsy3OQF2dW7dkw94i8GJnhO0SHYvgsccexSOP3MU8J6FmgFoors7GCiz3jt26sBqpzcsDPaRsU2az45Ejyc3V4sP33qHcmIV/nXMNqiq1ZUPa3LXp0B4H7DcE1XOnYt7cWei7fB+M+fJTHHTIfgqe9YR5SOKn6XeNrIXZQdNO6/ZRVu1npbm2cDkGbdvf8k9fEglFG7DqSr0RSrbBNjvsaWVmb2RGM9hk4zUZtyjmzFX4rB9xyphYlU1hLrNsdwvT3mZNxnDSkftjCmXdE08/r0k8rLrmuizbz3DwgUPMT/fD/KUc2mD9dZEn2U6z42U3lL/sYG7Yrz9WWWVFyxabEiQh2nFQP0TzNZhbU211R0sDHn18OB5+4FEktEzAaxMhdkD7rLAC2nftSpkqlwEC/O/AF+eLBewL1tQAISrznNa8VFSgPktCQ+n/8+TJFNRhNFAhxhLsabJHZZ+4oFBLssteVz0d81JzbK58wrRpWk5DpRNCbfUc1NTRPwqnJXos0aRg1P71pgoVQIzKLEmLrh1IaMophKi0Zs6uQTJM5VxIYqllV8GRRx+GeGg2vv7wWTw56lXMzOjTGA3INNTgnXffx0PDnkWWff+Djj4Gm2+yBtqXawVINQXmFPw0/gcTLl9++goO228g7nroJnz6/ZfIMf5ljNerLz2C49lr3Pfgo/HzzBSFShQJ6u1oOE9lVI9pU6ZbnJdddklUVlFRxfSCu7fjrtaCkCyEQswXprdr544UdiHM/HkG0vpCOJV4hvnqv33kfoWSa/003fiToGpjjzISjaDvaptgRyp6ZXVBio0CfIU11sKp++yCUffeiJkzfwGzjySvhu4pTCl0s0USBG0nEI5rRSwJDoU2yW0ZFZhUy3fffGUKpWfXCMU5002lkssqhDjuvONWPPLYgzbyZJ9TCOVQUeVes9ZnNdw0VgipVK0pfyXV1n2EY4iRQGmKVb1/TR9onXLO9iKKkmxr/4gyI8lrrrkC1lwqjOP33ZoKcHkcc9q5eP3tL9GQTdpUrfYCRqgGYz9706bepk+dizde/wDvvfUhRo56A6+NehPvfa6312L44OtvkOIz2VyDjWJuueF6rDkEvdD0RShSiaqOPbBkl6749pNPkJVjkiitvSg0zKCyrsObb72Jx4YOx7nnnY8tB+2E73+ZgwyVrHiZkTV2GnqTCLfroBfrVTpMU8S9/Ve0z8EUMGXqTLz6xvu46dbbcMhBh+PIY/5FpdoNBea5qMXHYz62etF7iTZMH9Oo/NFOhqF2OObkc/De6GexdNdy1rsi6kjU66iC6xnSz9NnY9Iv87DWWmu5vKYxrc+zcDyP1VbuSCWcxs+/TLZwYpEyG5ns0qWnudVnZuztrVAdkvEcIsUIaua65bQiahnmWUhfflUviHVfRgQmVkghz47DZx9+hIceHoF/nXExBuy0L2bPIqFjndKaLosQ85g1zb6fFiUJCEVS+Pbrj9nhSKKqfWeLg8hiMaS3NuM44dQz8Mrot9Ct2xIIs96EmdJieiYm//Q9y+FtXHvbPTj0iBNx5Imn2TpElZWW/4osx0lCReyTbLfaekzh2wsIqqvJtujYPu6NSLFcSMZtSwcSu7j2KmP9qydZYRPCRhttjKQ2iSzWSnDxXh4r9uqJXp3K8OmYb21an4+zbElESRrn/PIjRr/6Ju65/QEcdfQ/ccDxZ5GDdWBbdB2CPMlKLJpEryV6oZwMXHmrqfc8O1+UmqhIFDB98k+WXVFbh1mHBDtioZrZ+Ozjd0nEH8JZp5/Lzs0emDNjDnJMo/ItQID/FahOLzawb1SlGmxzu3gyibLKKvRhz62YrcXH772BuoYMBVjShqs1+hGhxEzq0xZUap999hGmzK3nfQpHKrKUprwoNaJURLX2hkqUijSOEKWEvr2l0Z6IiA9NhOSAYoUKgQJLgoikIZstIMWeUr5AZZtsj7322h9bbbgyYsUG3HTTdewljocGpebOmYMzL7gC1YUY1t9sEA4/7AgKLj5bN1s6yHp/H336laVPwq3v6ivjyuuvxYcffYRP3vsU9999F/bYaWvGrh5ffvQ2Dj/8MEyfU4tp8+oQraRSSEatJ66Ro4oKCi5KI5EfbX6nnrS+DaapE/t2FuOvaTMtNc5V56hE4qhjPuhV4oi68npYGl5H+5W4csaNGSwMlHHaZjyPNh27IUYSKYSpyTLMY/XCe3VqhwTztaa6Gu3ad0DHdpUsW9JUixLdWTdTF4w/BXmsbXsq7zYoaKSLRaipwAQ1sGbG4iR19s0vjV6IyFCNijSm0lp1UsTqa6xmIw56s0iMRiNJ2hSrsqLMCI527JanGSoofWsqZivYGV+yY7nTpxiUJBtloTLquGRPvPv2a7joglOQIDm+5drrsMVmm6Gqqh0uufQGZLWmKluPyT9PoMJqwBEHH4qtt9gSW/XfDNtuux2VxI7Ydre9Maemjsp4JtL0v4zlqUG5nlRAqqEa0dLnItRsRVb0m0nVWH3SaNAs9vL33GVPJMraYKvN+uOQAw/AV2PY0z9of3Ru347Ex72MLRKYyWTRrmMXkjNXsiprvXlUoHJ8+cWXseqKq2HJJZfCAMbx0ksuQUVZOYYM2Qt19SRkLitsd21VG331XYJENShiIyZRxsuN1ljBMC9jCaN/HookkCQr6sjwSka7OcudYqjRmTjP3RteMJKuY7duPfjrUMioHFN8JIsMyWmqVjlid0hYGRON/tg1Q2M7nz1xPAZvuy3atm2LfiQKBxxwAMaPH2/Tm5GqtvZ2mRFLufceVLnbFgIkbZlUNSKJMOIVCbezOtuqcozMxepBYx3jMyOffxkrrbwuei/VF5v12xRXXXOVbZB5wAEHora2FmUUDLbtAeuc3v7cYNONtWWXi6+CZPy1uWMhF6P8YljieSI0lGeJmOp0AVnb8ZppZp0OJcvRoXNnR7LZ3hUv7VgfpjuR0ga2cS12D7MCvTHqJfTqtQSWWLI3SfEWOP/CC5BMlGPffQ5kO2KabMTStYsa5mv3Hj2NeMpW7ULyMh5nZ7JeZajaJOQxeeJE7LTtYLRp0wUbbdwfBxx4MCaMG4c9d9+d+VvF/PXSFyDA/whcTV9MINIjAa6efzGSsHl5LcBLoBo/fvYWLr/6OhTYW2ow5RVGWTxMwViD2bNn4+ZbbneNj8oqWaYdaLMUYpQqFMpSglKuoZT2/dG2eRJoIj8S5iISWYZFRZiXEK+gFIghod2RKRWK0QR7tRp+bo8LTj8bS1QlUT9tHB68+xpk6qbhvAsuwI+zI0h0WAknnXAykhSOWsgci1dR+FdhVnURS6ywNpZcdhkceeSpeOTuodih/zbomGTvnn6tsdbKuPzyC/GvU45EMjwDE75+F7fd8yhCbXthFtOZZVoyFIwa0Uqn09brzYZIaCKkgExTtECqw95pSN/xokBUzz5J5VTOXNMXvHOMi6aTnJphNtivoGvF1R0NTTf/FKJdu6BSU4HsocZoxDmlcDS1pfxO0f8sNVh9HXudjONqfXph8vixSDc4RWZvTGsaIhPGN9/+jJ69l0NUJKqoD8DSDyqNhgyFstyzUI2oUnNoiqSYTzO9JK18XumdN4/KzGJFYktdmcmR5NB9up4KVa3ClJl65Xkj0Zo+pa5yJJIOqQOouBgISYeqSyFdRLTzSjj2zCvwzddfYNLP4zDs/pvRb72VcOm55+Dqm25lOOVYaullSfyq8NXP41lPa5h+1kOS99q6uagl0WpIpTHq8TvRhb3tTE01QmURfD91ji0UNlXDROmNoiiVVC0VcoeuVVSUc1FXPQcDtt8fb308CU+OfBUza1NI19Vi6GMPY7/dtyGJr2aealTC+aGF/Jki6wDTntKwgCZG8jMx5v1Xsc3OB6Dj0mvh6wk/oiY1D5N++hHXXXMFNt5wNZZBPdtEyqZ8E5EqU8x1GRIC+mDkIaJ8amDnxHs1Xj8kRHmGkSAD0Jq5WF6qWMUlRe2EEPsoyDNeIbbr2nTE1rBJY4rqaZROil3USG3VntEICsvB3gBkmcZoSQ5I9/oClvbA0uOs25Eo0pMnYteddsZ7n36P5175ELPq6liOtXh02N3Ye5cBaEtCEyKBFnkTmDWmrLMqW1Ukln15hUbNalg/1alifMMkc0ovw9VHd/XKud6+evPtN7Ht4GOxZJ8BmPDjDNuQdfz3n+Ge26/Bassvhy5t2pGo1dNLrfEjSWTCM5Iv9Et5ZMySbSFcjFL+lDMi9FYR05Q9A1PHQG+Qqf1oGlujasVsHabNmqMP8aOQ1f5h6gqJJIVNJnTu1ta8eGvUc9hlp/2w8roD8NmEqWhg+ib+8i2uufYybNB3GaWcHhSRYnpyrPNlzHdtU6D8FvERkSo0zKWrrIoUaeURb8775RfsueseePPziRjx+hjMqmGdTqfw4GP3Y++dB6FNW9YPtj/5EyDA/wpMFi4uUG9V3+HSd7lq60lUEm0xaJsdscVG67Jx12PYA3fiyMMPxrvvvIm5c/XJiJ/x8LAnsMt+h2Dy7Gr0WbYbBZW+yJ5mDyZMwRGhcPB2iqHgVY8+Zj179aml2LSPhpgUe6jsmmlqSL1RZZtGMNQ7ytowgbbOpmLrtTxOPv4fjMs8vPTkA/jHqadg5Oj3KbSqcPzJ/8LqK69kQ8i5jL4rlmSPFmjbsRtuuP1+PP7kizj+mJNQQVKVCLNnqBELhh5NJCl4Qjho//2w+UarM+RaPDZ0BCZNnUsBxHhQAas3pjToqF6v1ifpcyR6JdvWnzDK+gBqLBKh4FbaJLV5L5tjHlAdRWLWu7YQNcplI13KE7mlreSspLyF8mfBqkaCstPuQ/Dh+6Mxa6a+aUZrClr7JAXzceyPk9GmRy8s0asPKmMJ9FunD7748GXU1tSZDrDpO5ZRMRvDy6M/wpprrUnFpWnISizTZyUU6udi7vQ61hFGWAlgOsIM5KILL8PWg3ZEzdRpLFvmFbvu5SSxLjUiEzkkk2VGhspJhtVr1oXySV8kt7xUT5rx1boVERaNUOjaWhCJwDWXXY5+mw7ClFlaPwZ079YBu+65I4Y+dA+qui2Br775if4mseTSyyPbUG3TdOpRC/r0gb7BNuWnn7DKSivj1hvutE8hxcrKkGZd/+zTz5saKjWuRpum/jwR81L1WHXtNRFLRvHphx/g82++xWlnXYiBAzZHhYYMmKchMoKJP43HjGrSW6XDPBHJYNkyASJUcYZtpDJbY2//xMrb499X34JeS3WzNx91T4uPxnz2EdPvIq36pPVQmpqdPbfB/BEp0OcsNFry7BPDsfZ6/fHxmK+trvHfRoWUjiV69cRyvasw6vmnLc9lRDJEW1Rwn3z9C4pUun2W7Wv3akjsFKr8lxJXWC7j9dFUkjDts6Uqbfaqsf52kvopYtx33+DLr6fhn2dfgo36r4nyMlEqtu9QGlOm/IhZk3+ytiGCpWdcvaDvGmWTYZtcepnl6FUKk34YayG79LLuMN7PPj4Cm6y1Aca89w6ef+YZ3qjAv6+8CV16dmK9SpAk0l2mDj+O+w7zmBbVNbU5LbCPkMSJSGrKKsk89gqI8kH1nBcusQTPmZbKyip2BiSXGAv+53INzNsMvv1mjBE+LQFQvSqSlXz/40yS4ALlTl8jLi+PfMa24Dj7wiuwxJJdnTvGS8xr4nfj+HCOweVZtjFWHY3SZpEiiVEUrK4ToUQE9fX1nkxwZTfuq8/w5djv8M9zLsYGm66EZLnyV7mYY/5OxFyST1uuIA/+q/BioBcVZKyuyEjeicDqqOsWf0V2jJlY93FkjahrFDPB9Es2smwlG+m1c62McuFIemoLEfeBadoXma98Nsc6lSPJdaNsvpEHipdyW3knP3wfXTwtpmzDevu3oF4L678+rWOwIN0z3gXhnrN4eOd8wBnCfZbHe55woenPQuIzMi4ublxVRmUrQiyjN4mjNghhG/rSuDzRI/KDKVPaPb9crPSc3s9NMA9cXsiFwjBjjty5oqkpX4t3o2k9NKX8fx1WeZjxeRIUZrYW+s1TjzPaDjfdcDO232JTJIpz8MHrT+DIQ/bAxhtvgI23HIB/Xno1apNdce09j9qrsdSViLCCaYFlTGtQ9FqnF0RWQ8tUnPXpagr5HOJxVnQKt1xO0yzqU6ogKGJsaIDVg0LL1gTQjbb1L8Q6YPCue2PPQf0Rz2fx3GvvI40qbMZe52677Uj5XkPhnWEPjRVFspcCTiuX6zNSsjFUkLjkUnU2HaC1OCmSnlC0ikVeRaHVBjvusD2fzyM7dxZ++v57RDJppllz/lLGFDVMk8hZeYQEin/pHP1NiqCR7DEotybDdllBbbHOyJKSo967XolX2qSAIkXtcaSq5iq3VTk2zIWqemysoXgHDBq8J3uPM3HzFRdYM4pFpRjm4bsvx+D+ES9i+32PQZt27dhEcth78MaoCKfwyKMPW9gRxYHKf8TTr2P8lBocvP+erkyonLbafie0TaTxyO3/NkWrERutCWmom4eHRryCUMWSqOjQjUXHjCAJK+ScmFIT0OaSevNOXw7Pp/WFfqkRTWtoXYdGHVx5M6sd6L9EkWveNLzdd/m++PiD9/HR++/aa9cae5A/dbXVLFOgU4fevO6C9fsNRM/OlbjlqvMwb17WCKpIivaTuf7WW/DNxIlYbZ01UWA0s1RAiXgczzx8P8u71hbEqr5oZOW+++/C3LoUthk8hM9H0KZMq4LSqK6dzvtORIWY/mJ6Fi694UbU8dmZ7JFLtGpKT713fWdO4kzeatpRilNTWZo+rKupNaIhuqTPjIwb8ynuuPNukukIahus2mCzzTfEEt3a4Obrr2dcmR/0KEzlWEw1YMTjTzEuQM+lVkCYdVCjpxqJ0XOJTp2w5/574+1Rz+Gtl96lDcF74VAK33/7Fa6980lssvV+WG6ZHtY+K0juVKaaFlaOK21at6Y3NiOxCjeCG2PZsRw0WkMJQTeuvSpOsSQ7EDyfy4jrWiNESnSuvg5X3HCd5ces6nkSLVaWLA63pEhzVVRYIGntv+W26N2uEsNuu86m10V+Q5jDjswsDHv6ZdSky7FynzVZX9kRKtajXmuvrHkxX5g3E8d+Qzl1PRLJcsypT9k4kdY5ZdmJq4qzjrGTonIwOUemwWbHeNTYaI6rd6q3lAtyxJtWJ1l3bMy2UId7b78Wv8yut+ktMSYplItuGoqeK2yIAZtshPJQA8pFEulfqqHByl3bYciPGV/9iJvvuJ/e5lCfn8eOVwbl9N82USUB1zOW3XqIdslEG5MPipjKpYxyUuSqjnkoZzKMvbWly5lm5XntLBJYS2AT/oovA5RCTc0RFRWwjCWCadComqYssySdUrpsHSl1UFlvSUDD4STrpmqdRofpLtIWdRl2GtlxzGs0WcSd7ce+k0iipP6x2pFNm2qNlnWYRSgr6L4N0pRX6RjbGTvUOWZsJOq2PFH4xWLa4qCOfoTutMeWOoi2Dxvd59nJTofL0VBQnPRCDcNVkshki5RtenFHukT+WSdXRh0mS2mBOkLryRhPIqQRwrzSxTTreclEralU2WkknEdJCtU3rW/LFxjnvDsWQ0mmmzqGJhevQIad+YzSTt2m9Xbak097kinutiiNJsQOfYjuC6G2qM3SfbwtMkx7js8p7+iS7ZdhsoOq5RAqB+32rqndvClMxbr14HJhsYAbmcmwQTGLrFdS0bYTFTyFdrQCt9xyOx64+27sOHAA2rLBauRmlVXWwCX/vhKPPzECq62m/WJYYVkXenTuyp5WjEIgZT15tWn5n6afGdakGCuuhouz2iGQvbY4FYsW20r02kgPSY/1+vS2GQtKQ9h69b46xcYTjeOkYw5H93bKWgqQ8jY45rhj+WSeQkNrRUhEKNw0/aSplBwbVyJRiSx7atqbqIK90jQrnvpgiUQSDRSOVtkKUazYt48rfzbcceO+pVJg42Pl0BolhRZhpVdvNVOXZl3Ls9KQajGuZcyPHN3l0lrboiacRqySadT6KfqoxZOqbMqDEDPIegkmlBQar3jQ1UJBjYINd62N+uGay87DnddfgoP23xcvv/gi7r/7Pmy3065YbsXVcOSxJzjnDHGplfri/AtPwaknHotTTz4Hr778Mi6+8N845PhTceixJ2KLjVeAvpGZZ8NZbtU1cMG5Z+C2Gy7Hofvvj5eefxbPjHgSa667PqbNnIOLL72CuqaCcoDpYTmHaJRn9s0oNm6TT2yoFWXuzasiy0ZTBxp103qgsPd9CCkirZtSziiOug6x4fffcpC9fr3/vkNw8y3XY9TrozDisSdwwEFHIMF6e/ghh9JhEl2WWAZ33XEDXn3xCey0/dYY9tgwvDZyFA7e50BcduU1OPyYY7BZv3WsTqpcM+kMKlkntuq/IR59eCieZboOP+xonHXBNXR/JVZZUaOZwKqrr4EtttgE5593Bq6/+ga8/srruP/e+7DRJpvaFNISS3XF99987dV15gHroNbCSfQ5SAAlsM9+h7BtZHH0IXvhyaFPYtQLL+L8cy/Axv03w1ZbbWF5M2PmXBOrsS49cO2NN+CNl57B3jvtjReeewbPPam9YPbGsBHP4kYqvs4dSJZqSehJ7LPpOsu3QqgCR55wMvptsBYO2283XHThBRj18iu47aZbsONOu9g+TRdeermr03wgw7qs6liwkVjlu8tzUAGk0ywFKh9tnagSyrB9SWDLTZosVG88Lrv8yth009Vw/lmn4dor7sYbb3zAMrgX6260OQVvFO26d8OECd/aNKymu9S3kVJ3IPGKtUOsogPjdy1GPT0U++yxO8vhGTzz9NPYedcheHTE07jsmpsQbtuZaR+CqkQWRxy8Gx55bCheGf06Lj7vIqy/QT/bfLM2VY9Zs2d66YgjHqMirCPRpIURG40IUc6nmOa2bSmvaMe+EEWO5biRHm2tQBFF8FwRZh2eO2cGdt99J8q6xzHiySex486M15PP4d/XXE+y3dHKefc99qJMCLF97IMnHn8Oo18fjSsvuQJrrLMF+m810Eb+5sz6hRGjTLMOGXM1QwKtOs7nJUtCWnOkONCuPJqwMlqedW/jTVbBBWf9A9dfcQ/eeuNd3HbXvVh7o61I8hLo3L0Lfhr/lT1jO9x70AimzF8DhiNBphjzKMUqU2ofYgct1aA1hmEkKAd44D0WBuud1sJlSZ53HrwX2nfti7psGerqRLRDSFDJp0ik5bVGmiORPDL11ewEZJGqy+H6629jZ3xztOuwJNq374699twbI554BqkMiU2UZIhlrU1DpdNiyQQJVw7lFRU2Kpeuq8HkX2bizLMvxVrrbITKqqXRp89yOIZy4pXX3kGK+q9AEm3rJhlhdQ4zGek10iK2OV9w2+awiit1YIqdZnWUTRlYfoiEUu5LOJCkUDMhXp5kXX8SPTqshoo2K6C87XJo22E5VLVfFu11rFoGHTsug3btlkGbql4YOeo16Ft96nxLt1VUkKTNm8V+ZhxzZs6jLLgTG2y4Odq05fPtu+GQQw5hPX2ecWH4bMtFdb5pwtRf2iVe+krp0VIXW7rgJ6QVoeJdPEClXCiQHLRhRcvNZSXLo0F74VCAhJIdUJNNYIONBuLqa2/Bux98gO++/Q7PUijtueMO6BpPI56aizdHf0RhGsUKvfogzsqi18Yr23bBUp06Wy9o9qx5JDyqQHEWXnvo8xUpVhJ9MV2vy06ZW40ZtWwMpCa9l+yGskTUFjDGklWoJ4lp076CbqvxxjtvY+a8Ajuj7GnXzcJjD93HhqQ1GmxYVIR59R7YqMrjCUQpfFMNFDQaGaGCzRbqEU1qNMKNStlGhhm9qZW0r9dLSGpX3QJ7afOoVOIMe4mll7G59/Hf/0iCox2gNZTuplIkyBvqGpCIlVPBRzFpygx6EEbvPr3RoX1bhkGWn8qwsuXYAJsGOgW/wjUJioUBn1cPghX5hOMOx9NDH8D0qb9g6x12xT/OvQp7HHwcledT6NWZ5cnEWFNNdsVBJ/4Lwx6+F5+MfhHbDtgODzw4HBdfeTUuvepSRElQ4mzsbhFwHMecdDJefHkUqqlc9hmyNw447ERstPnW+PjD0VhtpSUZPsmnRtNYfm3JmtIUArZRIaOmxfQaDdQbeqFQwgi1G+ol1U7XME+ZF7yUYNADyg0pZinlYr4cbTr3wmNDH8LJJx6B22+4BttvtT1OOv1SbLLljvjk4zfRpzd7PCw/ViQM2nEbjPniQ6yzeh8cdfgh2Gq73TBuUjXuvn8orrvqMjcywfLT1KcCOuPs03HbnTfgxqsuxG6Dd8H3U9J47rUPcNIReyKuDhGFXJjC8sknH8PhB+2FKy46DwOozO57dCTOu+wWPPToMPRbd3VMG/c5eXMRGb3SzDRWlbPHqSVMDE5D0aFIZyy5/Fp47YWHsHSXPA4ikdtn34MweWY93vvsK1x66Xno3C6BTz76xBR1KNoBm2+7M8a8/QKWbpvHfiQFu+xxIMLteuHFtz7ENluuTl9Z5RNtKORC6FQZpSpk0lCOinZLYujjD+CfZxyLp6iwtx6wA66/8X7sOHhPfPXVh1h1xc4u96loUwUSJ0aSesGmaqzDzrpM9UuTRDkFtUbD1LNVB8du80fTn3rbM9KhO4YPH4ETD90dl559LAZuNwgPUvlcfsUdGP7oc9hwjVUx6fsv6Fb1jpBU1CiwjQ6o11vOXn4bbLnjALz7yRtYomMH7EOyt+vgI9CuYx+8+d476D9oPTpNoO9aa2P0S4+jFzs/h+61F/Yesi8mTp2HT76biBNO+ye6de2Or7/4zAleyp9MPoIow7GgmDabao22pSJph1kzp9raMkGjAEX1ujUFE6MyTs+yyufKLYEb77gT+w/ZCZecdQb2GHIgklUd8dEX72DgoHWMHIM97t6rr4fnXhyFPt074BC63X7H3TBh2jx8Nm4sLrj0Qj4Tx/jPP6Vbllq8CvmolDIVKSNrVVc9ecZR08Cq+2ERJHodquyKh595DscesSv+ffYR2H7QILaFF3DJlffj4WEvYN21V8JPP3xiMu+/C8pV5Z/WQLJO+dM+RY1GFMope7UGroJlzU4jCU9D3VzE22pEh2Q1msH551+JF18bhwzbydyGGNqWd0GEylvyqkxyPaQtOmopjxqgTW/HsM30WX4jnHbeLRjzwy+uyrJavfX8uzhir5Ow997HYtqcPNtiwWR+IllBgkVCRZ1QqKduC9XhuWeHY5V1BuKyGx7D19/MtLVtddMzGP7wc9ieROwf/7wYuQgJVC5qyxjiUb0oQTmXJWllWvUR7HBS9YyVgHUtm9LHrqk1y7RmjuWbTVH2MU+oBzTyl1PXmG2mkM1g2s8TrO5ESZg18qPRyhwL3Nq+slN1QrKK11qDmEulkGQdKaqzwo51ol0SH778IlZbYyucdvatGPsddQ8btUjwyGfZ4dvjYBy410GYPod6l3HIU8fYzvmq1yRQRVa8AvWuLTFhnXONs/XADr7EdxNymgMh7JXgElAt4MuJ7+CCK85khBqw9PLdUdlOA+NsuBTSrALMbDFIemctW9dRjP9uMklKDst2Wx1H7Homopk2uvknQGacT5PNSkFTYjOY8ngFUukC6vJRCgsKvYwqHgvRMphqvKApMr37NQ9TJk3CbkMoyOelcdGVd2Lg1gPRLlaPYv0sKqr+mDCrBjscci5OPuOfaFuoQ752Jtq0qWCvU0PcZKDsWb7z6nAccuxpSMWXwt0PDsOmayxrBEfrj9pUknA0TMMPFCR777sv5tbn0XOJzhg/aRaf74hb730E/TdZhxWkFmVi5OyhxtVjZWGLhInIlFVJulP8FRTnEJW7JdsqQTycwpfvP4/dDjoRdbFOuOiGu7DzZuujIj8Hrz93P4457VLUl62Ex54ahTWXbsPKN5clwzwqK2NDSpFBzUFVbA523HM/vP1NCpvusCduuvJ8CrB6VtiYCdm0dpxlePEshZ8aDvMx78a3zViF56kJvEZbGruhek1SwLJ47aX3MWP6NPRatiOGHDTYlQfd2GiS0lxI0Y6NhVwwrAbvHrfeqTfAQsfufTW9Ch/VHJCIAImD/NLCaCGpFGrIRuSHmkPtUKTB3Y4wCQzDzq3PzPDVfCWkNCLGdDIw7cOkfU40tF2kQCzmaKe5hghrGeOpjSVDrMfslLHXTCKk0T5jPQzN5t3DCpLKiach1Usa9V6YmgwVvrYXUJLU4dX36ExiULAyQLqlMCJZjVA4qWOvnqb19OlKvb7clG+w5rob4kAKz8OPPgRtNBfDPEwxXC0HqaRbCSkRYVsAayXO9NXLz3LorXNFMwb2Qin88pH2FkaE1/qdnSu3fWg0zVmusJnPRfoXiinXKHwoLPU9sDwrh8UrO5ePJdAQoTDldSWDjDJhmrbUm3RWIiwje5r3mZtMC8tbm1OSGDTo1XCGIwEeo4dFsLfMCIZDFVSuEZcl9FNTLLrL0nZ1hm1P5csWw3PGl2miiOWj+kQE5QEVtUpWHQNb7kw77cMkhElo9Zq76p3ICbTOQEP49DbOuuOTX1UvLY8TudIaLNUm1Q6lQJEyscY2aPbsaMmVnkvRoxBJlmKpUte0tj6jo4SGIlVMC+/RnXSPlqIJTI0RikiR5cKCzMXbkeDxvvKGeRLS5FWB7ZbkTiVq9YJ1hi2SVzHejdt6uXB2Or7/6hussM5gPPbSy9h181UZY03Tkygx2npW5ZhUpjOCIojkci6xqkOsf+rt69MwdMb2HrdyYylZm8jzWiMzfpvUR3zDxRRlZrWtsyuGKywtccoIdhN5piuVOuUmA6eXNt2uWqRyybNcQmzAf/pTSF48rDIqju5KxUDoKo/6OePxxfvDGF4Ky6+6MTvL3XlHcZKCl0vXcbEC5YmkmitnXnjMWqPzCfY6JS/SddUkJRGcceo5uOW2V6kF2UbK+2DM2M+wVMV0lIXZJviMpnqKrIB6KzDBjvm4z7/H5lsfihk1BSy/+vI48eSj2XnbADMn/4ynHx2Bq656CNXFGLbcdhvc/+g19iJBORlmXP6bMADeGPks9j3sHPzCzvGG/TfDuacei7VX6Y3JE7/CjTfdikeHvYM6VtojTzqeHZNzkcjOYmdam0loSpu1RaMqKnC28Rg72qprBQqyQhLIpNMoU3tiPoRY8TIalaVzkSIjSvVpnHPUCbhv2IdYZastcfSp/2Tney79J7GTTGY5FvNs68r2sjD6LLc0urarspeMVP+17GDCZx9hm+2Pwk/MgyX7rIKLzjsVG66/EsOaivvuuRe33PAEalJFbDl4AO6653a0jZPk8FktwChQLhQ06sOj3viNU75o2xaN5EpG21YnVq8yqJs3CWO/+JylH8e6Gw4kYV2O6a5yVUJFrZ4F/XQlL+PwJ2vhfwGsYHr1N012m4y2Z+mF0VA7Bbfc8m/ss98BVA7HWyGLimoaSnPrKe33wSxJUDt9+v6HmETiE050tU279IZHA9t8OFaGLfpviCQVy4TvxttupZqOSrKypElqoqyMcSmdfC3GT/jK8rOyYy8s0Xs1zK2hfyyE8mQc6ZqZKNT9gisvvwAz0jH0WGE13HXfPRjYf32UsxdwyZlnYsrkasrejqxc7K9RwSRCM3DvrRdg+ZWXwDobbYSx46ZQIFWyYpVTEGqX5pAtziyG0mTjtRj71RgkbBFAAj16Lc8KrcWPWay0fF+USfmT8EyZNMFN4bBo4+xR5FM1VNphJNu0wS/TazBpyhzmZQirr7mqfYG7gopNTLuhXj1nKhK2ABME/FXl0lGyZuFHfhxE9jSqoikgLebW1KHkcV6LwJW5Zth8MxS+vBApsb19NP/OfGPRmHvRDn08U3H2osk48gkJItYDW5NBOy39kRpUw3GS3wlzKRqlKGPkib4xT+RHmAJMskf+RsNuMaoQVYBsiFq4SU1Eh2rkfIanjvjIlX4YmoQ8FY56TDayTGhtmOWodZuoPPXlf833a92AHNBb9bLsg6ey0evrVFZ60yyvniltMySWBSl2nsdoYUQmQXEZlR+id7pDos76mG1ooKCiNxYv9mbDVa556LKYZBqjqOBNrQOrUJKk4HlLG9NlxEZFNDVyKEahNFrS9IagxlpFc3hJe1scHnMjMCI+KSZY+Z1g5lvY1MKhaKUd2bm1kR9ln+SruhRaS5HOarqY9rynpEtVaZWQffTXlFSCColx4W2JPOVllj1LgAKOfhfoRmHp+QIJnE98MtoEk0Jan5LQJ2qMvdJRlCpMHylWwhiEtXnVFaVRfqju6B1PTXxS3Fq91H11SezlcTFwQvmv0SXlqZ7Tm5N6l5LakYmrsLqu9AiKkjYflEPleYgZUMiynjBe8k15U2C8XH0mGUzznh5kuPJf+WTkXLKDFpr60kix2itIRgskqloXwhMLK0V2qj8rVf2zGodiLCP1yhmSyI2SoRHjvFgyy07pVFysqWvbD7VVL/6KTEQEUuSlgvKXJaR4adpZMc2KsdrTrh6pmYjsqQ6msymXj4xYKfFp7Cz/BRCJlnxwo0/Me0ZD61Nsoa7aZlhvx1KpkzhYWaSoO1hffp48A9vvsA9uIPFRjVE709QMW4K9AcgGioIWiMsvdjIptakHcrj+2tvwS10RS66+Nh5/6lHss+f21BNRrLrG6jjjn6fjwTuvRMdIHq+R4IwY+TpyZZ2sHdnLBeEMMrNm49KL7sLc2gIGDt4GDz5+NzbceC20bVOJ1dbeCDdcfR2uvOAIVLHi33rD7Xjro++snmvaKcx2mqNsjEo2xEjlSRYaSGZyKXXO2I7Y9uNMW5ikDtRNqfq51JeuXqvNhFnZs5kC3nnzGyvR/ltujg37rY7NNlsdW262JrbcYn1ssN6q6E+7LXi92Uaro0v7cpQxvDxJlVpKIZXCldfdhSkkPr1X3gAjnn8VW++wLTp2bo8ePZfBOWeehQdvPQsdWElGPvsqRr76qcXbyob6VutetfZQtUsjU9IJrY2mmrgYwN5OYqHV12bIrpMoT8RIYmIY+/nbLKhXMGNWNQkPlTmVaz2ZTWWVNjpMoa6uBk889QwraXusseGm6N69ixW49v9Qz2TTTdY3/z989w2M++5bW6wmxaz5Ri0QBgVNur4WTz79IpsG0K/fJmjfJor27dujnvbhQg0qy4sYMWIERr/3NfLRNjjlX5ega7elcdJxx6EqksH0X76x7y1pmFsb92XZw2aXmJVoFSNXEZKbN958h9WmDCkNYVLJZanpa2urkUyGmJ46PPbUSFRTWvVdc30s26s3UprOovJctvdyWH65rmyx8zDquWFoYMWLJCoc22eDT2VqbP3S2+9/gtnVGYQrK+37Wlkt7pUwIDGIx7zerIaBKbRMAErimwA12afThYLNO9uoiEbvKCyoAFSxJVTL1dOi7Bb0lXtN80nNW+j818LDiBSNlCQFcoHCXb12e4QK2eaFRWBoslIyFEoSeBLCCkcCy5ZNiNyRDOtJ9QS0gV4oJHVOJUm31txIdBrSVA78szd+pFQUE8sPPxvUdBiupxzcGi5Z0S8+o6hIcBhpkNCVG2aqNXD2uDMpjURQmdFP+SduZgvwrUXStbpUzBtxiyiFq9nS2hQIzzXQor2m3K7NeutPcSQ1oHvlRUzD2t4zGv62OCnNFmFtEknxzXMtblX6imQ8elaDApFEuZWPdq/OsZ4qD229If3QWigpNPmuNNtX2xUugxeP1Id8tWhTC6otHYoAj3KnPNcokEYtNOLE5sy4x0gs3YJkPW/O6ZnKLswCURnLXotPteBZyyLVbmNlol/0iHkapeLSyILyxd5m1PM81x5fSlNaWzpLydGFq818TOu+VJ68FEm1CPBSP74r5axZERoUkMJnjtkzDgpHDyp8+sPIy717E4cxYh2S3JZzjSDbCw68kCvtmK2Ol7iuntXX+LVEW9Qxzx51hPJHbhWuCLNIhxayhrQ+j+6t3fIko3JXmagMvLoouaH9rlQyMooUHzf5KbKtTLEFrnRrhFjsXXXTwjNqZIRU9deqvMXBK0/6KE5ZlAzLpBkm/aKbqNZtsF456kv3Lnp2L8nydTkq89+BpVaCg8a9ocU4sr0V1DuyUqU95bxGXPXyQX3NPJx/5gVYf4Pd8croierPONlDWU6HNPqCQIPNlBRZrhnmrd7+Vdub9t0EPDH8A5KRKpx45tno0KENCfY8W6OZmjePz2YxYNBmGLLTViQiBTzw4FDUpcLUXfRfcphxe/ft9/HeVxOYz21xxhmnQhvTx2NuXVBRyyBY/w/ef2estUoHZn4ZnnzqZdSzg6C3yKwNsdGosyhSqm9IlpWzU02ZoMXUqnRqX/XV81gHo4gmK1HboAKLIU7dV6yvR/3cOsyuC6OGOaNPN8Wiabb7tI1ea6PNBImc+qRq6/ruXkVZnGVO3UIhru0uJo4fh6FPf2gvWpx0+mlo27GcdY55R12XTPKcUdxqu82w+07r0C6Ou+54CNX1GsXWqCzroMVRdYjShfXT352+NaH6uXiASlmzBTEK7ViCgtkEYRlZ58bolKgnWf4Fw594iQXcnYpLollzoLUs2CLuevRhvPzxp8zUEPY44CCUsSbFyXirkqywxTpsuMG6WGHpHqy4c3DP3Tdi4uRfUM+Ko4ZRKKaQoNvhw4ZjzPczEKf/+5LFR/PVSDfMZWWhmijOxBdj3sXFV98Fvd01ZM+D0G+jLVgZ2mCVFdfFcUftS8FYjeEjHsKoV0eRXUtRsxcWqcLyK66C9ZbryB5UHe6/5y58+8PPyEbLkYmxV8EKHqEAT82bzZ7EDfiE4WfDHXDcYUejAytxBXt+UUosCcsD9j2Q/fs6vPTUfXjnPQ2HAvOkYNkgy8qKmPTLONx2z/1oYB4MGrQ1Vuy7rL3irIavtShSTe61RyoJtQ8JCF7JhSSFP2S8MDCyQk+l0GVEAs2CUruYZU9egolCxUaELDze4p/ke5TkSK9VC2q/muaRvb0SzBP7FAnZjdYjaKFcmoJMTwuNoxrW66QYlge0yLEc1NvVcLz2QNJFkY1bYSbZi8lk1Fj5DJ3bcLGGK+hMi9OVTxpIssEkPmPKzFMiOaYnlSGxNKVIgmeKV8qFVywXaSItos+wDuv7YNojJhHWVIumiGhUFhSc2ocnJcZGAq+YOxKieFAAKbrMkywLSyozIaWvfJCW05Aw3SgL3SiWB+v10p4PS7Bo6FrTenatdUNKp6dARX4iVM6mvWmnToJIZEiEmn5K5+utkYwWDTE/pdjFIfSVe/mrtzacWvHC54+Gr2PaN0YFp/AptDUCpfvKc2WfERLWw0w9666eI5S3EugxkS/Flekz0K2Sq+0qlAf61+NakG6XDMaeS2oKiWRLdYzQSxJF5q8Umr0VKMitjB7kr8IWWQubojMXptZFPa1K6IKey73ovE1JMSuk9DUMpc1U4+Ui1SQoDfU21S0/09rfghHTdKXCUf2VMgyr7isSCkF5RMfapVxk2Aix0kOjxbA60Q7QagDuQ8CkkFIWJNbKn1hM8VE583nVHPqldhVjZ047N4tAWWaznioZ2l9IeaWan8mn+Jtl55KdBe0c7sHFU4bPMUJZ1tmYRg5EKCxeGm0SFSRBZNuLxZgeJYf3VENFkF2uNuGvW+zMaKid2RtdWvPiuj4aUQ+FGnhGosdytje9NCxcqMd5Z5+Fq65+zEZNxNZP/9eJOOuMfagv+HSMnQLWSe1aHa+sYvZTZulZ1V8m+OXX3kJKBJNEc1N2lLWHVQXlibYfiJOIaH420jaOwTv2h7Ype+/Vt/DNFz+wSJIkVBkUKbdfHv0uaoqV6L3mOlh+mSVRpb3b2FlNlrNzrLWKEaYgnsN+u29P92kMf3QEZtakUKDszLM92GdVNFIY0ss6CcytrSNZlYzVm8kk5awWZeUVSFNRhBKdES7vYtKqoJdgWM4TvxqP8dUp5Mq6YqWVlmVvcI59n6+Y1hocaos42y4rqTp0WvaSqal1bYlyTDvNjxz5AuZSFoTbdcb6m6yENpV1bBtz2Ta1hYIaCaPCOO6wzQDE2S7fe+01fD1hMhq0tk2jnJRf9lFhlpTCcKS6deuLmtViAgqTeDmFhwQFKxZtUimg99J9SUZ2sqy55ppLcN75F2HKlEmoqa3G+x++j4MOOwKXXncXiUwlDjv+OGzeb0PkWXkkIMXc5VNZVQccc8KJ7KHk8frzj+H0047Hm2+9hplzpuP7H8fhxNNOwwVXXs0m0gb77HcEVu27DKq0rT5SrGRZ1NXOwNnnno05uTiWXG5dHHbQUSg0ZFFZoe8phbHHnrthpT49WXGm45IL/kl/a4z41GXiKG/TFccdd4INo86d+RP223Mwhg57ED9NmoCZs2fg9TfewNHHnIj7HhpGRVGBfQ86Bpuuvx4rolPu6oXl2TsYtPXO2HSd1RBjBTv2iANx4w3XYMbMafhl2lQ8Nvxx7Hvgwfjyhx/Rvn0PHHHooajQ64Nk6hKK+uSEWyMlAqSKJmEhqWVnjVWuNaqe/GCdN0VLOeyEMCu7RkEsYIH3GA0TxhKbku96FVhET28/+TAuo/jJM0IEyNQR05SgIPFjrDcf5NRdFZ0C4ZU22ZOyEqmwBc92Xy5co1MvSG/NCWGtgRM5pNaLsycraCRLHmsXaB1N2Mue8YlZL1CKTuTN5aF65tIh5DdGCux1TobD3OdNKTW6UvfSQHLbfRmMmzEHJxxzgE0h2EiNdA/javnHR6QDtcOyoHlwU24aIWBeSFn6ijpL0mQPMZLW62cEtPiZt3lfoypy7EgODywbvfXh4mj5zNv25oWXRrlxxadRDj/+9E+nvKvpypQUBx0qDnJtezSJQJUoPREbER9zIh8p8OQmXlbmqh/jVTDSpgsqDWkYnmp/KzV6vdqeTNAtfWjylQ6YJ34wio9UnspNPUitZ2TSSfBZ5n5CCOMRVpCKDckfzyPyRJd0r4OtQWLE2Aen4bmF6kJndQJ5i9nIrfYj00UZia6mI3JkogkqQUXM6pOBPtn0PPMe7PXyEWWxqoL2IdOVhUmo3Iz0EFIOWjC92mprUSZOw3Zbre7KO5ZgfrEHzkQlWNlMf9Av1QEjQywvdQKVo5KBKk9tFGn1hHZGAPiXI0vXSKugqV+LAeOtUTSNUKml6Y0hG80i1IbUXhQt7ZXGhsN7fIqnNhXDP73p1XKa668lQCpzZYbCVK2QUdxYkoyX8kfTNcpDEWxlnaapnn1hJM44/WS0rdCkF+tepo6dMbYFpq22dh7zVPmXZ3nXGbH58JMvLL823GRj1s0YrUgYpLdYwTSaqmlaTW+tvuKyqFD9Z7344cdJfEZ7z7m1Oc88/yLbSxSrrbsWKhlWVOteWDapuhokK0RyMyQ/Uay80vLUHTnMnT4V4yZMIqFPYAbP+629ITq178tO7sr44usfkGjTkbyVZWXNJ0M5kcb3X3yL5ZZdG4lkD+y8x4Hs7LFWMH6qSN98+SU78hEsu/qqqKwsYxziTAc7hKkQEmUdUJsKoz7LNpJswzJmGkn01HFS56vQkMZXY79i/oSxxgbrMx4JcqI5qEiSZlqnUHJM9Ubfs1wRPWyT0Rp8PW6iTUiHKbtVQjYKyXrkRu5dPWtNsPiao2XlXNC1jKtDimKT3aKEqmnehBKrqobi1XBDSTbQjjj62DOw47ZbsFyn49EHL8T2O2yIddZfDfsdfDheev0TuuuG4485GycffjDKsnNtcFbz3HqrIk12nQq1Q/+ttsf5Z52KqkQDxnwwEkcdNgTrb7Q2tt55Fzz87Cikwm2w5/6HkaiciLIQC5uaJxFJo6FhFm6980589vVUVvzOOP4fZ6NHh25oxwaU1tQamW7bTt3xj3+cjEr2MuZN+waXXXMz5qTJyKPtSV6qsO4WQ3D1jbeiMzsFhZpvcek5x2DQFmtjo43WIPE5Dq+88ymrdzsceczJOPmEE1AeY24UyfKp4DKRSjSEOlAOdsGVl/4b/ddcCUnMwYO3X4mtttgAm2y6CU4+8wKMnzQbVe174oabb8PyvZdmF1RTZlEqDwkpNl6WpVba2+aKLFbNibtc99AKxavXyt2r9DSsL6rPGkTRfLm+lyUJLZIjOJlNEW7TMlLoUgJgnFl61jKk/N0CVCl1s9OjPNEbdLYyhmmSld4WkDs1Ol2HY04BCYqDP9rhRKHCVaOTevCVFG0owLXGyAVE0CMpDE0ryj8RNfOS9iJfEmTqYUu5qDcuUmAkgm40rebeudClUqlRAS245jNSWHQrJQjWTym4Qr6OdVa9NpL1ottEUenQOhcpbgkG55tGT9RrUhx4SSsdlJvqKSp9Giky6CBBJ4XEiBdETLxbRdon6acUuoafnS9KCP1homWjt6901D17AcFYj3r7CsXonI3OaQhbLjVVpbCMaNGF2dJLBanU28iNZx+S8uQNU8y651iQi4bKlPVEo2xUVXY0ia5F8XSgnbxZuRmUVmjQms84n7UQW0Quzp5tkYLc+akaoTMLz04I7e3DXrOIkoFutQ5I6VD9lY+28JJx0YSJ/LYtFNirtn1amGfaIyfGdiW5qCesXFVh5IslXOdKU56KNOHlRdN6JYXsxYw3vIJpBMPXOhPVGYatAVx7il5q3VeY8klPKInuSXci8qkTxcPWWylERYPWxuvNN9mz9dB/RVHG3gainepHPKkJNhF21TsqYfNYF/aPmFVyXdCF4s1/rVtTYboRPDn+66H2qAWx2rdMuSQZFGGZRfLMLwk7ZoB747aM9T+Cnkstg0eH3oBXX3sK6627At3rZRC3ji7BNNgndSiT4hXamqSOz7F+szOsbyh+8vEXVlt69OiGMuaX2qPKVtuXqLBstI4+VpVXoktbnQNf/zCez9JzOq6ZV00/JX8asOLyS9konNi64kzxx8ZHAqH2xvh26NoDlQw7lJ6Jn378GVnK0a7duuOsf52ITiSvM6fW4JIrbkRdgXUlXoaGdD07FgU01FXjrH/+G3PnkZC364Qzz74Q5XGtVWM5U65+890Y1pc0OvfsiC/HjMXRhx+PddfbhOGtiC7dV8DhR/0Tb777FVL5JFsb2yLjEtY6txw7hoUyfPrxN/SriB69OjJ+eSTVEUynbNsPTStqewrNm1W164B20RzKQ1l8N34iO/KVtiZWdcVfFiF5quv/BGtrXkewOVSzmV8t4HL+d6KU4Kg36wekCr3oKzV7SFRIiSRZIlukwo/wfK7WvVR2woUXX4GH7rsN2w7qx0RpdKCIXksui+OPPR3PPPsKjjzyOFbcHGLMeCleS3pRbzfoW2DaeCmGPXYfgqeGD8PhB+6NZXp1R5RKrbJdZ2y5zU6476HHWFnOMKGp3W0zDSnW0yLGjPkKd97ztMQ/SddO2GTD9dGGFX7ezKkoT7LCsateRzncf4ttcNih+7OaFDByxON48cUXrfKyf0a2XolNNhuEV14ZhfPPPB0brrsaKhISQUX07LEEDj3kWLww8lUcfeTRaN+GlSNVTQFH9cneudZhaIdNLdXr1L0Xbr39Ltxy7bVYf63VUEYBFqWmXW21tXHy6WfhuZEvY7311meDlxhgdWClMgHOo77T4wtLCTm3FoUWzCtVnYWF/HWNm2GyJ+lXF9XpBr0yS4WnUDTNpxEhVzE12hNBPuU+LKrrvEYwmIcm5k1yO+Wi3pQCofc8UPDyaLqLdvouV57CRALcCXGJEbnlL91IThvZIFJp9cK1jsSteTEoD1jmUXvtUp6SvNgaCJEBXUkJ0i8KQ817u9hLPVBp0B+NPFlQJQ3TqRjFRnFlnEhKpCBVr5UG6fQClacUthtNkL/MOykQRtr5TsOg/HU/KilNlZAbWLzcqHEeuSJ7iRRqWaZDU42KhkXbG33IMMOVKtUDZYhGByw+vNIaGoVrGVVk/FjnpSuURB0UF+aWkw16gJ4rXMXNnKnMlU9S6hR2+lK8uTPD9HgjRgX2dmVp5Ep2eo5W6gWLeMq5D/noG/PIVVgaxoVlICUU0StlJdBiYyt7C4sNknmitqgcEBlVnihdtp5FlZLxkDLUVKtSKF8tQCODmnbUlDjvecE44cwwwsxL5adXd1QO/nStcQ+eunqp+LK+sOLlWDe1R5fuWXYZLETC5XLjTXOga+Y5qYqrCZ6VwXLdmUa/Gk/sTCXrStddW9Y1Xgl63oMXtODfdSfueT+WgmycrR+HUjTd/e/AC18kh/G3aXwxPtZp9wV/KWXmSlKvuidw7PHHY/sdt7UpxERMbzdlTG/IF+u4sexcraCxMmFpsDP5y8SfUFNNuUyb1VZdkWXuFLnKXOveTODpLss/XFWB9m31uaQQxo3/kW7USchh9uxZmK5vF7EuLbPsUsirs09Z4DpkClMygnFhB7tdh3bo2j6OMsqHmdNnMqwy2pdh4E6Dse8em9uI8dNPPYNnnn/ZNs3Vmi+1qYcffATPv/4RW0oc1159NVZZoS9LjOmn4Ck21OH1t96nTM5j9LNPYIetd8NDD4zEV99MtaKvnleLYUMfw47bD8Ze+x6A2kyYBChha/hU7tnps1Fbww5AMobl+65gH59Wh4NJoMjRVLvT35pqL2vXFh2ZD5r5mPDDRNQ2sN1IVsiok0Mj8pzNqlPz2xBRsgX1Tigrmxrh1/dStKyhfK65o9JrnduQOwPReSkZKj1fNJD/6vWydxWJ2yum+lxfWdskj1EkK7tgow0G4s6bH8Qnn3yFb7/+Aa889yqOOfRI9Fl2STLiOqfQLT2suFaBWQHN0G81ikgF+q6wFk486VS8PvptfPjRV3j37U9x2423Y71VVyE71cu2DRRmGcTK21CQl2HtdbbCZ2MnYOzYH3HFxWejTaKBBHc62rZLsjJIuLOyRapQ3RDFkSeciy+/moCvxr6PvQf3ZyXQt6YyKGTSppyTbTpj170PxmOPPYGvv/wW474ch1EjR+HY445Gr6XI8MtjqK+dg1gyZB9/1FBoQj1dpi1PoZ+KtUWurDv6DxiM2+98EGM+G4txX3+Hxx96GAfusy86tG+PuXPnIsSwyqj4tJmUiIBt0qiGqSy2YpTA54myisasvAa+MNBiQANJmd6yKvBau1Mn9foKYbKIRykJfRtIlEJlpVfBRSI0VKvPkvikRURESl+vRUrASHereE2HN1Vb01cRKjIJOq3XYdUxgW96Q2sW6IuN1DM/ym2jLrr5P/bOA8CSourC5+WJGwm7S1hyUkAJknMOggEQVAQVRAmCIkiOIgiYAwgqKvijqIiIEiRnUAQk5yVvzhNe6vefc+vVzJvZWdhF2N1h7jdTr1N1dXV1ddXpW9XVdNZ/RgEybF0fHVOfd9BAlzLb2rg9hhUbDLOMNK9LHARRb0xYRPgvy4GCk63BOgYqD+r2MyVBL5roUDKha6Afzuv8VFaaZUH9kvikrz4VsvpppFn5UXmo5kD92VO/rFrEOlRTICuPhavJ+5YiWTEyp0PYQfkkW2+myFKMSPDJCsEEtUTiIaxAtnRgguneD3HS0Zh29FziOVQ14qtEipoDuFpv/eu+UhLrCU7pqbymCqCuBZhOGuRTFhqmhApdXQoia5qEhJJHojhYd+yg4brZ+Qi7gFq0Zfu4KM8Z6ES5exZ2/+h++MnPfi8ffGgJAi3DfCydwRoAzzz8ED633772Bs0yy43DUd84FZNndFqu0zfiVFaEDvqMigpjZVCeg70HxkDVJBrko6B/i1SW50i/elrnka2Pks3pWjEk+tHI6ibnmKc1MnA2W+C+XOa24Decf9izjsouW68w5Ffb6uevPEwXhKjQsblNC7pvw0oFb1hu4UJcFsGLfoOIDujM5SsuR5QWOnZ9ix0jnFsIVNvkdC3qecfyz+JDaWMVsCpdxd3iz7zIeCW6xswfsuJZ05eGVGnOoGPOLGjg2ZS+Rce8VePDsqUG84Hu3zASvsLjNVfftUoKrU3t1iqhK1CmiMgwP5bVp4sPdWW9Rslk0sC6LFDoo8QajetkvUuHjujqx6e3cC21tMz8r0ELLY2j+TglizKnfBBU7ysNJ6F7UmWpDjG3rAyew9ePPQLrrjEcCR8ezz79DLw5mWU/H7Sf/s/zOOPkX6DSVMBBh38Z++yxHVqqc3icIsNN2ejuMyhe9Eq5hiXZcadNcc01l2LCKw9g0uRHcPUff4ztt/qgvXl84z9uwgEHHYlZ3YyT3a9MP0718l/SlWZ5OpL1oVJN5SW3USHVKkw9y1p8KONDSpb3t85XdXJrSxOrB5b1XNa4dOUyywaGl9GrpZYf54+MMSprenibLMdg52V+VpyyKqt6yfXei53+UFmz0OjihdQTV3NrCy90iU+1NRsjY05nxUbTLHVVkc82MZ9QMTJDy0pTZQGr1wwVhmIdy45wBjpXqn5mIY0IW2ShV8i1WVjtzcOZEZkpS1U0M5wCb/BqsYNpUEV3kZUEj6Gmt6TWTHXabBla4wpp/BgND64hucOQ43nkm0cgVxjGtGU4FCqljhnMDCUbkFAjMOdYAGrU2hqfjousuLo7KfR4UxWa2ixDZPkU0Dl3ut1MerosqVMbr5O+Xq42ft3LXcx1kmfpbAuamnQsxo2Zp8CbrbXASpOZY1hbG0VUARXeUDZ4FIWIhI/1m1FS6CarY7O2GNb1bll4tK+NDmu5nrcmjykhoQ6weoNB2Up+iiYYWCEXdEPoVWfezbaNhYweHYje3NKdpg6cVkDUK/H6hFMKY3UK5LL6WYSHgXDBZQUy6wr9qVOuDBEKgxGzZiSVLzlea1W4EjhqttH3ozJWmQUkNqwi4jkoHB1WeVKNASWGrXNRsDq3iB4aKrx/JIvyvB4S3VXrUG2nYvEIltToeG1kIre4SQDoDSw1r4WxV7RdJ8TspVJCs4YmqmPzzRK3elqqMk/q6ZaFmQprrlHysWxEt0pKSzQeSyfO0NVsIZGm5n+JM72Or6dB9StSVATPkgfqZvjqJMqnOkaiyLwUhZedPIOV1Uf3gKxNcto/vEavI6rw51O1+omw0DZhYDsyfXk8nYlFTX55qtpcL3qIVd/m2/bQejn5r4d76aWX4Pp/3MCKh+cQ4610UzNq0oWnHrwX2++4Jx9KgEsvuww/+vF38Y+/Xok9dtkOL78+y0SsjqkHGGFhcH/lHQkXpjzyfHKVTtN9YmsUYV1MpaHdT9zAHZVfJMDtAYOrFZYEuKx66nKssOyS1lG+V3jCfntuxJBvDc707lLfrnV1D/VJnT6h9ZnIKdnCfgpRLm5RZHsnvQR/+h2IuLeuQ3D991/0hCTkD13sQ2XCh9dMYzGpwtboyt0sFzMtGlCS5TjvX3sFnBlQciecN+E1DgMkZszZ25SsP6xSZ/ZSvaOzbmqS0Keg4MGVjbL1ZnALh8dMURDJ2qPUCWPYMK/yPpJAsJKD+UVvBTczPnr40qOEupHxDHivSeAwMD605BiW/KtcyOZZFxVkvWpG+7ixOO87Z1mn6pefegwX//RizJxdxaFfOQlzKWyWX3k8jj3uCLQ2q39Yyd6OVN/LTp7HB9Yfj7VWH4ezzj4N117zR2y19WYYPbqN92YJu+ywGa67+jf40ud24g1Sw20334Gr/3YTsqzLklIXk6eeT5lGGnrCmoiZ5ior7L5lmlu/O9WnLPtDUzlPhWmurhFWdtNPzvpW6v7V/WCPC2+JwrSyUTdbnXDJQx7sT3rixIlodG+++aa5xmVNJ02ZyEhRbEgAMTNE8aODhcL4vUad8ChM9OaGmq6YofJ6K6rESoSZrX3kCPtieLWsV+9UEKVYgFMU0F9aT6TMVMoseospdHTkflSTGsRP3dhqtZwNz93dpf5ErdyngIwKfhbMaeZcjZEwe/YcjBo12sSEboWcvqhOASOzpPJhOqNmNGZDxlP1tPpC1EysULR1dPNhk/Fh/NQ5LKdOmoxHd3e3vZavtwoU52BSldCjcEk1m6grdvFJnxVZOyu0loJukPBasl6b7qZY0Pmo07KqFN2wGq252KVeJa3c1sJlvR5JMaUnCKZJR8ds3s96o0OvzSpz8ebTk42e3uzWomDgunhVo1j8X1Busf6fLABY6zNsHs+ajni+vOlVVygNm3R+LEE00JhWyOypQiA0m/CGUVzVUUjQvwSdOvlqjSpHs7bxKVhvBOpsmDRWkEl06XV5oY6DOpwqdfU3MnVkaxh2x1x5YVyrJo54kShC1LzA8LXMUENjlI6jOcafa2VZ0CiratrRufS932xvE5oqEPREpQuoJj6NaaFUKEmYMCAbJ8MSXEUd5ZQKTp5T/aHRQqqofwv9SMxUZCFTHle8uJG3p4kbiSmZv1Uo620U9QtR0aMn2y4Kdx0zy/xbtMo8nJc1MemUtU1lKzGLm4pWpr/1G7KnYN0jWlfgtuC/qS4qpcOU5kwaK9hD2aCLEPypzLY70ZaVcgyGqlPjK2k/+2q+rWc68U/noVeJFY+IwtEVlA/NR1JpCZ8qLrvoFzj+m2cxYJ4f09E88YDBL9Ns+us466RvYvUNdsTFf7wae++7Lz6z/8fwyK1XYc7rT+AnP/+VvaKraMgqpjzGE2fe0ls2iofyg94otACVdHSKqKxCPAflC523WdK4D7drr8SUn9JY+Zp5jEtmr9GxQoIYmsS06UWpIY91TyT4Y3g9S4GwHOldLxqXevwp/rag0DQbykqdU+9bl2HfsCRfwdIkQsr2ja+2hPVhj/C7mLHo8ifNsscsosxBzHQqL2S1Tay5lPVCJ8tjPgTb55Q6O3mt9MAhQR7KGd2ZGhUaiRwFjcLhtUc1y7qHIsjSj6R5LzNc+bd+ZCaSJIjCZllZcjy+vgFYUXOp/NnI0xn6YoopnzBzSJzpA6Chs4IqeO3NzCdRwLDkhPon6ptaejif29FFAdSGjbfcAqd+bX+0M0q//tnPceDnDsd9T01GiXXQ9y84B8uNZl5OdTIvz+UDCOsolk3LrvwBXPnnv+HhB+7D14/4Is+rEy0tPC+Wy83NrBcZgSwfTr9z2tew7uotjEcFF/38UsyY08ksw5yrpj5VgLJIssxIssy59qAo66vSwO4SprfqYa1XfmIwPFdLGy1yxv7s5Oon+DaZSB/cnT17NqZNmYrJkydj0sTJmML5qVOnYtr0aT2aJrr0mDFj0OjGjRtnLi6PHTvWpssuPYYFF5/yePNbZVV3QpGOYui9RCYtWX/U3q6+GXrtsinbyqIoh9kz5tj3cEwcsbLTq6Tyy/RVuc36s15BMCHtpmWiKmGtzOIF002gcTBaWtpZyKlo5b4yK6o5gGHkCzk0t7ZixqxZTOQOExnquGgqliWZZVJVrrwJ9A0cme4KzRowTk1aZbS3tfIEZBWiei+W7K0l+/4Kn3wTFuwSBfrOV46VpyxX0vKKaY5quqlAsaT9urqsr5GacPTmm3qxqPlIIkZPDHqwtNcZeZ4FfcyR0TGrRZYZlhV9M4+lylSWkRzPR1+XL3ZSLPL4MuuHZsHeIouzPdjs22S+t0Pn292lznrM/LyRVJFYUwmPb3qA4av/ikSJmkdq0PsGGrFXBUiKN6j6g6jvDa+XCRHC9Jc1xy4pz1+vxOtVSXvi52a1F9vxaiVeE1lfuJL5SJWsbkFJLGurVv5lpZ5RB0Ve85jP7SiMl2lnZQTVZLUOCoVZoJRlGBRQjLN0XDQOaZyVNNNY2aFogovpakKP58HrI6tAhQeV5YSBWjzUiVf+7Bti1qTFfXj0Ev1IfEUrkoJT05fablQIZimgFCe9MaQKVXFQePKnXCyxYzeBCmc6XecCrz2XLG31xCd/9goz856uhaxYRQpMhaG9dQZqiqmxENQYHqG5TIV4KKx0XzIEruKvoqkCP2FBynwqpzwolJ+0p4x7amYIBR2PwKdjOT2YZGQ94k1Z6Wa8uKxjF/ljl0hh1F2Igeblg2GkSpg5eRK+dNAXccxXz8Jee32M25hXmmUxU9RURrHC43V/5YmncOftj+JLRxzFQlxnRpg/ho8dji9/8TP47eX/h8nTVDQTlQHq78EKU+WJShFLL6KWVNZ1nGHamFhX2invJcyras5TB+EWsybrWmlMFYko5Umdu+KlXKFt4Rzqzo7AMoFzOufoegSRNoQocBL+emiY7SXuEF3vZF50p4UyQD/Rm5WZfQhbBgpG68J63YPhPlzc2BnxHpMYV67SVY8PeaFeSNDFsqmgh1LeB1m9Lcpd1Myuve1NOV5XLemBWa+69+YFnSGvJu8dlRtqhhdFil1Zqc0nvektU90D4eLTWTnBG6Zel+o7grK86Ptguvv1JKEWgc4uloOsH2RZzOkBili/Mh2f5UCRBSezmNUpGnBXZUHrsDYWBvpwahlfP/xAbPbB4ah01vDPG+9gNh2BI795GnbaYRsUKNAkevJ51u30r3pI/fLUoR56aUCfyagWraXBrqmypx4wmVbq7H3gfnva9meffhrPv/gq7ye9+s/97ebWWbBsZByU7tZ6LgHEQOI3+KwJkEJJKSbLjYYFkc7Qg2aFD+y6b81iaun91rS1tWH48OEYtdRoLLXUUlhmmWWw9NJL2bzG5IuaJrr63RQw5cWDykVBE0WNTqKJFbHM97pb1cfCMlKDn/cSnbqewkrdvBg8tkzsGjch6aqimeq7JaNvs2TRxVRk/rN+JDIZanC/VF5iaTYzOp++eVFspFI9lVq8GQYrx4QViCox9YuwwpDH0uc0VCgmLMyrLJQkNvQKbr6gSrSbwoiZnYpezU965lO5n+F+6eYsOviErIHCNFK0Okl3z51thZxdYB5WT+HKDXqNt8rzqTJjS9Ro8L5unpPadO3r86ws9QqiWkia8q2Ms6xUTcw8qrooYppyaMowLfSl6VJ3GBGa1XJXd/gyfTO3J7xB1C9DFqCENwYTQuUSRVYezYUWu6mKxW7VOaysWEwwXVQoBJTydJbz3zm2O8MsULgkHTNw6jeOwdhxy6F52Ch8+qDP49kXJ+CQLx+JnfbYC3NkzWIEf/K9c7Hvx3fBf/51HzbcaDO0to7FKaeeZ/05UukOdM6cjlNPOAXrrvMBE6DrrLMGzjrnHHQyX0jM2iEpsmrVDtx589+ww/bbsjxg5c9K6PMHHYSbbv83z41JoTrJblZej9lTbZiAD2/8IYvr8iuuhLPO1LABJauAjWQ6Lv3xOdh1z71x50NPYBM+XenGO+G4Cxk3WSQzFOKdqguh0bWts7USgKLpoX/dhk98cm+0jRiJFVdYBYd88Si89BrzmIXLlGYl2zlzIn743fOw6eZbsTButeuzySab4zsXXmoiUc8c3XOLeObf/8bopgIeePBfuOKq32OjjT5gFetGm+yEf978gIV37223YaftdmABUsCqa38If7nuFlbMzDfMIym8ie+e/VUss9SyeO6FyTiM6T9y9FIYM3Y5m39lIs+Z8VY/IL1EkEqxEJw5BT/64Y+x8cab2VD2rUzPTTfcFD/44c+Z50NlXqtOx3NP/gtNLcvgwYcn4IZ/3oyNNtSI4ozbBh/Gr664BnMYB72VZG+BpSmUkg5c/ItfYodd92KebEN7axvW++DaOOPM0zF5ejGkvaWhZvRDp4mVqPoOUidOOeU0XH75tfj5z3+IU0/7FsPlA4AuLtFbOEwaCpYWPPz0RLAUwTprMP9xXfChiiSLjTfdDDMnTcazT76iFgXuwCvD6/bgHTdin0/uw+vRgrEsUA866At44Y0OE8/V0jS8+uLjaG4ZhyeenITLf/Ub7LztNnY/f2j9DXHHffehxOPccedt2HH77ZhX0/jwhzbGVdfcYdfTKkTLATpLHY8Zp+GGs8128srT4V60e9XWc51m5JjJLB/1I2zW/jFMlXChIo9rAnan23pDG+sLoRQI+4WVYe8QquJNYckFxUuEiZWI9eMvXsxKy+tbprO+XDyPrJqMzPEBg/dKa3M7BQsfOKx/XYZlrEYZ17g4XUizzM/Rj86oynK1nOU9m1HeU38bDe7H+4PLHcU5Vi7ruhbyo3kvFKxsShhGgaLGBsLUA4k17ephjkKnTKnLY2Zsvsg81WX3kfr2VCpZ7tdi2TBFEWGfa7EKStaoJh4njw6KNQ1J2aIH6DlzrcyX+J7dOQv54S3UOs34zpl6WYdhZFswfPmV8IWvHIEuPYgxMD0KqS7Tp6LCm5QKX4JL4o11mJlruTOPpTF+qhk+nPM+0FX98AfWsPybdM7GpCmzKZLot5vnqaRhvaTWIttfQo/3g72lqIdIPsypb5SePLtYR8sOJ+t5WSNRqxxkWaHPpijt9EBcpBB8uzykVhRpFz08S0wqeJW7elhTGdqoaeSUg3uQmAlm6t75nmX+aQdZO1SYaxqaAYJfKd73Gll0dKycFC0TU/MqSNSRVhfA+hXojIn6kUig6WnNvparPi/00+OYlHLhtgwrZUFQe6NMKNLVUsMaz0FvmcmXElFqXk/uShZT61LgTBeFofEturs7maF1AZgeyrBWIiT2tK39SxIgPI9mVlqqcCW4JIiUlhpPQ+eWp2CyGPK4qui0LMuNmv30oKw3Q+yCMp5S9t2d3RRG6hdEP6yoeGkp0FSjl1lx6fVoXmhu0zWK7aIakVTH1nH1nZeWlpCZe9F1D9c+Tv4XVNioo+6sKW9is612xCVXXI2jjjkef7/uOiw9shXbbL4x7n/g3/SlphQJP15b3sBP/Off9qX3Aw85DFf8/vfYestNeS0TzHj9JWy8+ba4/A/X4pAvfQW33vpPfO7A/fHD719IkbMnpkxRh2lVsGX88ueXYNfd96Mo2BS33nYr/nrNH/HG66/iY7vujj/+6VY7axlekrkd2G/fT+Hb37kAH/v4J3D9Lf/Eaaccj99e+kPstsOWeOzJ1xk3FVoVFDtmYcKrb+ALhx6Jzx54MP541VXYbhs+SeWVtmp+1DVUyLIiUbmiGz/94U+x+TZ7sNAp409/+iMuvPA7uO3Wm7HLjjvjxRfn0A/QMWMGdtppD277MT7z6c9RxNyMv//9rxi/4nI445vH49tn/MCalppam9HcLCtjDT+86Bd0l+Ebx30T1/7lKh5qFj62+8447dRz8PVvnoUvHHY4rrnmL1hp3NLY7xN7474HH+UZ8KKyUh/eksb0Wd342P5fwCuTpuKXv/k1LjzvO7j/zjuw8Ybr4cmnXre+LaI4fRp23GEHnHX2+fjioYfj+hv+jqt+/xts+MHVcNwxR+Ccc3/Kgoz3lTptM+9pjKsLfnARTj/zHJx48km44fo/4oMUqEd//gv47nkXsYBmnuA9J9H+2QP2x1FHfRWbbLYF/v6P63Hd3/6K7bf6COPyLRx73MmYy4eCxtzJTF2fIbqhmXPW/sB6eO65J/Gpgw5EpUjxyXPUF7OtriChf0WaT6iTeD+2Y7lxo60yq8gCx4JXDxzjllsRCR8EXn35JT5scSPvn5/98CJstd3H0FWs2nW+6Mc/wMP/egDbbr0tXpwwEZmmGuZ2zmABncYZ3/oufvXr3+KoIw/H3/78BxboCXanoD/pFF6LY4/Hl7/8ZVx77VUU8nkcetAXcc9dz/D4il3D/Rbpc8IqgcNf44awR9i3j/e3ot9h6rsTlYmaURmqmiOuj+gIDUeJi/Xyr2GLEXftLWcXH6G0p2O5YmfJ6GjO+oPYPCvZMgUh84HVZSx4NWyEyvhCC0XGbI3MLEtP/Ux5XUNzWbAg2dpKCUuPXx4jhqtLA/DY48/zHmiql7/crnuDf+reoPxanjMdk2bKmprGB1Zfk2KAGY5u1KjhWHoZxoGRfOGll5FVdwrWM/pupR7GWWorwmbFnDZ9poUh8bPCChTzfCApMe/rIby9vZ3HmGP+/nbd9ayXuA/rwlmvvog//+kPqGX1YCyLEusNPmDL6lXsppDjvjqG3g5Ns+7RpzHUGqHhJDJ8iFJLgupcdSdQhWTGajo19WrIjNwyy6C9jfc1771XXnrFyitu5g81A/ezF2x0HSiM5s6Yial8kOuih1VXXxXD2tTPpx6g9AXDV39D1Yt20m+BrlWjDqnKQmUHDqjea3R9xM/boYtoO/EgMYBIEADvJTyWMgefimzcFK1iZqimqcApM2Wd0aOaTj2RgqZfxc5ek+W8TIqhfTdmfuWexqnOgXrfrqQKSal3Os6GJ1QFzKcFnruuiWSlfTGaBb2FSaeOxxrbxN4GqElPZ+iHmZ77qK+KHVeymqpWTWOKp4SMngQ0mqWaPPQmmZr1rAmK+yl6YWh5LnNe/USq6vOkZwP1vaAf3h1c0tkqnrphZbrU8ZgxlSASjTy+7ClWETAN1SkvNnPpRlHTnNJAB1Hq6rlQ8bV013X/X6+vbtrqdPzi5z/CQy/NxR9vfw7HHv8N7LLtlvjJBSfj26d+Fc889hTTW8JOGZNPY1Tyk18t4cjjT8NnDzsYH//4tthzl02QdM/AScd+AxNnJfjtNbfi8GOOxLbbbYsTT/wmrr7q//CfB+5hhXUBw5jD8+jG9374K3z6wMNw7nnnYRs+ke+21+4UQH/CxhtthP/cfy+vAy9ouoof/PjnuOHWB/CLy/6Ak046DVtvvTWO+NKBeODm36Bz8mOs9M9A0fKJPsnQgtdeeAVHf+14HP6Vw/DRj+6OPXbfmAKWl4NPNWq2yDEtMzLZ1abjpacfwjfO+gkOPvosXMuCaLddtsP+n/k47rj9WnRMn4DfXPIDi8ed9z6COZ3N+N3vrsdXD/8KdmAcdtt9V/z+/36LT310N/z5N5diLgsLdRYsokNdj/Hgo8/jupvuwCf3+xw+uudeuPz7J6E5mY2LL78WV1x/L/be/wDstddO+POlF2CFthT+duMt6FAfBD5ZVllh6y2WZVZZG7+7+g/Ya++PUkQegDv/8Rc01Wbix987k2nIU0ATbr/rAXR1Jfjzn/9OwfkFbL/jLvjYJ3bHJb86F5/52Pb49S//gDmzmUCJ3l7iPqwMnnjmaVx97d/xsU8egO123QOXXHwRPrrD1rjuil+hg6JH76o8/eRzeIlp+YtLfoFTTv4mtttpG2y/83b4wU/OxbFHHoJrr76eIkO5l9iNqnxZr5x1P6U0Pkk7jjj6OCyvMayYLrmUPprKp3GVVVzDUoC/2jfBG69N5N66hjx/rtUDAe8se7rNs2AX3RSQtWQWRenTOOFbl+Kgr56FP/31Wnxs7z3wyX0+hluv/xsqszSe1sX0zXsnx3uJ5/vUiy/hDzzffZnmu+29Ay763rdQZZr95rd/wV+uuQH7fOpT2P2jO+OqP1yGdh731r9dr9uX6aU4SGTqvHimPE/FODj99RKXe9apHKaL63q21Wf6rDNUejaE0TOj9XIqNHp9B7Ss9fV07+O0PjTTyTUS1sUYLz6sVGO5Gl5R1xLLZpbhLCyZnThv5y1/ekjjgzPrAhX06pdTVdeBJuYx5g0r+nnTZc0Sokdk5iDLj0wDaypLYdstPmxXcvLU2ehmeYaMrPXKfTwGxYMsqRoAcnLndLw5i2EknVhpuWX54EpP6QLaRyyF0cOYH1gmvTrxFT5wq58ow+FyqUph06wMw/I/VcHrFOn67l0634Zlxo5mnaF+aSzrKTLU2p9OFXDPzffg0t/eZdlkpfHjGG3e1+efif889ixKGutOZRYzYZXlrcbhUSHW2dWNGZ0UQLy39JKFvfjA+krfYDTrCh+I9OAyt4vHY7TV3DV8meGoFJhu2SI23GQDnlcGU96chjlMv2oT4897ROO2aSypHMPiDYOZU6fax1/1yv0Kqy6Pzu5prNP0+EusblS3Br0UYY9rC0a9rlK9pnNWyg9EuOKDBp2JLkL9VjL13etCxtUGnVY4NdujXliqOOlbpDTOaaqdQ1EfaPTR6793vfxJZIQ9QxGrONAvL25PPEnvcRsJ8Qxb6sdWwVcPrT/haPIbjxNCDes1x/CUqSzcsCX47Y1hIBwx0Lu+d22c67v0v0HhNW0iLtfHXvfeD+PXGqWzJYwbBeOn99sHY8eO4c1HUWZKU63DBeucvPraH7DjW0zTZcx9ZQKuv+5mHP2Nb+KDH2KhwdUabVbnvc1WW+OAj++JP175G0yfMwtzunnjsQB77ZXXMHnSzHogGQwfORp33fEPfP/CU7hXF6Yxbj/55eX4+KcPwXY7bG/Hs9b6UieWXnUsRdBnccONN+GxJyfwhpKJWIVPAZtuvo0FGV6NB1RGaV97O0qnwfjXKnNw0w1/R6nUjC9++QQ7bz1VKjJjxyyD/ffZEy89/ziFRQd22/OjeOQ//8JWW23I7QzHCtggkrfYeBPMmjKVhU8FxaSbxS638VJ/+sAvokWvdPBfabfG8qOwwqg8tt1pN7QvTQ+KEFOpfVQrxo1qw2tvTpJ05iWRKKdQbxmBb552Jivh+tMQC+cxK47DUYd8Gn/78//h1dcnUWSlsfNHP4Z/Pf4kReGm0tM6OsPWQYvYevNNMGNaB/MkF1lgSeSnmRi7fXRPjBkzzNJIFUyhtQXbb/IhzHj9RXsAKLPQW/tDH8G9/3oYnz/w02ZtUbOcDcjHe2H7bbbiNeCR7LqJnpk6ytlq6lXCKw2U10MznWLYi0zfjIMGWmNFprdiOrrVaFVH+YfXJAzqqD5hc1iJFHHDP/6GuXPS+MJXTqo3B/B+4nGWXZbX7eMfpah9wp5gS3zKTDPye3LdqJHh20USRWutsSrGjlsB2227E8aMXSrEkeEvtdQIjBrWho6Zs5kvGGdFzvayK0DCeSo9Q1hxe2B+S33X99J33fx8ibit//b5rReKcyzHllSUL0KZKbGipfoac2E5+LNrTBdWhG2adtjHdGHf6FLzle4WdXTO5zWsieoBpgPv1zXXHG9lx3/+/SBmzZwDfSw0X2hiiCwDi/r0h4RDAU89N8GaldPNeay22sr2IK18oBdjdt1hK2aTKh/k7qcmz2J2N+92PoQXWtvRNYf3WYEinU+2L7w4gQ9kGYxcelkst/yyLG74QK7o8qFfr7jPmjELx558AaYzftvssjWuv/4qfHC1ZTDjtddx9tnnY+J0liMUXHoTV/0Ha+VuHHfkERRjm2L9D2+B1ybPRb55GE+fZYWaCDW6NMsSCSXwgeieex9mbk6hbcRwrLD8WEa5C+nWHNbb4API8iH9kXvvw5yOCjr0UeZ0lseQEGS6qZMSef6FlzCrwnuzeThWXWksWnMUOSzf7APQVm8zPWQp0kP+u8y7H6LjDEgak9+cgtdenYPNNvmwfYXeyhdl8oRPOyPHYN21V0U60TdiZKXKo5IewUIii/G8qeJzsSrsRx59CjO7a/jAuqtpjVVx4fX3Zm7PYaMProbJr72ElycV+ZQ0BieddCyFzt+x6nJLY/edd8Fll12JF16eJA3EW4t1Xo2FxPTJeGXKLHxws61VB9rxVIDpS9h6CPzQhzdGaXYHJlN8qFJubm7itjaMGKZCTWJGIVnZp9vVKlo9WNpaenju6Rco5Nqw9EgWMFxpPcRqrSwI2/Gzn/0Ef/7TlWhta+axZAbXG1WdePq5x3Hng/fivO//CPt/9lCcfvq5fArSx3rVMT5HjaKmSxbGLaFTb10z8im1ySrq9dZbw85DcVAHSRtIkpW7dW7nOnmygj2bwyqrtNuAaDauiZpdKT4222h9zJ3RwXi8YGJJBbY9cLCAfP2Vl3DXXXfhwu/+CF85+HCceMo50DeB7BrxBM3yWGXlv86aVsjIqmqjIFMkjGjTIKEzMYMVv6oZXVm9CZUU5+DNV1/G3XffzTS5FMcc9lUceNAhLOizfOJUB8kFQb7oTGT0Vmk21VM/C1F1IO3SxyGbWq2jqBWCeujQyLlZ+VEfjgoL6G689NxzVjAvvUwMScFkeO2b8eMfX4g/8Lqlsu30r9ejuzFu+aWYPvRpzfK8Rgy92NWFTTbawCw8kSZeI1WC6pdoUXWWcGpooUiRZX/mzMms5DWGFssAll2z5xZNTOtmTFMcbLPj5rzuNT6ovIp/3Xsn/eXQzYewdE7lWhdqzA/V2UVc++dbrcvaGut8CKuuuSrFjcR4B9JtOey8/daQEeW/99yHfz/2HGrtY9BRbkZXZxZNheGodVaRzOzC//3xb7xfm7DVTjtghTGjkavyPmH+y0tglOfiO+ecg8cmdKF52WXxjdO/iRXGt+Hck49CG/PcXdffir9eewsfpLLoUHOUPhBcqLH8XJvCBZg+pRt33PWIvfhQ4hlVM2UUS7OY39UdI43uiUVc85c7UWOBud0eO2H0sFa0sYxRC8zWW22C4RRiHW+8hLvv+g/KqZHorspSJGtsnjcdHQXZX/5xI8oUX2t9aAOsPX4c2mt644ypFwtPqn9Zmlz8OIMb1QmsFPMaCI+L1ndeP+oEx8w+fsXxQeWnVCnrFWt956VZfePsPrDMypta7b+aVxOh0LYiS5ESKzRk8mjhDnptW02d4oDPHIBbb/479tprd9zDCvvQL30Fq628KjbffDv899FHWDFXMXvOXE71JiGfTLhPsD7xKDyedaCz9sMUb34ekxWlKqxUivELh7BmTRG+GC/xEzbYAIHqiMhaVl9Sr7+0BX2sTyLBPh6pjvVQHxUWjOUOXH7pLzBy+Eis88F1seM22+C3v74My40dg333+xQPGvp58WwpeprNMrD22msFkaNE4bLa4/UGVkEfngyruC2YpDTAYrCScb31DwM22HRTFLhZYWiMo3BSfL5jxawg1cavNUmxiF/97KcYtcyyWHW1NbDDNtvjN7+6DCuuuDw+dcB+LBRz1tFT+0tkMRHR2qq+ZAyD1zTNOKjDoyoPfeKqq7vEdOBGpvXt/7wR66y3PlZcaWXsvNPO+Pa3viV5iMO+dCjTVILNrn4gJG04sZ6FBpj24Wmdv3YdNctlzbKgXmWV5Rg1FbBZO4bQdUoV0ugqUnxTlOiNVxXiJgZ5HB2950gquHU+TKrQoZ7plm/h+aexzDKj0JxLMb5BdqrpWk0KBeVJi0qIm/rbqQJVXsrpJQA7l4iONMB5OYsRjR3WiSozeK65gLzGBOrQ/ZHFsLZhoYLmfV6eNRvLUfB/9sBNKeg78INzT8fkiVN4OfPWgVrf7ko1teD2G29nxf8v6zB/9JGHozXH+zWr8dskwAtY70MfwmbrLo9ssQPnf+c7mD6zm/lkOO8h3k8S1UkKv/rdNfjXY9MYQgVHHv5FPlB0oKo31vjwmGb8brvhVlz6m9uQZFvwtRNPw/obfIDirYjd9tweXzloDz5oduOEI47EI4+/CBRGmPVSN4ma2ZcZxRzPh6sfffe7mDRlBqrK84x7obUZZZYDHRR8nzn4aLw+k49xba348mH6/iDzs8oUPhyMX30N7P+xrfhYU8R553wbkybO4C3TjKaWdsafD5UsK66//nZcdd2/rdw6+ujDMbqND23F7p6hatR8x9uMMeJf3xvkXaGhRHGc9xBWhGkW9voujr2px1WqeDT+kL6irHGKZsyh6tf3YXgPquhXx3Hrk8R97E0F7qQKW1YN3ma8F0MbvIxH6ueU19CoXFPuKqOFFXAT9DX0BNmmNmy6w6648s9XY8bsmbjltptw7HHH4MlH/4O99tgDU6fOZmE2nLvmkFNfGKInDxZnPChdWq8u61VPFnwUbqqwiiwAanySaWk2Azm9Kcah/5TiYJ/hYIQlnNRRUP27ihQTJUZcsaQMsDf71IerxqcdVGdw92m4/Pe/xkFfPR37fuV0PPvSBFQphp565AFceN5ZWJlPRqVKN1qGqVmlhq6uuWZN0PAGSk85G5Wa8c4zjWOBYekms/PcuWhtyiObq4/Pw6mapx7+14NMM3pSlHm+oXcYz4qFeVMhZZ30dVZX/vpXOPqob2Lv/b+ACVP0FmINjz32KE48+zgsP34khU+ZT3EKgylH4aAItRfa6tU4Y2zRSaG9vdUqe41fJIPZfTf+DZ/82Kcwfp0N8a9nXkNHZydee/UlXPiT7+IDq423NEzlKZAtnEZCyL1ToXmmgcQO99AbSpoL/fLCAJHLLlVglTUXL77wqqWZXusPLyh04fU3XmE88xg2YlkpNrRQQMrSJSmjlBXqyB1R9pDo6aRI0vk11YWiMrH2S5gmak7s7mJepF81jkj86AUG6bkKxejAMDAFZIE5ix8+tKk9SZUyy5m5LLfCh49Z2VeKZplU/7lM83ATzwcfciDGDk/jpccewQ7bboer/vx3TJnWiedffB1nnXwaDjjkeEymkNrpk5/A3jtvjeHJHHtjyj5AWmlG81JjccqJh2AE779br7sen9prX/z9rzdg+rTZePS/j+Cr3zgeXzv9EpZwwJFHfBHrrTbG3jJtah/Ge302XnnsIRz5tXOgZ6tNttwK+x/wCWik6jIFmd4G/uoxh2JFxq/AsveEkylOWPxo2BhZZtvHjcHXTjqc5Sfw7MMPYfMttmHZeRPenDwHL774Bq6/9gbsvtsncMu/n0aRD4BnnHgctlhvNZbRknI8YK0V6dZROPKoz2FUexqvPv8Ydtx6S1z1h6vx5qRpmPDSszj51FNwwGHnYCojuO3u22G3nT/CrF7lwxnLBM6l+PCkrznoywU2HMC8N///TO9d7DjvMUsttwKWW64dd9zyz54yPWVPxBXMnD4V9zz4COvf8I0Y284aUhaM2INf9Zkq7PGrjMdSI9O489Zbe8Kxrtz6YF65iPsefgLDx66IcWOWxrNPPowtttjMxm6x8ZRYYG295eb49lmn49wzzsTMqTMwddpcjB3LuC3Vgv/cdws6Wan39hhhZcUa/fHHn0equRnjV1ie63hz8rHfvgXEmzJU6vyRtUNKg9jbDFHFUep8YJ11kUt3Y8ZUDWjJSk9eVfPzHH904fex6/Y7Y+rLL+AvV/+JT1JL4bgzTsByy49nGOoQqZjU8Nwzz0jloaNLscuhWd+Os03W+8bKBx3T+g0wTcO3gBQXbeB6CgjNdnVrQDeh8YaK1jdg0mtdJio1uqz6zOhL3/c9/BTKWb1y/kETan+56vdob0njvAu/hxGjsmbFqvFJTda6Z59/kQJCVjIdW2+7KX0YB1YMSp+KrqmlBY9Z5ZNjUa8Wh74x/7z+72hrSuHs876LlVYdZ0MM2De/uHHCSy+ZJauzK5xLDxaW4DWozwW0xDyloo3nnI7ih7/6zp5ezPjIJutZJ9LXKC5VAOalrHkOfCTHvx56DCPGjsMGG67Pc2m2t7/S1Q5MmxhEisY2ymrQNl63c7/zPWyz9Y54c8KLaGsuhJMkGszTTpb5Vj1h1FeiuYVPzlrNNfYiBPcPH6eU54Hoe1bO4kdNzLr+Kh2yOYpbVs6ZAkV5NYwBpWbdlJql+aCz3ofWx+9/+1MMz6cweeJMHHLI17DG6pti3fV3xQ8uvhqz1Adnj11wwffOwwjeU+niXOgr/OW5nSzjmhlOFtvstgO+d8HhaOU99fB99+Lgzx6IVVZZF5ts8TH8+v9uovCp4cAv7IdzzzyRfoosX2oozpnFSFZw8imn4/XpVaSbWnDOt0/DSIoQWYRsgN6mAsasvjLOPf3r6oOMh+++B9/77o/R2c38y+01lisHH/YF/OyHx6Cd98bUKdNx2JcOx+qrfQRrr7U9vnjoGXj48UnoZHp870c/wNGHfZ6FykxoCBn7yHKF9xnDWmPDdXHZb8/FyJYUpr8+EYd+4UisvTbTYL3d8P0fX40OpsFue+2Kn/3oAgwrMDBZeHlv2EtBEj88D907aqquFx7vKi5+nEUDH5EzS43BQQd/Htf/+fd46dk3zHpjwwIws1/+y8vw5qsT0WWZn955U6rq0GcgKmqPVgWqcFhALLvmathpp61w+cWX4IUnX7dqQpWc3pp4+J7b8X//vBs7ffZLaB++FFZbaQWU58zA76/4LaZ1lk3UsBqEhjWY9MqryCU5DGsfg2FtrTj60D1w9e9/gpvv/ld4q0sSgYFPe2U2fvSjy7HD9jtipRXHKhKsSPU2HyswVmLSMBpOwR7luZ+cmj3C25B0rER33313ZIuv46rffh8V3ttVaxXpQqVjIn7222vQtNRaGL3camjJqUmFN73CIWlWyBod9q6/34irr7ma5UOGFbea5gronKO3/lh5s6DUkUQw/ITXQ1VJa7tWaeBBxa+rqxuF5lZQknBlgiYWzknHTPzuN5fJ8GOvtuoV+Jee+S8uvOT/8LkjTsQyo9rQkipheHsbzyttzVZ6CFY81fHy3/c8gd9deZMJgu5OhktRqGEn1HcmQaelT15CicnJnZj2abSyUO2c26EVaFEnTj40dnZ0UdJxdxsFMcHEp5/Hjy66hGvUQyq8z6j960kT6LMg5IuFryUEC1MWyDFtdHhZaVZmwb/DthviFz/5IbpnszJTYmfyzA+duOjiq7DfAZ9knCTi2vjEfCivSRd+84vzQ4rJ6lObjdLcSfjdn65Hy+iVMHbF8agyDSVCVQmq7LbCOskwJllesxK6+cQtfRUIA6qqcNfAnyGC8URibJ0lC17LfOi4r4FB0wmvt+wutSJKah7V/cZ7XiMklyss6wqt9tD19FP346zTv4oPrsVygwVYniJ/s522wGVXXoI/XPFzrDKujQ8cc5Ev5O3bX9k8H2h0ryqbVXLY/6Av4cmHb8DxR+6LNVZqt9wxbHQen/z0Xrj6r5fhpz85F81Z5qNqt1mJ9ULBb371f7j+lgnopOdjT/46Nlh/PHLVmchSUJT1LSiWKXqJYJ9P74s9tl+f27rx6598H/c99BDKhRaWkfpyQZXC6tN47NFrceKxh2Cj9de0t8dUxK2+7qr4+slH45nn/osvfWFfNKeLaOJTYJXx18slsuyn29rRwTy+3W4746H7/oEfnH0kNlyXD44sI+gFu+yxCX59xUW47Nc/x3JLD9MjL9NUVh4VjEplvcagoozzfHqrskKId8i7hcpGx1kEsEZIFXDIYUdgrfHLYtetNsD5538Xt995D074+nE4/3s/RLrQbE8OGisn5nT171FFobpEz8hVmX/Szdz3+xg7qh0f32U7XHrJz3DXnbfjR+ddgB123xMbbL4pvvqNY1nZJWhracMZp5yKu26/DZ854FO49robcNutt+P4o7+Oi352Kb7+jRMwhk/6+nbX175+OD666yY45MB98e1zv4ebb70Rl/z8F/ah2FzrUjj322exIuTxoc+Y5KyfjAqEaqlGARKe7GWZ0ROiKrEgnvTsX8Dya62DC79zKn544ak47JCjcMONt+PaP12FzbfeFtMoYk48/Xx6HY4vfP4wipGp+Mw+++H6f9yMG+iOO+pYfPmIr2IfrquwoJ0xg093JMMKW3WnBgrsuZGVTqxlFQXZGLQ+WKaUplxiPDXQZbC5sNDmvNrfr/jN5Tj4oGNwyy234lc/vxQ7774Xxq6wMr523PF8ouTeVDuf+/znMX1OBUd86WD888abcc1f/4qvH30cC8mv4oDPHISkaxbFhCoENQMxBiwpw8jqXFXRpzoUDzUzsRC2zcFq81ENHsinwy8eeACu+fMNuPOOO3H+t76D9TbdDbt9bB+GOxvT3ghWmvkTi0aFWLf8MBWi5Sc6kR29DL59/gX493234XOf+gRuuv46/N/v/oBtd/w4Ri49Ht887utQFlQH+tErro7vfPtU/Oh7Z+LzrIhuv/0O/OXK32PzLbfE62++iW+d8216VL8eZQZWhx1zw3EUnYy+Cp+YFUyVhgyYYUgQ5QmmDVeq75EIX4WPNMbWWTLI4KDDjsK0mY/gjVee4wNBnpeXD2W899T8Fcah0fWVuG+xMkHXetiINnz1yC/h3w/ehbmzJ+D111/EH//0J+y19x5oyZSRdE5n3S4rh8ai09hvFQqPEit75pDW0bxX02bBPue80/HQvxlGx3N4/sXncPHFF1HAb45MrRsVCut0pt53jGXlQV/4MqbMeBKz576Br33tMOTTfKRMusxCq+4B6n+kZni92HDFn/+AjmkvYfrEF/CRTTbkcdPoZhh6I1IPBXqr8cxTj8O9t1+PuTNfxOTJL+COu+7AcSccy3iN4LFn0x/veQorDeirgkfWZ32mp6ltmA30u+zYZfCVL38R9999O6ZOeQ6zmA6XX/F/+Nheu6MpywebJHy+SU1dloY8dxuGgA8w9mkZlaShEHtXeevyxHHeLTTuUqYdrcsuj//ceyMO/dRu+OUPf4hddtodr7LCvObWOzBu+eWx/KgRcYR/JKwQuissFGRFCaGgWKEQSo/CsHFr4r67bsTBn9oFPz//POy6/W647C+34sQLfozrb/gTVuDTkfW+SHLY4+P74I5bb0WBhcTn9vkYdthlDzz83Kv4v2uuw8lnn2ifKJARW81Nv//tlTjna4fg9qsvw547744LfvQL7HPwYbjrX//Beh9YgTej7E8Faoh2dLPgkhZqlmmD96YqXFW31s+Hxw5Vu25ixoRC5dCjvoz7ee4zX3sM++21Iw456nist8UuuPPuu/Gh9Vanv6Uo3vbHH/9wKTJzX8Y+e+yCQw85HMOWWR53/Ps/9H8IOkvT8cqLz7KAUdA8DtNIhY+Ehd3MfKyqZVtRrrJCpkCzqKn8sDi0obuW5VNaGfrql97hUJNivnkk7rn3XoxoAvb7+B444azvYZ+DjsBtN1+P5UbxiVcB8/pts+fH8Kc/X4E5k1/BJ3fbiYLsOLQttTLufODfOOwrh6BWnmrjGclsX9IReHxZ8JQqNjiK0qjUjVzLcDB61lwg1txgE1x/861YZZlh+Py+e2L//T+NCZNn4/4nHscJZ5yDEaNa8dyj90k+90VpIEeU0jZL8alCOyMxwoNXNYqtVnOrutDbK7TpYVhzw81xz53XYWRzCft8bG8cddQ3sPOen8Tfb7gVY5gQdgV1HXndvnTEoZbXpk9+CXvusRu+9NVTsN5G2+Kxh+7Ehh9cidcig1KalYWe/nmu2tdixIQv6+B2bJuwklMsmUdYsFdYyal5cd5y3XZqYB4PziLGxHRaAxZmrLLO6uUE5nIZGCVywoB60Tqhlay4pXaVH+wJSa/Jd6GQpViqdiBfpuP1t87JKe5LPwnDS9THJasXL5g/9NZglsfUdx6Vb9SkpCa2TJGiZy7yCfOPOs33fKPSGv+5XDALTCrpZPnE/F/tZBwUM8ZJY3uxDLV+NMqpLM9SmU5muVmMG8OiCCnkcyjp2Gjlet7HlQ6GMYv7Fimw6Kc228bRytQ6We4EK5Vl90pVxZEMnnopl89WFGT6Er7M3BRdag630a55LmrJyjB++VoXyymN9qUmryB0yhQ+CR/SbDw/JrCGn9C3wkLavnukeMH6hKkmBhEG/uqlygv3+Mv34qwLTmJ90oWV1hyLthEyUvPJSqYunr1dfAWnE7flLF549nV0za5g1THr47BPnoRsaZg2OoMQGV2UAzWpzwanBcJbizdJFrfd9ACmTJ6EFVcdjf0+/zErIKwW5NON8ov1S9Egi1QdoWNtBbOLVay/7i4mhi7+6cm8sRiu7mTe3Ekha00y6hCnXBnKEt40+pSH9Q1RU1kBRd40XZUaWuiJRQddxiwOshppALoUlYpGca0VWu020zEU9S7etM2qK9X5WnlXr4sy/9cyzQyFceTx1LFYfjX4InjD6g6vZFosAWyUe+5XpR+lh4KQX8XXkMXFjtjBlTox3htJHhV9dZ+b4j5p6gO77VIsjOy21JtSKWvuU2Gh4JTWfKi0/jbZWmg2KrKQ0nolc079nhKtLzCK4VXuAvdNqVmuxgOkciiyYFFBk8eT+PG3vocTf/AgHn/qv1hpFCUCC6RyTt+NU68iUj93+9K0Eoz7qR+SXuMupcObceq+njB8+y4QD5PLcCdGeC4jJfGlNzj0LbwgwrgHCzsJixIFme3PQpxFIsPVSaq50IbwZLLx2vEvy3C0myUS99CsCUuFJ+hP6GlW3wICC2UVnJVsm3nRZnXAtmZKXVfOVcoUYRp5WxeqRtXHwlkfKjWrO5HGVbrZF6ftA5UMhBWS0s+eSon96o1DZUimfpEpIfI6qJ5kVVEo8yeqvOhNF0jRrumbRTwQw9NltkvNePe1/jQiD2J+24cIPcmgmd5mkJAqWqqic8YLeOyBP/LadGPNdbdA67Cx3KJ8qqsV91h4TDvoQilvqu+Yrpc1xVKsqB2HS72yV9ZG5l3lAx5T36jT/RnioEylklJh6Y1DlYAhP4Xqve6Xdac+Y6S1YdwqhqcNpEKxw1zE8ov+uU4fZ7Z9GJ66CWQrunMzKFsBV6U/3V9KHTWha/hVCh7djIq39pN4kgCz4EP87NNNVjgxb0tA8RwSCSeev4SayGh/2ynEXwNIckUQPiSMdyc/Oq/w+KF7Rx8/tSdcfRZEqcYnIfuArh2D9yZvFF3inPo6MNZV3keJLkCVcVe9wfX6HiV9c/8SOma9hicee5Q+89h4s52RH74aw2pXVAyNws0V9qdppB5Nx3mv4VNN95v46PZb4oijvo3ZpbwNhZ7J8gaozMFjd9+B1197GdvvurOJDaHh1W3UOwqgJoqcAmsk3j6sT/R6JZ9IKB5S6TarLFWhqOoZxtpWhYI6zumr7GGwPErznAoE7k9Pqv50P6hjqu5ffZE8xZtd331KpehyI3gz5nkDlhkWw1WlpacQkwSKnJSS+vwEwcHge+6p+v1WX9Qvb2wz4+rGbzaLjISJnsCkETSeRoXCT+FI+NgHC/WKvipZxl+fgJAmsHKUnlQ/NnFZ+9m4RgxTAkPlnIoDHVJWJk0tTK5SnNTXRdYfxV1FdJ4CQYVSIS9TOwPjZhOY2YKdl1Kr/rBpZxEGZeRapYvM5tqnfrZdnd0URlwns7oiJmsUY6z3s+xY6segr1WbENA+Sj+eP+e0PaQfj6LzZslpx+U6rY6dtqv1PBEJR44ohiGIsIECqt4MqSwUmpx4fD19So/Qk/rmaARZpbOdO8WKvcina2IhBNR5vMzrk1ToSRUST69aLjHcxD6kbK+9y3Rowq0XNSWGL3lT5JX4pK2TJR0dHSZ8LJqMr+KsbfMXPs6SgNXNdolYdqgMsiuoyl39EjlHJ0FklTSnQdwws2iDLrT8ar8oEPir70lK/ASVFPwpPD1M6Tti+uZkVYUEt1swEk2MSJ7lYY6FpESEBkBM8UFK+yX0m2R0FzM8/tutaAJFIjvkaMVLI13bI5Wa3bhPhTegfdOLZVuGZV5OllPdbzomferxRvesBojUx13DAL7aRPFnAk5CVGWc1lGUqZxm+aCR8FUC6CFGX9GXKFIaqOzJ8QFScdH5hGExer8NF9KXq1Re0OlYYWTud5e+d6zjvIfoLYNP7rsPLrr4F/jKV07G9TfegDtvvxUXnn0u9tzto9hptx2w864bWWWgyi6jNmzu1/u9FmZXVrB6t0lSJBYZqillxtVNpAxtDxWcU6Vu24VqWGvvZiHA9erHovpcYahQk5OpV6MLS6ykMhrQTwWLbjre0FIX9YqYMWJYvKlZGGg/GZzDG1ncpe7Cge32tlk5yYFMppULKogYZwaj5qrWQrjBzROXbUwezkiw6MOoCk/jCFEH2XYZ0KwMVaGlM+a8WVi4ZNpClb8EEPex/jpcL9moE7a3sexVM8a5woqdYkyv5Rc0wiG9SKTpeJbidu6yButgOqYKNM2zoDRxEdKmpbkZ1RKLOaoMWV7CN7TUEdxiF1C8eVyN8yOnDx6G1Alhq9STYFB5F4VPuaLPt2Q5ZfqHstvQ1Z8vvCCJPTEyLvwNzX6MU+xtrHxgu+sTMzUKbLu6TBoem9cxK2sTt0sw2akSDYaY1qcLeMHUiT1L4aSprFllWRKlsELyWdjKE7bCYsBrGC6CudZWXn+t13GZnrae6JMHzpKNxIYqaIkEq4y1QCGgpjC7kGZhUBlRzzj1PKBcrh1l+YjfntRwENrdtIntG/yYhYnLylP2EGeVfrhfQ/jM/cpjdmw97libC5frjvPyozgoH5s/y5l18aWw6pho0f1qcZBf+lTU5bRCMxYtPXIqDIkeCTSFaUe1czDPEmhaY/uJuh/tryY9ih+zwOi8VT6orLYbLO7QG54EouKq9JYlSCGFdHl3CVfCcd5jZHpGegQ+d8iRuOGvv8LUlx7EAXt/FNtvtxf+/Pd7cOkVf8JVV/0GTRQ85aJeteaNyAyvTF+WNUSixczNGphOvXl0l8jsXNTdyYqcBQErJxU9GlhO91RefYV4I1lRpFq1RkFTLaBWUkXDp3HbopbyCp9++MSTT/V0tlbrr55cLN5SFLxZrU7n0VWPVvj0pYf18Comb1s5HUaO3gNaCticlSUsOvkIpAJMweojf9qmr+hLXMTxglgkoavahZKaqogNp68nKP5lcvTHQkTYZzW4TnuVyyxQ0jw/vSFGAVQtqvOxIqPBGYN4ki7IWfMV16bbqAeH27K+Rt+I4paXmGHY4Y0kHiNL8aInOKapjiiBWtbAkkQVfFWtSDKZM6GCxUaFM1GCpJheeaaliY8K8kxnHpVO5811FKYqhLspQCUk9WTaRIGl66yxk0Ih20g9vg3R1qkqPfS2CQPknkF8qWO19RlgGHZ4HYjHTMtaJSuWrqmsTtb5uEjxxKn8MstoqAXtp+ukA+ijxDK2Fyl6lDf15poJSv6petCR5d/iy3RSh3Lr2MzFiDrw6wCy9oRxfuqWqPmiwOScxYWunzohK+sof2eZv61CNgESmtWUZ9UMI4ER/OfMxeunZhnmfM7pnreSin/MeyzTZCFReKHbCP0zo2aZDfPKZ7pP9M0ujaNjAkgWFb2VyX24FMpBWVt479lrpAyjXj7ouPHmsWY63ocm4hhGivubmJFfiRcKufhgZljZEcRRYmUqt9X3kehTnE0UcV97q1JlJPeo8F5W06DiGj4zw3PVAIhp3V+Mv4Wjhyzd51zWjaZylktKG42ubunDckPh6VjBaeHdo36WjvPeosKhnOSQLrRglz22xw03/w2zps9g4V/Dvf9+EHvv8wlojEJVRfkCb05VRHYn8WagEor5vn4/mtPDkhUUuiFlRiFaJWtK8MNwVGfZLWXawzyk1L7Bm1WvINvNaDchV+lJXOFyXq1lVmZQQNmbBrxB1STU1VVifPTl5yxKelPKdtSNHfazG8qOrZ8wq/UWlO5fHkKdXFUJK8qyPlVtf8ZSHuizSrEn8ZFj5ZyT6KvvL6ezSDQitBWC3J/nHwojzudYKIbDorurC5kmFUAakJFFJcWGWVTsEPLENE2a8eVjTsS0Kc9jzGhusAQKx1EaalqhCkyszUn70PGE4/XIcdokQcOFcF6cyi+DyvBAxW7uy1OL+6lPTTDA8Idpr+rC/lRQhrXIMp4mOsq8Nrweiq4sSTre26FrIZGjCOiNt7Kuj4WqveV0Hjq2pjqyTP0sxLlKAxFaxLVGZiZ613HTFHXaUwJGqDOq0MdrTQzLH0OyIRs4r7d8DEbGxgSiECtR7Ghk8/oWCh1WPCHjmLCzYRKcJRxdr+gCut4SLJISPXmsZ7MEu/JOfavyA50sLZZjLL8wD7JST1OIp/QAoPzHzK9+NfJrebXuz47Ce1nWEzWtKRQdW5YaHUFOTVzq82Nwkkg86HgSNjHvq1ziMe2xwI4vRy/mmKfpQuFE7+osx+PZMbmHgo7Bc06HMCwNbIPuaJUNiqv8cn8t8XgmrCwMerbAg4VZS5rXMbWPnQvjqPtWfZ1SVs4prrrvtN+7x7sbmuO8BaoQq3o6kAnCxEQzkq4w4owqZdP+3K5PN1g7sWolbtCAgfqkQyw0DN4oakbShzH5sG/LMs6i3IVqtz4VoTtSK0NThZDVQx8SVGGgbbmM3upR35OsVdqx34UqNSsjOK9bLzRx6eZMoam5hevVPKbh5tV3hzcu9yuVuhUFxk8BaKeeSf1GDuiUFE07AM9VR0h4g9uwg+aJPxolOF2weFkREa1D/JO4SdubTCwmGOdKtwoIBsX1dYOC+W1SD26mYzUpolDQnkwK+lHBUqKgKVVZ6OVG8TK0Iq+05zar/4kmeiODq6w5SOmigQbVTBZsG+F49eKUp6K4yzcnTFt9cLVcK6GlkLW34RRzXW8ZNxRXnbpEZZmiL+yl4+n6hWN38UTSuSbOcz9ukMCrmlUm+u6P1odt3UwPzUnA5CkyqvU3ysJ2JhDjl+QzIR/wR+ctY5+OrxGgk0T9orhCeSTN82D6lfT9LYXAykWvC6siUXqqjtCpq2KwT7IwUbI8YR2pTH/pTIHij/FX3zblLZ64nbscMfHMBW13lnR4jXXx+G+WGt33di1VWMjyIoEerSEsL7hGzTpaE4QP16TUcVl+uY41vToU6+vw6mOTZd7RfpV0jtkyi6ryi96+krqpsTxQp3lmOPUBqqqjfrpIbVKhNmG4iQQHHY+hUCISE+pXZFYXOR5Zd5nuqyBWwhqJr3Qii45ytYQXj8PjJ+oIbW9z8Dh0arpSPySFKVGi/kEaOyilfow1WVELjLuEjCw3LNEYH2tGrzYjXeH9rPBVTqgQYDwSvQnGMtzShwrKxBr3DNZjxsQ6Wst6LVGm+1Lxe/d4d0NznLfAXlmkmNGH+Owe5Q2fauINY0034b7IpvU0Hp4ehH5Vqeh1d2sWknmBqLJSBWy+6uWQaiJ9JkOjrmqNfeuLWIXLqR7e7b7Tj25SwXD0mmpWfWToS80auivMH5fNKqP5+p2icGSazlOgaCBBbVSTiDr19qATqWPBGAyL0bF6zsKiH1WG9TB021thpSUVfIInqKc59aWJ4egbWZY2jKBGPtVXkoXiK4OFiP2PTGAqvW1dWKWZXDbPMJsp4LSFok7pylkdVmvkVFkrvkpjezuPgauvjqKt7xvJb0gSbtOMmUHoLK68BuqwXW8+itdK0bJjMKxiqYKsNQlwL61nGDHcPEVlUUrOAuZ6FvKZ+vw8KLIG05DHaGpiYcqp0HWygecUAaUXwyjz+qqasvRSkJYuPK6Or3mt0/7cl3vQTxYFs6hxWdu0Iz0k9XyhbMSz5TrOK/JEh9M1E7JIRiuP4mOzpFLRKNgU7vXr7wwOwpXS/RozivKWrqHmtS46rrY8FO5rbZVAkgsopPoG+pML9384gsqDYLnRAsOTRcbECVeYgNAx43H1K491V58Eq0/dGdFPIMxJbAQXwgj7yQUxEs5Bgi0cqx6eJrZehHAlYuTC+uDPfNTjb4JLQQTvJKRVWB3DIuZfS+GYYUvP1ncNHf0doRvZ2ifr8+HtD8eZP6pIVDEq21nn1rwqVFZ2mbA2VAySPnqTStuYPfXPSsX+rB2ZnuGYiJcAAMxgSURBVPivTfaWk+1R31eBqZnIpin71petrvuJLuwlp7AZjiwpdZ9pdWa1AOWXYTC8GEZ0aXpQfCTUbKrO0fXwzIPFUVvCYn0l/fXM0vFH+/NJTxYe/Wm1msKiF7NEhQgb9WjRaY7Owug7a9sViMWH6ZhSHwMu1TdaZUyfip1GhhbhTTCbjRND8TWxYpHSDFfSq75gr1kdwXod6FwlSpWYFrY6D/PYesOOHrVaViU7nHakn4I+BMoQ5Nv0rLbnQrgKpaB+O7bAnMA0CuesFfIT/vRvrj5jceVc71QB8wiWHlrDnKWmRPnlUvCkqWZCGmlfW8fjhviFa2zXQv/0pHVZy2P0Z6sVXu+ywtGsfuyTHwqOvz1fpuaKYO3hXuqEbz5sD2eJRvUdq2Kr92TR4cTyRaj0zVrBh5Wwnc4qf8oZLluW4g76k2VF+cuawcIGcxJG+kRElg8S4TV2bZQfCqaUhBOPEfv1SAxpc4bx4HYTHHWREURIwiDlYjjBei2s+SwdOhQHYRHia6KnHg/1a1J80yZa6s7+4nlQtNjbXHWLk8VP/aA45XHMemPNcApTTzfUB/XzD8cPx4xpGeIfwua/pZFGsVe8de42Qr3Fc/7oIcM0CadGj3eFPu++ITUaiIIm0rjcf5vjLDzKmHTKoMp9muWkMSPqxpKzDXI99F0Rl/qu0X5yvWtFX7/1A/ehd2uc1aS/z7Ap/kX6+QqeGuizEFD8LI6qTPXX60dzA+zRQN1HP499FxWnUMHOS//4vx39DkS01HvW/O05H4UbBFbcNC9aqTMeOBYhlEb6+uuZ7/HYM9OPxvWaKk4hpW1t42bSM9uzMcSxhwYPfdbbfH2Zk4altyH6XDDfzpJCqAdDJS1nVbetUAUe6VPhatZc8Buq+7AqhGFzYQvr2RBO8KtwLCwd0IQF8zFd3C8cp769IVz9Wjj0G4RP3Bb/oj8Rl/Vbt/LUjxec5sPq4BSWBErdctNoiQor6ufAEDkTzk+LvXHoJawJce1ZYpzV3KUyjGssfG2ZPz36ZACd0vd+DShF+iD1FPtIiMb5+dF/H8dxHMdxnEVFjwbpmYbJ/EhLLfV3asJqXBacs6njOI7jOM4SSV2zNEoW6ZdGTSOX1jgWb+cqet3VOjQ6juM4juMsWUS9opc6ZMDRSwUa96tarZiGadQ0cunYZNXYbNW/Cav/suM4juM4zpLCguiYRpfWGwjR6TMC83PhzYmBiWYkx3Ecx3GcRU0UNXrhpVfT6G1Sfb4m27OuxzUqofk5C1h/9XnHcRzHcZwllV65Yuqlj6aRm+dtL7EgVpwYQJyXknIcx3Ecx1kc9NEhPeJnYD3jisVxHMdxnCGFix/HcRzHcYYULn4cx3EcxxlSuPhxHMdxHGdI4eLHcRzHcZwhhYsfx3Ecx3GGFItU/OiFM3eD1wX6rY1f6x2A+W9xHMdxnMXHIrb86MV7d4PW1Wr8Da6PABpwnfZxw6LjOI6z5LGIaydVis7gRAInCqFewpp4XcO0r4/AvHs6juM4zuJhEYqfYBFIIXE3KJ3gby1Td2kuablX1oRlm+Ucr3Ut6Vl2HMdxnCWFRWr5CVWkM3iJQkeOWYcCyOYpgFImgnq3ih6LkAsgx3EcZwliEYqfUC363+D8s+sXrTyamqCpL9PZYo/IiX2AepEvx3Ecx1kSWKSWH6sPreJ0N/hcuIQ2oze8uKphZcDWRexih9k+6x3HcRxn8bJoxQ8PF2wC7gabQ4rTVGIO5qphHloXxJDJnbrQ6ZFF/Zcdx3EcZzGzSMXPPMYEd4PHSb6YyKHokeCpL5vwsaVeeRPWSCxxR8dxHMdZwhhQ/KTeotKK22o1VoGJnvx75zXNZEKQ1WrV/MolCatC20/+Q9XobpA5EzpVTqPlpy6AtDVafjgtVypIZTKoKD/YRv4Hb47jOI7znhE1idFT76j1Yt5KaB7xIwEjF2mc709/kaTl6D0Kn0itlnCZ69MUQu4Gn6OwsetXv64919emzEacVqsJ0mllqRSy2Sz3y2gWVeaJKHsdx3Ec570g1klhIUwEa6n6XC8DWn7EPCKoXnW9lRgScT+LRJ2eWRv3xd1gdBKvUjC1JFxfLVqWoFOWqCUpZDJZ5PMFJFQ7wckTuL5PPnQcx3Gc95YGqRL1SyPziJ/Gp/robD3/5id8oh8RhY9c9N8bDt2AHUrcLekupUENaxm6LFIJneYTrYvr06iUqqhUEhM96VQaaVl+xMDZxnEcx3HeFRp1SH+kX/rzPzV7NdJ44Dgf+wFp2SwFrCyRsEJ0N/hclYJHrpILUzqtC+spgHhtWwqtyFAIZTP0I7Esyw//LTcwG80/azqO4zjOu8AAmmUgy0+qXC73WVupVGyqPhuNJJkuPPnyAzj7wpOR5Lowfo0xaBvBSi6VsOKTZSD4k9hJZ9XJWZ2e05jwwkR0zipjxZEfwP7bH41caUTw6AwqwgjOsvJoGi62OjhrzlZxLqmWUemu4sn/voQZM6dh/KqjsN/n90YqRw/zbWB1HMdZAGJNZZVNb3UWHqq0VEXnjBfw2AN/ZHHTjTXX3QKtw8ZyS45OBVDcwxl08CIntdCntFapIZPO8GpyGSV0zHoNTzz2KMpJFhtusiNaRq3BLe18+NZ+qnsq3LdWr7tCbhHziB8um6Umip9ouZH4eWLC/fjWd08x8bPSmmPROpxP/QOIn1QmvOGVJBm88tJkzJ7WjaULq2Cl5s2R7x4dPDqDDjVt2ZTZzooeXvREAqheGOUyQIYFTaXIGWa/1dZeFnt/dnekmJUSFkw9zWCO4zgLS6ypXPwMPRZC/DSPXL1H/KTkP1W2K99f/KQlchbEZViDNWYdVYBp/ja2pcXmLkUqiqZMmkKomqDY3YUchVKOKszd4HTZdJnTEqel+pTLqQryzFx5LqeqXagWZ6KVQrmAOVzuYEYNnZ5d+DiO4zjvFVGrpDLUK5kM5zOchhdxsnINesb8UaT0kcOV+TR7VdGFx165F2ddcCJq2S6svOZYtA/PU+hUTFHpTyGZHk/rN8VJDi8+9wZmT+3GyqPWwkE7fhmFYls9RGewYepZvxrnx661BA0Fr8b/4VKNeactn8f9t9yMKdOmYMwaq2GfIw63171kDXQcx3nHqAASbvkZevAiv53lp4o8Nt5sZ+SHr0b/7T2X28anYwDBUNNbD71j8bPKGmPRNoLip0bx0xBwIlsT81nCUCV+XnruTcydUcJqS62Jr+17HAql5hCgM+iwjKJmTmY6dfRRoWIwczEjMZNwTVLBrdf8Ga+/+TpGr74mPnXMscxMBRc/juP8b8SaysXP0IMX+d0WP6ETx7tIbPoSUVcpwiam6pnW3WB2dewyx+UwzefzZm40eO3TyguWH1hQNezqOI7jOIuTd1X8RLHTXwCZ5qrXg2GkYHeD0jG39F5HXdN4XcO0XC6Z5TBJwqdNJHolfBrzg+M4juMsbt51y4+IFaOQ+JG5yqaJXjmruhusjqJGYzcF1zhPx2ssq086zWvPXKURoeUnIAFUn3Ucx3Gcxcx7YvkRjQJIqIKUJUCVo7vB6HTtBrp+vevD99u4TteeywE1eXmbl+M4jrPk8K6Kn0ZrT6zw4jpN+1gK3A0yFyw/tYb5vi5BtVpBQhevt0RRQFa/8Mq74ziO4yxuFon4ia7XSuBu8LkMMjbtvY5hOazTeE75XM6WY5OXfQxVeaCeDxzHcRxnSeBdb/bqb/HRE39cp4m7werCtbVrWXd95pMaqlWN4qzmr9DJOeQBbu+ZdxzHcZzFz7sqfhaIGitBd4PW8TdATdND47zjOI7jLOEsQvGjatPd4HULSn+/C7Ov4ziO47z3LHrLjzO4kQVoHvoLJM6bv/o6WYbcOuQ4juMsISxC8RNrQHeD0zXQI2wanajP9/Peu91xHMdxFj+L3vKTYs3obvC5cPHqTtRFTtwUt8l7WOE4juM4SySLWPzE2tLdoHMmgOQcx3EcZ3DjfX6chSLIn7ptp49VqI4ZfxqFktuBHMdxnCWLecSPjd1Sp2dcF83Haq8+XkvjNtE4P3+0r7tB6fpcXq0TGsSQjgKoISdwOayz7FWji8E4juM4znuE6ZA4plxPpZTibG8NFZlH/PQOTtdv/t2qvRQHd4PPGWGhdxV/KXRixgq//XHV4ziO47y3RK3SQ8PiQPplQMvPQBadRuXU/yD993Ecx3Ecx1lU9OiQqEUaJEmjfonMI34cx3Ecx3Hez7xls5dobPaKysqtPI7jOI7jLClIq+jD2pyprwgTMWCzV6OgmZ8TnLOp4ziO4zjOkobplahZ9D5OHemX/romrS9xL4hLUO3ZqT/9+wA5juM4juMsKpIkMSfVo2nQLjXOz6tn5Baow3Nc7j9txAWQ4ziO4ziLm0atMpBeEelsNotGl8vlBlzOgC6TMZHT6CIufhzHcRzHWRxIg0ijIJW2aTZHl63PZ/rqHDl/28txHMdxnCGFix/HcRzHcYYULn4cx3EcxxlSuPhxHMdxHGdI4eLHcRzHcZwhhYsfx3Ecx3GGFC5+nIVEQxoM5BzHcRxncODix3mH1EXPwONHDYz8/i9uwJWNznEcx3HeHhc/zoJjBp6BREZ/ERKdiNP/kR7j0rsUnuM4jjNkcfHjLBhRfPQIoLpL1cKqRmHEdX38RCc/79T1EBf6e4jrHcdxHOetWfTiZ6A6y92S74xGEaOplkV9vRGndXr2Ff22LRSN+/YJ1HEcx3EWikUsfmIl6W5wusj81r8V0V//fRfURVz4OI7jOP8b3uzlvEtEUdJPnPTolndDtLjwcRzHcf53FrH4UeXl7v3mrNePiRwtk1rf7e+ecxzHcZz/nUVv+VHF6O795QYUKv2d4ziO4ywZLELxM1CF6G5wOmWbRte7LUlqSKXSNs2kMxRHXN3YZeddolar8RiJOc07juM4zoKyCMUPq8ZUyt372EmIpNNpZDIZEyTVarVHmFSriU3/FxqFjo6nY8lp3nEcx3EWlEUqfuKTurvB7qoDuqBBgkVGIkV/Zvbh+kzmf89qMfz+rlYLcXIcx3GcBWERip8an9L1tO7ufeUyKWTqUy1HISSxk82q2UsWH7l5RcvCOomfgQSQ1skCFJYdx3Ec561ZpJafWq3K6qni7v3kanJq3qqqxw+FCMVIWiKkPk/9IwFUrVZs+s6d8g6FFY+X2HxijhuUtQaYOo7jOM7ALFLLTxgRWBWWu/eVS2karm8mqz44NZQrRXN2zSmGMhmZbep54B06GX3SqZQ5zZsRqA/05ziO4zhvwyK1/PQIIHfvL2fXVdadMiqVkomffD5rgqdWLVEfBQsRoH4579RFsVU/npZqjdafsM5xHMdx3o5ULb4+U6dSUSUFZLNZm0aq6MJjr9yHsy44EbVsJ1Zecyzah+dZ5VQYiJ7EWdExJAsuo66uXJNk8cKzr6NrVgVrjlkdh+7xWTSV+obrDH6UgcwSw3yQo9C55+brMXvuXIxZbS1s/4l90VUuI5XL0WMygLVmwVB+qiEThhXinPKZ1mSzLcg1jUQ218r10R70To/iOM4SS6yp6g9cPYv2q6UqOme8gMce+COf6rux5rpboHXYWG7J0XmfwEENL7IedtW3s1YJw6jowTeNEjpmvYYnHnuUVz+PjTfbGfnhq9F/e8/lrqX08Bw0SswtIvXGG2/05Ai9Mjw/8ZNkuvH8xEfw3Z+ejWxrBSuutgxahmUZGWUrZiy1fnB/e8vHLAL8r2Xx4nNvYNa0Lqy61Fh8crOt0FTWk7rzfiRcdmZM65PDoiiVQaIxf5QvevPcO0K5LGHmrlSrSGWZ6VMJpRAwfOSKWGejvZnv2pFKK88qBoFwyJ7sTf7HSDiOs/joubE14+JnSMGL/Hbip1TNYK0PboZ00wpI0sO4g+oC+kpVbPiVpCLt0VsHzGP50dgscQyVRmT5+c/zd+G8H5wKFLqx4urLMGNlrXNrigcJ4idkMBM/IkXx8+xrmDOjiFWXHouPbbIZmitSYY6zcJjEThcsb6WyFZRLXUhXKxgxahWsuemn6WMUnTJ2f/ETxXbY5jjOIKXnxtaMi58hBS/y24mfVLYF622wDZpGrIZUZoQV/XbF0/Ox/CQaireBspooKH6i5ceaF7hcTXXjiVcewNkXnIBqtgMrrbEs2kcWFILyXB/xo3xmFiA+m7/03OuMXBmrLTsexx30FRTKXgE5C49yTY1iJ5VOUKl1YuKbr6Bz5gy0jxhP8XMANzKzW/6zHGiEnObix3HeF/Tc2Jpx8TOk4EVekGavDTfZEU2j1uQObT2Xu2Yv5GhGP711wIB9fiR2ZCZqRJafJ159AGd+55uoZDqwylpjTPzo9WNZftT0FULiT138JLU0Jjz/BrrmVLD62NVw+hEnIV/2Pj/OwqPX6C1vZai0kw688MxjmDllEoaNXBFrbrI/aslwap/eYlCEJRc/jvO+oOfG1oyLnyEFL/LbiZ9KLWd9fgoj1+AObUjoj2IGKdYZCfVIxsZd6a0DwqNyHbPWDOBsG52MRFqWOErVm8WiH64akOg/k439P9y5ewcOWWZ65rkKxTMzeanMoq6qPKiO1JwyjymP9i3e5l3jOI7jvP+QMJLWiISBeDWn4VFknOmra4KCqWOiZgBn2+w3+FGgcX2EYfWZzgMPrlB0SHfuFt5lqOCbmIcodtT3p0YVTyVPaa1MOf98Zzm3b151HMdx3l9EUdNTGTQU+7IaNWoa0zH1bT30BFCncV5E0RO/3xQDivMi7tO4LEulvRLPp3R37t6JqyWpYMrUvLKumrnqGbxuiDS0qr6acE6vmv2vr5s5juM4Syw9L2nVdUcvfTVMZB7xEwVLpHFZIkbOmr8am8Dqfvrv24gJIhM/7twtvJOISakfWopCKJux/j3Kb/ZBU6r6QL1fUA9hP8dxHOf9TdQnrBTqK8JEdYCavfoz75q3oFfk0Fl7Gp/A6wcMFZFMS+aF68JUhHlWVv7nf+/0T3m6WkE6m0K1UmS+luUxfEA1iB4NoMh8GHN8zH8N+dBxHMd5fyIdYtafKEJ6nnsHrgQWSvz8bygCcqGicuduoZxeV7S20/7LddeTv+TqNMw6juM4TmSRih8NM11LVdy5eweuSpETB5SSAJqP4HEcx3Gct2HRiR+ZoPiErhF63blbWGd5RyJH847jOI7zP7AILT96I0yH00BD7twtnFPeUd8fKiFzcd46Q1u+MnVdd3Vs1sWS4ziO05dFJ3700K7aqF55uXO3MK4n75iiYbbtJ4b6CKAevVO3FEXnOI7jOGTRiZ869erJnbuFckHQ1EVPg+AJQ1XVs7EEkAmkiHaqd5C2eRdAjuM4znsifhoqH6uIepf94dt5p4RcFDNQ33z11iyoP8dxlmjstg9lgAa1iOVAXBOdrbFZVW+ZMLV5LwsGLeEiE11dLuhS1h907des+/Eht07IHvU1DevrvAfiR4RI9WDHZaT7rXacBSXkncYMrnm9PVh/A0zUM3uPs+ytPkMxm9tKx3EGHbrnw70e7n596lgVoe5prQkW3rBWdzr/9AmcJMspXU85EAsHd4PNhZH+64u68lyuJbqmvXnDnCoLrpJISuK6AXiPxI+oR1rxCrE1tOjO3cK6/kvhLpBjxu7NXnXqfnqo50XHcQYx8b6etz7pnZMLFZ4qvxQflmpyto5ruKu7wekMzdu1jYQNttzTtBRkTd0GSKLo7ct7KH4cx3Ec591AlVejFTesiS4gccOKMV2lq9BrkdOiTZEu0WODdcDdoHM9IjY2cXGaojNhZKM6Nzh5sTnml1omTG1NLy5+HMdxnCWfUMvVK7VGVI31NmvFJ36rLK1pXJWnrenZ6m6wuTr1T1eEqxl+e5fls75U32HevNKLix/HcRxncBBqN6O3YtNvli6HWi1Plwvzto6iqMapnv4pntLc393gc2bsiR3X1ZerR7pwQw/RY8Xm1f8r9AXSchTAvbj4cRzHcQYRsWILqL6zes1EjpxEkCpIiqJ6hxE1e5jNqL7sbnA5Cde+zq5uHc3JNciZHmtfo7++uPhxHMdxBgdWkwW1E9/sMkI9V68oZeXRm0HBT1p+OW97cQd3g9Dx2nGCNDVNtAZR4eqf017rXpjKOiRpIwFcd7asEHpx8eM4juMs+fTUXVbj1V0jFEP1J371/kijwuUS54NL27TsbhC6tF3HIvNAkdeRUzq7tile42gFlErikv71E3NHzdbPS6pcLvfJQVxmgClks1RQpCb1zOUk043HXrof53z3JCS5Lqy85rJoG5FnCMxwSTBF1Y/KONQVGbJ48dlX0TWnirVXXAsnf/lE5Mpqj3WchcOycsICLZMwb3XjqScfQseMNzFy9IpYY6P96GNEzH5Ema9/hh9oneM4g4XeikoWH/XlqNc51sTFCpAVY8f0F/Df+/+C5nwF41ZaCYWWNlaWTcGPtY85gxOJWeqTStnyQaFQQMJLnlTLmD1rKl57/U1UkjzW33A7tI9eA6VyHqlMgT7Ttp8ESW/H98A84qdSkVpOIZNRhgpouZruwuMTHsC3LjwRtXwXVlqjr/ixvJcKhiQXP867jYsfxxm66O61KoWEJ/1q/W5mnWNNGhJDXSwTJlD8XMeyYg6QyyBhnVQtqT7Lsn6S/xiKM5hQ+Z8kVeQL1A+8kHPmdvKa5tDUVECp2Mmt1CvpVqz74a0xYqnVgcww5pIst1WQZR7IpJVr+oqftETOgrh0KmMiSK4/sg45juM4zntJEEG9MqgXzrOOCm94tbBiG45KtYnTdqTSLayj+KDe0yHa3WBzNbp0Oofu7gq6SzW0tA5HJteErqIEURtFEMUO/bS0DmM2oH8TOgly+TSdhE5CHROMOtGlKFz6KJeBLD+iSlX93wn3meUnyXX2sfxIdFsPbLf8OO8RbvlxnKGL7t7o0mb1qd/PsSMr66Ga+vQkneiY+DKamtMoJRrcMI20OkDLl70ipErRGXxQzlCb5Jry6OoqUuCkTac0NTfjiUcfxee/8GWksi248Ps/xZbb7c7r3Mw9wnVXfgnU80qdecTP/Pr8VCh+Hn/5/h7xM371ZVz8OIsMFz+OM3TR3RssPurMHO9k1jdaJbiiXGPlKBFUKnET/bGsQMLKKc06R/5C9eQMVlj+90BNUqvoOgOPPPAgNt9id7P13HTLDdh6+11QkiZhnkjTZU3wxgwQco7w7OA4juMs0ejhp9epAmsQPkTVWyqV5VTNW81ApYlr2uitndMWbmzltJW7tLkbhM6uJdopeHQth9l8KjMcqfRwzOkMth25XH4Y/TML8CfDLCLxU6MATiplru3LPOJHVh65SJzvXaOAG3Id6b+P4ziO47ybqIYx4aM3i62Gs9U9i13VYhBBuQxrwRzXZ+wF9yrrpprVT2GgQ/8bfH929dVpOUuBy9kyNUiSzto1LlZ59dNpXvsUytXQrbnecGWdpFPpGtJZhdFXt8wjfiRsorjpM2+/juM4jrPkUcjkbapXoGNVpxd1VBnKGVrpbvA5olYv9azRYppCSFNd10JzCyrcKJtgUuMa+eN6c1G/UBT1Z0DLT6TRohPX9lh9GrYJt/w4juM47w2qX+RYZcXZuquvRZZzek0nraf+ujctZ7kgm49R38fdIHNETVia1bWWk7DRdU2odnv7gyXIyF9dAGmIA8sZNuZPPaA6CsNxHMdxlnD6Vl6Ni5q1CtGWCGc03+icwU//a9r3ukYBpPVhGuiRS7YUcfHjOI7jOM6QwsWP4ziO4zhDChc/juM4juMMKVz8OI7jOI4zpHDx4ziO4zjOkMLFj+M4juM4QwoXP47jOEOEalUfAeiLjZNSq9l3HUWcCm0TA+3nOIuLOACz8mcu986+F+rix3EcZwgiQaMKJJ0OX8iOlYimlUqlZ5v8ZTIaLtBxFh9RlCtvKr8qb4rOzk6bLiwufhzHcYYIscIQjaPyq2KJ1h09TWezWdteLBZN+ESh5M7d4nJRnMd8qzyp/Kz1jfl6QUkx0Pr3KgJSVUKZv5EquvDYy/fj7AtOQJLrxEprjkH7iDxq3JJKqML4F0OqpRRZzWXx4rOvomtOFWuvuBZO/vKJyJXfmYnKGdrYl1wSPolmZKLvxlNPPoSOGW9i5OgVscZG+9HHiIYBPJX5+o7mOfA6xxlaqLhvFD1C6yZMmIDf/e53JoIaK5I4H5u/HGdxIn2iPJnP59HV1WVT5d3LLrvMtt92223YdtttB8zn/XHx4wwKXPw4zv+OivvoYlOWBM+DDz6ILbfc0pbj+mgJcgHkLClIl0QrpJDA0XycLoz4WXhbkeM4jjPoiBVCFDOxApHYUfNWrCxUucjpqVpI9ES/jrM4iX3RlGclhGKefif508WP4zjOEEOVR6w0JIbkYgVy66232vyMGTNsKifrUJx3525xu+7ubuvorPmbbrrpba08A+Hix3EcZwgQxY5cpLEpS9slgjTV+paWFlsvK1BsCnOcxYnyoqw/svrEtxKVTxvz9IIyj/jpH8j8bpRIVFzv5OCO4zjOoiWKICFRE+c1jU1cjZYgFz7OkkJs7hLKn5ovlUq2HMV7IzEPD0RaymlBXLU27yBXCvitAnccx3Ecx3mvkRbp0St1C1H/aaObx/ITLTmRxuU+21z0OI7jOI6zBBF1Sv9pf9IyGzW6aFbqv5xJuenTcRzHcZwlE+kVNX1p2t816hq5AS0/jUppfqqpP9785TiO4zjO4mRB9cuAHZ77O1tPN7+Aoh/HcRzHcZwlnXnET0RCp4+CitO3UFKO4ziO4ziLkwXRKf9Ts5dbfBzHcRzHWRLo32L1Vgxo+XmrHXu2URTFd+olkPq/X+84juM4jrMoWRCrj3DF4jiO4zjOkMLFj+M4juM4QwoXP47jOI7jDClc/DiO4ziOM6Rw8eM4juM4zpDCxY/jOI7jOEOKdyh+Uj2DHr4dNXmk8xGBHMdxHMdZElho8SMx00fIcCEIoRpS81E4Lnwcx3Ecx1lS+J+bvaIFKE7nq3R6PDiO4ziO4yw+vM+P4ziO4zhDChc/juM4juMMKVz8OI7jOI4zpHDx4ziO4zjOkMLFj+M4juM4QwoXP47jOI7jDCkGFD+p1PzfS6/VatBfkoR32tPpFP1rvS3avr0urNM+juM4juM47yULqjfSJmbexokYnERNui5stK1aTcwlSTLPPuY3nUYmI5exdY7jOI7jOO8l/fVI47JcWqIlumq1Ol/HragmVQtESNhEosCJ6xRwCC8KI4mk3n0dx3Ecx3HeTXq1BzVLg6apVCq23Oj6WH4ijfMiLvf3JxpFkOajtSc4zYftjf4cx3Ecx3HeTd5OxzS6tJqj3s5ls1mkwfl0xkRMvzAtoGDlCWpLrj/y4ziO4ziO814gvRJaooJuidM43+jS0VrT6LRz47LQb5yPBL/Bqdmr1+LT24+6UWk5juM4juO8V/TRLQ2aJa6Pbp63vfoLlfnNx348lYra1NTZObz5JWIYWqeDSBhJeTmO4ziO47wX9GqPXq0yP+YRPxIrjcRlCyojhaOZFKqVGrq7KujoLKGjo2hu1uwuc7NnFzFnTgndnRWUuqpIylXUKJQcx3Ecx3HeC6JVZ0EYcJyfgUmQpCtIUhQxtTRefnESXnhuIp59+g28+MJEvPDCG3j2udfx3PNvYsLLM/DsM5Pw/FNvotJZQ5q75NOM1AKoMcdxHMdxnIVlQSw+kYUQP2kk5RQK6XakS83IVdqR6mpFIRkBdDYj6SggnwxDluvLc3NhvlxArpxFqlhFqlSxfkOO4ziO4ziLkxSVUh+ppPfhRf8+OgkqmDL3Dbzy6ktozTcjk86iq9yNfD5HuUVhQ2VTSTQeUA2VWhXNhQxqXTPx2svPYPLUl7HCuOWx+YY7IpUU6iE6zoKTUsNrotcT1b+sG089+RA6ZryJkaNXxBob7UcfFOE96lpZur/UHmid4wwtVNyrWSBO47o77rgD2223nS3feuutNt/ox3GWNGL+vP3223vy7m233YZtt912gfLuAlt+9Kr7sm3jsPGaW2Dt5TfE6susi/VX3Axrj90Iay+3MdYaswE+uMJHsN6KH8GGK30Eay/7Aayz4vpYhfusNmJ5LF0YgUyyEIYmx3Ecx3Gc94AFVyMJ/zuqeP2BxzHt/sfR+Z/n0PXQM5h650OYfvcj6HzkOUy5+2FMvee/mP3gM5h571PofOB5TH/kNcx8YhKmPP0mA3Dx4ziO4zjO4mWBm71qlRom/uu/+NbXT0ChM0GeYkgdmLO5DErVorUopDMaBDGNarmCDGrIZ6ooJ52oNSVYfv3VcNh5pyLJ1QN0nIXAm70c538nNgc0Ngto3pu9nMFGzJ/vebOXLD9NSQqZ2V0YhSyWTRfQXipjNNePrgLDy1W0F6sY1l3DyFIOo8vNGNbVghGlESjMbUO+uw21qisfx3Ecx3EWLwvVDpWUKhje1II0pyPzrVhh2LIY2zIaKwwfixWHj8P4EcthXOsyWHXUili+fSy3j8Pw7HAUas1IVbKUav4U4TiO4zjO4mWhxI8+W1GuVLlTFoVMM4Y3j0ZLZgSa6Vqzo9GcHoG2/EgU0q1ozbWhJU/RU6uBP0jReauD4ziO4ziLm4USP7WUdfTRHCdppJMs0rUcMkkemZqc5rOccht9WT8NaGTnChe4ry07juM4juMsPhZC/Ej4SMiU6TilmJEhJ13TB8L4x2nG5hWotkXRU3ead/HjOI7jOM5iZqEsP7LkBMf5eitWin/65Jd99kvTnm0Nf9bXx9u8HMdxHMdZ/CyE+KGISdIUMhnOhUYtuWDpCaJHL8fLAmRr6Q81jf6c5z5N3DfP+YU4nOM4juM4znvAQqqRIHiC/SddnxJZeuoz9TX2q8av6C8cyq0/juM4juMsXhZK/Kj1KkmpN08aVU3r81qXaBv9VKmCqqkE1XQ1uFT4EnxN/YWCQnIcx3Ecx1lsLJz4MUtOsN5EG8/ATn8izNUoi+xNsfpax3Ecx3GcxcU84kfDQjfSZ1nztQQZ6p9cKoVcOo10iuKG6xJuCz5Dn5+0Xne3t7/0Z92ebavjOI7jOM67Sfxsy4J82kIslOVHAUrISAQl1QqqlbKJoXQ6hUymN6jwtleQQaGlS/vUp47jOI7jOO8i0ifRiSiE5sc84qe/Ympc1nwmk0EmrXe7QuCRtzqI4ziO4zjOe0WSJOYi/YVQfwa0/PQXQJFSqRQCrweqz11oqoCrDQd1HMdxHMdZVMgwI02yoEaZ9MSJE9Ho3nzzTXONy5rOppP4KVfKSKrVPoGawqrPO47jOI7jLEqq1CWzZ8/G1KlTMWnSJNMtU6ZMseVp06b1aJro0mPGjEGjGzdunLm4PHbsWJsOoysUCshmsn0sQ1EEzc9a5DiO4ziO816Sy+UwbNgwjBo1CksttRSWWWYZm44ePRojR47s0TTR9Wn2kpCJ7Waaj66+0cSPTEuNTV6isZ3NcRzHcRxnUVIul02LWL/kehNY1CmxOazR9RE/8hQFTZyPy5wxs1KlUkE1GaDZK/pzHMdxHMdZhEiDSPREJISkWUTUKI1uwA7Pb4V2ijQKoMZ5x3Ecx3GcRUW06MR5WXsaxVB/Flr8OI7jOI7jDGZc/DiO4ziOM6Rw8eM4juM4zpDCxY/jOI7jOEMKFz+O4ziO4wwpXPw4juM4jjOkcPHjOI7jOM6QwsWP4ziO4zhDChc/juM4juMMKVz8OI7jOI4zpHDx4ziO4zjOkMLFj+M4juM4QwoXP47jOI7jDClc/DiO4ziOM6Rw8eM4juM4zpDiHYmfFP8itVrNnOM4juM4zuIilerVJm/HPOKnv5BpXHaR4ziO4zjOksjCGGPmET9STo3q6e2UVH//juM4juM4i5qoRxZEk6SjUmp0SZL0WTbidD64AHIcx3EcZ3HSqFt69AuJ66NLV6tVvJ2rVCqoceo4juM4jrMkIr0i403ULXEa5xtdeiAzUX8rzoJYdRoVluM4juM4zqLk7XRMo0sT/ZjLZDLzdSm6gYgmJMdxHMdxnMVFXdSYZmnUNNlstkfn9Lj+amggVw+1d95xHMdxHGcJpb+GaVyWG3Ccn7ez5NT4F4kBOY7jOI7jLE4WVI/4CM+O4ziO4wwpXPw4juM4jjOkcPHjOI7jOM6QwsWP4ziO4zhDChc/juM4juMMKVz8OI7jOI4zpHDx4ziO4zjOkMLFj+M4juM4QwoXP47jOI7jDClc/DiO4ziOM6Rw8eM4juM4zpDCxY/jOI7jOEMKFz+O4ziO4wwpXPw4juM4jjOkWCjxk6rVMP+PxafsD7UUgq/o9Jvwt1Z3juM4juM4i48BxU8qNbDESVO8ZFI1pG1zEDI1CiL+1GWO0Jx8pk3yUDGZ+AlLLn4cx3Ecx3lvME2yAMwjfrRj48595iljguM8NU50gXn9SQhF/47jOI7jOO8VMtxE93bMt9mrvwiSgpH9pkq1k/SIGpNBFEBJz3wgTqWOZPPJIEnpUG8fIcdxHMdxnHdKH+0yH+YRP43KqY+C4lQNV70ipscGFFyqdz5Ko7CnfkMzWJh3HMdxHMdZfMwjfvpbfPrMm6QJc2mul6TJqg9QfVlbrV+QnLbX15no6W0fcxzHcRzHedeZn37pT7pSqaDRVavVAZdrlarJGBEtO2bL4cq0xI2t11/YrsYut/c4juM4jrMokF5JksSm/V2jrpEb0PLTSO+yLEK9r6yrNSxYdeQkb6LM6RVAwSVv84q84ziO4zjO/07ULP2n/Ulns1ksiEvJaQ8TMlH0iGDnCU4NXprGrXEu+nUcx3Ecx3l3Uf/kqFcymcyA00Y3j+Wnp4NzncblTCoDJDUkdKl0GqVqBbUUxU4qi2qN21I5ySlz5aTKSQYVTpNaEsJxDeQ4juM4zruMLDxq8mqkv55pZB7xM39SFD8ppOky2TSq+kslKKeqKNUqKNN1VoooJmUUa2VUMzVuqyCV5T4ZHcaVj+M4juM4i58FFz/SLkkNNSqrWrqGueUOzK12oCPpQFetE6VUka4L3ejC3FoH5iRzMb1rBoVQEQnUwahM/eQCyHEcx3GcxcuCix8Jl3wa5VwVc1KdeKNrIl7pfBUvzn4RL8x8Di/Meg4vzXmBy8/jOc3PnYCXO17FjNpsdGXLSAo1pFz8OI7jOI6zmFlw8ZNOKHo6MLvQiRlNczG9dQ5mtM/GlNbpmNY6DVNbppib0krXNg3Ths3G9PY5mN4yF7NaOtFRKAKZvu1xjuM4juM4i5oFFj8pCpfKMM4s1wSMb8LIDcdg7FbjscJ2K2P8TqtiZboVth+P5elW2GFljNt2JSy75UoorDMCyfIFYOm8heE4juM4jrM4WWDxk6QSzGzqxpzRFcwcVUJ5pSwqq2ZRWgUor1xDceUqyqvWglstbS5ZvYDZy1YxbUQ3OoZVUM5U66E5juM4juMsHhZc/Kjbci5BtRXWhFVqT9DdVsbc5m7MbaFr6kKxvYLO5hK6W0r0023Lc+m3s1BGuYn7pr3Pj+M4juM4i5cFb/aiy/A3qVRtrwr/9Kq7XmVPFEo2jUo1jOeT0jhAtRqqScUsRulcCtUa9/MOz47jOI7jLGYWWPwIaReJGr33XgsL9r3SsCbFeUmkMKiQfoPUCb+9U8dxHMdxnMXHQokfx3Ecx3GcwY6LH8dxHMdxhhQufhzHcRzHGVK4+HEcx3EcZ0jh4sdxHMdxnCGFix/HcRzHcYYU84ifmr3KHtB8XI5rNY6P0bBNNM47juM4juMsSqI+idNGDdOfecSPDVLYEEDPvP06juM4juMs+TRqmP4MaPkZyKLTqJ36B/ZW6spxHMdxHOe9JmqRHt3yFrrE+/w4juM4jjOkeMtmLxHn9dtfVTmO4ziO4yxupFXS6XQfDdOoZfqTbhQ083PC5Y7jOI7jOEsijZolSZL62l4at8ulq9UqFsQltWrPTv15K3XlOI7jOI7zXiPRY3qlPo2uUqn0WZZboA7Pcbl3apM+uAByHMdxHGdx0ahVGt1ApLPZLBpdLpcbcDmTyiCTydTb07inTXsFj4sfx3Ecx3EWF+rz06hf3sr5216O4ziO4wwpXPw4juM4jjOkcPHjOI7jOM6QwsWP4ziO4zhDChc/juM4juMMKVz8OI7jOI4zpHDx4ziO4zjOkMLFj+M4juM4QwoXP47jOI7jDClc/DiO4ziOM6Rw8eM4juM4zpDCxY/jOI7jOEMKFz+O4ziO4wwpXPw4juM4jjOkcPHjOI7jOM6QwsWP4ziO4zhDChc/juM4juMMKVz8OI7jOI4zpHDx4ziO4zjOkMLFj+M4juM4QwoXP47jOI7jDClc/DiO4ziOM6Rw8eM4juM4zpAi/eabbyK6iRMnztdNmjIJs2fPRqVSQTpNzVSroVqtWiCpVIqLNZt3HMdxBh/ZbNamuVzOynaV6yJJEps6zuKmMS9GzZHJZGwq5syZg8mTJ5ubNGmSubjcX9Okx44di+jGjBlj03Hjxtl8o1t26WXR3Nzcc4Pwzui5ORQJFz+O4ziDFz3YqkwvlUo9FUp82C2Xy7bsOIsL5UEzvBDlUc1Ld3R3d9s65dnW1laMGjUKyyyzjLmll166Z9pf06SjcIlOil8uLktp2TwDz+fzdnOY+uI6HTwKIMdxHGfwEisTTVUHSPjoYVflvaxBsU5w525xOOVBCSDNS4sI5U0JHhGtlcqzmspFsaT5/uGlo6dGz1HUxGWbtwCClSdJeq08WhbxII7jOM7gQxWJKg6V6XqK1nxj81esE9y5WxxO+VICSPNmgKkjK9BAyE+jIad/eH0US/TU39k2OokeLdvOdbET/XCV4ziOM4hRWS6LT6xcYvOXKhHHWZxId8R8GXWJ1gkJ9WioiWhZ+df0Cl3UKtH1ET/RU39n2+w3+Emne9dH6nFxHMdxBjFqUlDFEfv5qKyPIshxFidR9Cg/Sggpn8YmWi1HYdMfbYt6Jrp52qr679w/IO0k4oFiQAMd0HEcxxkcqBxXRbLtttva/LBhw3rKd1Uy7twtbhebveSiVWfXXXftyb/R9WcgfTKP+Om/Y+OyApCz5q/GJrABDuY4juMMHhorCDUjxLdovLOzuyXJRaQ7JIBk9RGN20RsIhMDWS5T3KHPHjEgZf5GqujCYy/fj7MvOAFJrhMrrTkG7SPyqHFLKpEJSW8KBL+1lCKpuSxefPZVdM2pYu0V18LJXz4RuXLO/DjOwpBSrzMK7nRGFsduPPXkQ+iY8SZGjl4Ra2y0H32MkKc6ynz9BflA6xxnaBKbDESxWMSUKVPwy1/+0pYdZ0kkGlqkUSRmlH8l0DWGz6WXXmp+brvtNrNcSta8nVHGxY8zKHDx4zj/G7Goj5VCYwWhN2bi68OOsyQSBbvyrZpno0b55z//iT322MP6qC2M+Jmn2ctxHMd5/9G/MoiViJDw0bI7d0uqi5ZK5WMJH60TyrvvZBBOFz+O4zhDhFiRCFUmqkjiOs27c7ekOuVRNdFKsMsKFPv0KB/3b6laEFz8OI7jDCFUkUQaBZDjLMkonxYKhZ63vGInZll9YnedhcHFj+M4zhCgsZOziE/OIgogd+6WVNeYX2X9aVzvlh/HcRxnQBqFj2isUDQvAeTO3ZLqlH+VX2Nn58Ztse/awuDix3EcZ4igyiMKnvi6sFAF4jhLMlGgx+YuNXVpnZY1XVhc/DiO4wwRJHb6W4CEix9nSSdaeSKx7887xcWP4ziO4zhDChc/juM4juMMKVz8OI7jOI4zpHDx4ziO4zjOkMLFj+M4juM4QwoXP47jOI7jDCkGqfjRO/3B6Wvfva5Kl9DFv7g+/CHFfVIa40LrOGt/SoKQDGF/uThmQN2/vlLPHeSSFLeGnfWPNL0Ex7DqG2rmJ4Qd1ikchRmOqDgiVaUfunTCaTiG/Fo49Kl99HV8LaRrNTtGiKdc8BHOrR42XZrz8peq6bjx0sY0kP+wf5iP6+O28GNf5K8vpGsZOvlXmtbTRdsZ58TiHdIkhBHOgTO2r/4UHy2GM4rxcRzHcZzFS7pSqdhgQdHF72T0X67Wqg1DSnNPm2om8E4GGVporCYNFXCPU4Vcr3zTWc7XyqxmWdEmKVTKRWhIizQyXK/Kt4pytRspKoS0vgqbyGcOSZXVs8RKivtmNHASK3urxDVfYchVq7sraYaZ4YZ8HiWmBRdRq0gUhPAlXqyi1+iTuQLjkOVuWSQMo8b0y6Q4X9WxGd9MGbUs0zdVQjXN7fyzeCYZ6i2dEwWGwtf5MVyqDU65P8MLkqL33Hv8VSlAKhrCvsC4hIGgiqVuHk/h0k81a+FLztSSMtOPcee+Om6N8aowjql8llMKGx2zmmd48q/lkqWbhFqpVkQtV0NZUWIC16olS2fFgYexfU308TxqzDtK30yaYTEkx3Ecx3kv0ACelQb98lZuntqo/0BCjcu9U5v0YZGInxoPLBcWVIXX58NcqUixk8tRA9SQKRSQy1EoVFXJ0y8FSIauKd/Cyr0NM+dokKQm7lNixSx/YcTIFIVLImHD42h9Np1jBc4KvqbKuxmlco7CJ49C6yh0l3ncNIVFJs1wOikOKMHqid/ZMYdCilIgU0OWCZam8KmUKXDSDKPEOKINnSWKo1wrhaXCtxPRqTB9KU9SFCTcT8LGlItZrGSBkTDTsnbg8ekn7Mopj53KF1Cc22HxSKWraB3eQj2o/fJI55tRyzSjmOQo0IYx7m3o0jlkeP5MK6m5aoUCkJEx6cTj1BIKXkYim2c8yxRmaEGhMBJd3fqS7giK4xwyuTYkPAb1Ex0Fj6Kq3SkUM7mMkofnTvHUc70cx3Ec592lUas0uoFIa5TEBXFpVsbzC2hRCB8emfW9rCtppGWxabC0yGaSUFxkm9opTFIoseKX9aaaVBg5uqQLtdJcVKfPwP57fgqjx26E6d2jUK5lkG/JI6FYkWUiRyFS6qogl2+i/wpqxRqee/gZnPCNM7HW6h/BUu2r4gOrb44vH34qbrr9EWTblgGaKGIqHci1Z1GudiHXlENS6sawtgKq3VN4+Fl49cWXcfpJZ2LjjbbAyNGrYdkVPoLPffFM3HPfBIqCEchlhiOTLfAcKL4oWMyMYtakjDU2VbMUFJkyt3XzOtCB8xRBCUWSLEGy8ljaULhVy90oDGtFJs9rkupEx6ypePGFV3DcCWdgtQ+sj8Lw8Ri38odxwMHfwN9uegSV3FKYQwFX5OGsoaqrhHyG4qha4oq5DLOMaZNn48JvX4QddtgHbW1roK2wOj7/6W/iqitvYxxHo7srTxHWxnzSwvjlmKm4OlVlLMuMN8+AcU+jyHOqqyLHcRzHeZfR6OWmV+rT6PQtsMZluXSjOpqfEwNrp0UPY2S/ZgGiC01AIoViN0UMRURTcwFd3R3I5vKsvFmRy/KTz+O8b38XN932JIXBGHRXW1BOahQ+rJQpIsrVqlXN2WyGgqWEWjXBmSd9Cx/Zel9c/Mur8cbEWdaqNGPaVFz1uyuwxy574ZDDjsZrU+Yg2zocJQrAvI7bMYtxYEAUX7K0XHPlX7DRxh/H9378Jzzz4nRQU6FjTif+eOUfsdeuH8fxXz8Vszsy6CjnIEMcJQ0S7pswbmr+kq1F52h9jcxyEoVmPR3o1DfHmt3UlCfdVO1GQhGUqtbwox/+DOtuuAd+dPGVeGPSTJ0q5szuxLXX/BWf/Pi+OPYbJ2NmZw3lVDPDyKJQoPArdjHYMlDpxH/+dT823GIHnPLtn+D+/zxtR8xSaF7/9xtw2MGH4tOfOhBTZ1PopNsp1NTLJzQHKt/IAldSoimOanpzHMdxnPeARs0yv0+49PFTX99D6NPTa8mJ8/pt3HHRIwkQK/9g7ZHTfKCGluZWlLu7qTtKXKwglZFVJ01BUsQJx5+KCy+9EV3cvUtGDaoANcmU5S9PtZKjAKpxQ8L9Sx04/cQTcf7P/4guiqcPb7IRLr3sp3h+wv148slbcOFpR2F0LoXfXX4lvnzUCZgyo0Jx0o6y+ttkU8g1pVEtlnHXX+7GN444HzPLNXx4m61x9Q1XYcIrj+Dfd/4Fh+yzA5ahLvvtJb/EN0//Lsr5pSlcKEB40dQDSP2MctUK8hQw2YTxU3+dWp7XI0dxRJFj1h6KI2oLWcJk/bEmp5qaqUomfL59yoU45+yrUGIybbHbtvjbdb/DGy/fhztvugz7fXQT8Gj49SW/wnnn/oyibASXmiwdU4w/UMarTz9NcXM4Xp9Zxui11sKvfv8rvPDyY7j33n/gm8d8AcNyJdx80z/w5aNPwPRSBkX1C0uKFG5MU16bXKaZwqxAYZll3HL16+U4juM47y7SKuru0ahhGrVMfwZZbaTP1vPk+Bv6w9T7xKQoOmQtKXbDqthaGc1NeXTM6sSLE97EJw/4PC667AZ0c8ckS0HEXWT2UroU8jmKlg5Uq51Iq4kmXcOTDzyIy39zE4oMf6vd98blV/0f9vvU3lh6qVYsN2YEjjzmK7iZQmZUawE3/+MGXHHFtSgnrShSOxVaWlArdmLWtOn4zncvxfRaCtvvtid+/5ffY+ttNkVbWxrrbbA2LvrF93HqsQdb35rf/Op3eOi/L6KSkuWGsiFTV6WMn/rPUG4yrsECpPOmcjPJF97s0tnIU4JyuWjNeOC5/Pvuu/Dji65hmMBhxxyBP/zpCmyx2YYYNayAzTbfEL+59Mc46gu7oMAwLr3ot3jk0RcZRg7VShXlYgdns7jw+5dg4owEK66zFv5+8/XYfa+dsfSybVjvQ6vg9FOPwmWXnIV2isAbbvwnbrz9XqSZlrlmXgHGJaFwU1dp9XVKalGoOo7jOM7iZ54aqb9lJ873rplXTS0aa5A6+lZ4sAoFQnjDSX1eJAi0LS1hVClxSnHUNRud06bgZz+5BOt+aDfccvez6ExqenEJVVl3ULZmGL3wVCuV0ZQtoZDrYmoUGV4NF//styhST7SPWQFnf+8CLD22DUllFjLlKrLqsFysYb0NN8C5Jx2FpnKC73/3ErzyRjcyuXbUOruRrpTx+L8fwi2PPY05mXaceOZRaG2eiUx1GlqpNqo8sM7lsK8egE0/IIsLcPkVV6G7mtibVhJEajmzVGe62ivverVc/YHUL8j6/DAtLE0oNNIlc1n1Deqew5PqwEUX/QzTkyw+uOXO+PoxX8aIPIWRmrJ4XuVuXq/8MBx76CFYikKrVqzgnvseYryYHSrq85TBhP8+jcuvfhAdjM1pp5yIcSNz1FdzUSrNQrE4lft3Y+e9tsFee2zE45Xxq19dhjldXSbeMlmK0kRNh4qrxCrjyvg7juM4zntF1CI9uuUtdMk84qe/yahn3n4XN8HCIYFS7/JjzmInC0giyw0XWfmeevLJOPvsn1vfYfWDOemUr+OMUw6VZ6TzNRTVMTif4z4Mqxo6EMt6NGPaTDz++Atg1Y1NttoCy48fg2p5LrK1YkisVAZVBppQwOy75/YYNyyNqZOm4rGnXmJQdetMdxXX/eU6VLJNWOsjG2K1NVZEIa23qCjckgqFitK1G6nmBPvtuyuS7pm4/m/XorO7jLL0nYYUULzQxHi0oJguoKoO0SaLeMJMAxM/5i+FEgVZd6YZSSYvkxbefPY53HX3CxR6BRzylaOx/JhlUe2cg6RYpHjLM41y1CtVjFxxOay73nL44LqromPWG0gzXL0lJ8vVDddfj26Gm20fiw3XXw8tFE5tOXU0r6JQyDPNSkhlE+y7394UTF24/87bMOGVSZjVKYGmzvGaSJwyRXjeEqV2nRzHcRxnEdCoYfozj/hpVEp9FJT9hsCMhm3irRTWu0WP0JlfJap3qhWPqiwimgc22OCDuPmWm3Hc176KURQgrayba7UOCqQqKtVupgD9VbJAOY9MhaKgu4aZc7pR5iG22GojVtxzUaBgydJfKlOjvupCluIqlVCWtOYwahgFSSbBvx55MFg3JEhKWdx3578ZoTI+8OF1MLxpGFJF9dNpUk8e6hMGLisOBc66G23AuFYxc+KLeOapF9CUHYbpE17C9htvitZRa2D8B7bCf16YiGKuHYk6JXP/cJ41vPLQw1h3/HpoH7EW9jrwOMwspnlOaTz6xATM7dTr/jlsucnGqHWp/5DeZmtHpVhh3CkSm3NIUcT87Z5/4o5//hZnffNzZtmRFYfqh2Lucca+ig9vvjnGjB6NXInijeKsoIZFplNiPYZyWGOtNTCmhekxdxaeeOIVpAvjKOCyyGTz6KpS7GVSKOQohvxVd8dxnPcN6l8T+9g0ovEAtX4gtK1xKhr9alzBSPRTKqm1ppcoaOJxNY36o3GdaNQw/ZlH/CzR2KtMcjwhnbBZFbRBYiBsqxWZeOkcVl5tdVx55Y9w9923Yp01V8awJlbCSRc44T56gVw2Ce0jawor9FqGwqeI5kyGF0MDEirINHUGRUuFgqZYolbhNJUgR/EDjR/E3dXEg6SI519Wnx1FIY/S1DmYM1e9qqtYa+3VOEmQT1EQpNRZOWX9YdSlOdXUhJGjR2FEgeuKXXj1tSnormYxYsw4fOvM09HKSEx5cxK++6NfYW6lCZRgqDAula5uFGd34FvnfR9vzEkwYrnxOP6kk9HS0oykkuDZp1+2TtMbb7Ihho1soahJeB569Z6CKNeGVK6F4qiKzkwbBUoK7e05NGWKodlMcStX8dijz/HkclhmzLIY0dKCrMZAoliz9kaei97sQjaHtrZWLN2cRitXP/fca+hmPNMZvTmm1w2zTEvuU+V1YrqGa+U4juMMNvqLGr1RJRfFhbbJj71GzvVRoMR9tE3rG8OosF6JfoX2jWi9yOc1xl5fGgVNd3d3j9+FYeH3WGzoZJkwGjWZAsIcK9Yofqoa76bQjAqFTyrfisOP+Rp23W1HzJ09CUsNS6HaNZW+1CcoxYo8hUxVQqSJeqoJVVbS6uicYiVe7ZqBdk51eV55ZSoqSQsKzSMsbA1omC00IZk7x6RT96SpmDytwmgleH3yGyiqU1GqGZNmz8bk2Qohweorjw9NRIyhnJrWbPRjOg2KOHLYMCzbnLeOx29MnoViVuKkDZvtuB2+8pkd0ZpUcO2V1+Af19/DeKaQz9Flm3H5r/6AK297DLO5fMrpx2CT9cYhX5nF7WlMf3OapdaKq6+AbCswY/Y0XHH55djto59E2+jV0DxqFXzywK/ipnueRCW3NGZ3phh3OlnM8k0oT+1A9ywKPeq7D39wXVS65zKz8XyUQS3TcV6jQ6cTDB/WitGtLVD2fOmlN3iGFFk1iqMkjWwqT29MSwosu3YWK8dxHGew0V/UNIobuUYRI6LVReu1XfvH5ShW4j5RzMT1USBFS5CEU7GoseJCuCL6bdFLRg3HXVAGl/jReDaSLxIOPFn75hVFiCxCmusulilSQtNSURYzCprWtizlZQcranWmCf2FwmCJGeswXWVCqp+vBc/Kv3WpkVh7rZWsw/FN112HOTPnoqMEdDHdK6zEq1SZJpT498C/H8f0uRQMeqWex7PtvCBl7typeFGsFDRyMuOpsGU54a7QgIppCgONvJyjKGhJ5ZBT521GRB2ty1lmEqqJU048AhuvNQJJ5yx854zTMfHNiSYsHr7rYXz7vEvQxTjvf8gXceABe6O5Nge5WjeF2Vzcc/t9FCMphl/Bf//7KLbYdlsc9tUzcOe9j6PMeJYrNdx2683Yd69P4NP7fw7T5iSoZDTic7YezzwqJZ5jpoam1iwFIIWONSPqXPSvZZ4ThVmaGbrA/USxTHHZ83kMZnY5pXcmZH5pPsdxHGfwEkVNdI1iptFyI8EiJ7Rd4kUipaJWBO4X0bz8RSEV18lpcEKhcAuFgs3L0hP9qUlMYcflhWFQiZ8gdeQkPoLTf9icQlNLk60tVVJobmFlzkq6Uu6gH6pHVuCVVAZqPUz06QjbhxdGb5Cp87AuRq2AdOsIfOagfUz8vP70o/jJhedTSOWRaVkG+Xw7LxIVbmsBUye+gTO+81NQI6BWKiBVVmdgLqSpgptrKNYFVYXKNZtpothS52peUCmtRBaiAqMlD3RcxywUbCPav8BjMIz8Uu04/7yTsTTXTXr8P/jlxZdidlcOXz/hAkzpSLDqBz+E4795HHLVIrKlTobN82RmGdE2yi7sMw8+hk9/7FOYRUV13FnH4F+P/hNTJj2MO2+6FF/Yd0u0M7r/vObv+MrRp2JKF88h28y4KA7N6KZASuVLmFWaxmRhXDPNXE/BplSXqJGKU4al/5qJTyBHwVZLF5maJRvosZYUed6hY3T4EKp8OY7jOIONKFAa0XJ0IgoZiREJliiGtF3iJQoaLcuPhIv8R6tQPIbm41TWn+hfNDU12X4SUWoS03r5W1gGjfhR0spyEL50zsRWM0yoiqUxuKpGRdhBjVOGPsVR7C4zUaqskPNMJPllBV1PoBiO3phicts6s1FkWrghh2122xl7f/SDYJ2Nn1/4HXz2gE/jH9ffhgkvT8XUmWX87KLLsMvH98fEGbOxzjprcO8sBQ5rfgqChJV9tVKy5imLtJrmLJaMIy+wpuq3I5HBK0ZBobhoQRe9glwug25e7M4iRUNLKz686cY48aufQBN3/NmPLsV+n/4i7ntsArpQoDD6FlZcZjiadC7MNAxAgWLa9FmcAi8+O4HBpvDnq6/GMcceg9VWX4mZpYbNN1kfF/3kfPzwzM+jhdG89bqb8NfrbqVorFKT5VAql9DUzDgr/QpZZjSmlDI042m2Mx5H/Xk0LpBZ3SQIedyE6VnlOShXpbNcL3OY/PPXR3h2HMcZvESBIlQHyAmtiyJFyF/cFtF2iRS5aPmJ1qI4lRVn2rRpeO211/DMM8/g3nvvxc0334zf//73+N3vfoff/va3OOuss/Ctb30LZ599Ng499FB88YtfxOmnnz7P8RaEQSN+rBJVs1Ufp3Ws+GuqfKtoYl1cyNbMaqPvU6mCZjqzfm5BKt9uzTDBiKaEqtmHTrPq/KzOzrU80plWVBPu1zIcP/zZT3DgvpuihbrkrhtuwQGf3B/rfXgbLL/qZjjq+O9jVq0Jf/rrL7HRxivzylZQkcjJMT5JGXnmgUKRx6jwGBq4UJanjD4BUUOZokAiASlZRCgo8lxKd1E0JDYydEdnB3LZVrS0LI1aiZmteRi+8pVDsMG6o1FjeHfccTfDacbJ3/oOdtlyI7SUZuqLrtaUhqysNzlkWij4eIZdFCXHfO3r2Hj9tdEM+uH5FvTdslrBRNFnPrsPtlp3WevQ/X9XXImO7k4mC4VbQcKHUWRqpStp9eJBujqX+3WaFYcnY2FU9cZXiukm0ca16sjNROS6DNNDzYlMbYpCNbOlZNeS6nQcx3EGLRIaUfDIxXW5XM6EjYgWH/Hiiy/i1ltvNeEi0bLbbrth6623xkorrWT7Dx8+3Katra0YO3YsVlxxRayzzjrYcsstsfPOO+Nzn/scDjzwQBxyyCEmdOTOOOMM/PrXvzZ311139QiohWEQiR8RREtw/O1Tl9bsA6W8CmaDUH8UedOSKmMNZqhmKe0SfmWPYUWuWt6SIYui+gzlVKln0DxsOC7+6Q9ww3UXY/99d0QzhUlXdzc22mRT/PQXl+C+e+/Guh9YEy16bZ2V/7jlxtjggGmKsXYKkKwdV9YmfSVe4kzioIosM0Wm/qq6zD9VTrvpV1mms2sO2lua1TUJpa4y/TMDUUTkllkK555zhlqZuFzDmDU/gE8e8FnGkoJJYisfvmRfpYiTVSlNEcYU4Lnk8fF9PsWwOpGTQOQhK2UKLgajT3qkWzPYc/ftLA0efeAh++6Yvndm8dK7/opXRSNHM+3SSi+mjE5Efa8SnmvwwrUm58yylaUMSlFYVUqMLM89RRFqlq53oMwdx3GcJYcofCJdXV2YOHEiXnjhBfzyl7/EueeeizPPPBPbb7+9CSC5VVddFTvuuKMJH4kWWXPuuecevPzyy7Z9zpw5No3CScQmMR0v9vuJzWPRgrT66qtjhRVWMMH0ThhU4kd6wd6UUrT12rvNp2wSRE6OiaJplcshIbWPvpZl/Xvq6PtYsg+F3bknZ+RPVbi+rJ4pNKGrlCDT1IbNtt4KF/3yp3hj8guYM2sC7r7lKnzuE1ti6XwRSWeC+268h9qhirXWXIViRLYSYHhLDku1M36ZFJ5/5VUbWFB9e/ISDHoV38wqinQKkyfNwCtT1UumGauuuBLFTAlZvUkl4dxUYOTT1on5b3+9JnwwlRGd9OIEXHfdjVBQeh1dQ1UnFGDU3khzeZON12ZMGBeeR67QzmBaKaR4uEqIoUmVdJHJlWCVNVeVXKE4rOHNSTN53mmkh43EiOGy2gBPPvcMall9n0tRUXZh5qMoq1EcqT9P15TXMXlONwVcDWuv80HGpWrnmdf7X7wW6ixdoNDS9750lRzHcZx3jir+/sTmJBGbgOI0+o/b41TIT/QnGsPW+tiU9corr5j15pxzzjELzhe+8AUTOHrTavnllzchIsvMaaedZiLn9ttvt7DkooiRaJJfWXy072c+8xkcfPDBFt7JJ59sUwkoWXNuvPFG3Hbbbeaef/55TJgwwZrDOjo6euL89NNP23o1iTXGe0EZVOKnB4oGqgBzumzBaZ6JbFP9NSaGOkTJFqK5sCdTj8vyH5OghpbWJnR3zWXuKKK5qRnFWh5dtSYkvHiZdAVNmQpSpVlozpYoTiooTppE/93clSJi/IronNuBNFVqbvRwjBol9ZLFhJffRLf6HEnsULnq6/JlZj6pWI1H9ObrU1DN6vX8ZoxfYSwylS50zJkBdZGpcl5WpXvuuh+X/vpWlBnMiqutTOExC+edeRKeeuFl6/tTY/zyzU08L72KmGNGXMXOMeE5pqmY7BVBZT7w+EyBnJR0RamhvjySQkwLZh5pMmXmdEsTNv7IBhREFcycPhtdimprO0rVGuPEuCtDq09PtRvTpkzEFIrADga3wnJjKXyKSJvVjcdKM0CNjaR4NDwtOI7jOAtHHOxPYkKVfRQm8Y2naCFpfCVc8+GhNTRFqSyOHY4j8mf1UQMvvfSSNS/ttddetn38+PHWBHXqqafa+ssuu8yEicLWvurMrPDld6mllsK2227bI4YkaORXcXn11VdNzPzzn//EFVdcgYsuuqgnTAkgiaqDDjrIjqWmsS222MKOLQvP0ksv3fPGl4jn1XguC8PgFD/vBNa99m0vzmq8n4xV+azAzcRCccQtlWIJrRQiPz7zVOy25dbY//PHYHq5lRe1BUk3MxQzmfnu1neryrjtoXvw0owqWkeOxEc+vBFGDRtBrVKmkMlg62234HwODz/4OAUKd82nUc7o6CXkm5hR9Fp5JYWnn3zWXg0fPnYpjB0zzL4zNqK1FUmxE/lcEdMmv4avnnAOplGs7LL7dvjbn36PD682EqXpL+Oob56MSeUsutXkVdTX7HkemTzGr7R6EHkUH/9+6D47Pw1gmM2VkMvTr+m1Vp5DHk898QyQb0HrsstQvCyDVNLFbZ3YYJONKLIy+PetD2JmRwkzKOCSphb6zSFbkPKey/h34A0KwGk8flIYgXVXH4/m6mwmMM9YAjGlOEl4SfioV5ALIMdxnHeC3mxSRW8Pk6z41cdGwqNxEEAJIr0NJfpvkzAR8qN5WYAkoiRI7r77bhMhe+yxh4W9yiqr4Nvf/jZuuOEGE0vyH0WGtsvSs/vuu+P44483i83f//533HLLLejs7LRmMDVtXXLJJdYE9tnPftbEkMSRiFOFp3MQUcgobop3FGON2+O5aFujpcfFzwKgJArJpITTnC5orJC1zPXlbqy4zGg8/ug03PTPezBzTs2+t1VQwsuSQT/pfBO6O6v4zdXXm8XjIxtvgOWXGYly51yzjKQpbrbZaTtkqnPx5L/vwaNPPIuudDMybe3orlZCpqOYSeaU8Jdrb2TGSmP7Hbal+BmFpNyJFAWU2pk0WvX53/kBnnltLkaMHYeTTj4FKy83CueddiSaGe2H7r4Hl1/xF5TTbSinmOHVwbhWwZbbb4Vxy2ZQnDMJt934N2aaJlSSDINM0DlnDrJqKuM5VSbNwuW/v5a7lLDDTtugrTkHdVpOt7Rig403xEhZt6a9jrvuvh8pipu55Zq92i8No2a1VCqPy//wVxSRxwc32hirLL8MspW5SKfUfBg6pAu9facmMP05juM474woQqJIiEJC81EUxWXRKFqi6JE4kWCRa25utmYoiRP115HYURjRjRs3zsSLhJGsNbIIKRy9jXX11VfbPtq2ww47YJtttjGBImGi40QaLU0xXo3EdTqexI7OSW6gfbROYcfzjH4aj7egDB3xwzRSXawkSpQh6LSsTrvBAqRtZaTb8th8800xjOqie3YHfvfry60jdJXbK0mXuhWhPHMuLrr4Cvz5lqdQaW7CsV87Am2ZThSoKDIa7CaTxybbb45tNhoDzJ6IC77zE8zsaMWcUgYJhUeeFzhdaMHPf30V7n14IjKFZnzpCwdRODFz8mLaBc604Ia/3I6f//I2Co4mHHXcSVh3ndXQkuvGDrtsii8euD3SpSLO+vrJuP/hV1AsLMs4ZlGtdSI9IoWvHH0gCrUEV1z8I9z8zzsxt7uAJD0cLe1LM3yNm1DGOT+8BM++WbG3zg7cf28UmKEyqQKqXcBaH1oPn/nEJihw4bxvnY8JE2aiuWUUuksJhZv6/RRw49/vxZ///jAzXhqHH/4ljGxrQiYpI5NWKqcZFyYWw1NznF6HrytPx3EcZyGJ1o5GkSBih2EJAE3lLwoIiZX4ptUuu+xi6/Q2lZqZZNmRkJF/hSmRIYvPSSedhIsvvtia015//XVr4oqdmLWv/OpYaoKKwkQP9Kq3tC0KkyhI5Efz2q7jR+L2uE7xiGIm0riP1YvcJ4YvYhj991sQho74YRVsn8SweVbGnIvfB9PrVfbaPFixd3dj9Opr4fOHfsL6+Hzv3NNw3jnn4ImnnsesriruuOsBfO6Qo3DK2Rcj3dKCLx99ND6y8QfQWgifrtDb3rKyNLc04zgKkJGFFG6//q/4xB4fxc033oxpU+fgkf8+j0O+eDSOO+0Se3HqiC99ARtQ2LQ25U0A6dX1ma+/iWOO+5YNyrjJ1lvg4IP3R846bfMGSFVw7DcOxypLNaMJXTjp5NMxdU7ZPu2RppDSW2YHff5A7L7DukiVq9h3n0/hxFNOx5NPvYQJL0/Cw/95HPt/9hB895c3oJsJcsRRX8Q2m6yNrAYklFTJt5lQ+eqRB2H50Rm88N9HsPdOO+D3V1yJ2TO7KIQm4Vvf/gk+e+jpmFmsYac9d8Weu27N869YGihNlRWVuvbqu31LjXGvW4Icx3GchUOVvvrNSLAIiQXNt7e391T+mqpzsqwxsuasscYa9mq5xE7shCwkntSPRv1qNG6O+uRIpOitLQkdjaEjGsWNjqU4NB4rbo9NY+qQHMVOPJbEi/YfSKhEP5oq7Mb9NB/30bo4L6If0SiGFgbW/w0xIYqkiJ2nIlVWso+9fD/OvuAEJLlOrLTmGLSP0Ii/PNFEokKJEvyakLD5LF589lV0zali7RXXwslfPhG5cmjDW9Ska0Vc9v1z8c0z/4y5LSvhkSefwUojJqOQno4SE1IfKFUFbedRqaFjRgeO+cZJ+P2f7lK1jXQ+FUY9lgjlNUjR/1FHH4UzTj8ZeaZNpWsuWvNN1CVUwNVupHJMx2QOrrzsdxQxv0RHuRY6MXPfzpBfmCmAzx/4afzwwgt5ASVeFEYV1VnTcchBR+DyG58AWttx153XYJ3Vlkczr3dOr7FXZ5qm+PMvf4cvHfNjzOKlOvKkE3HGiUcyfeegNUMxR9Wuczj08KNx7c0PoVil3OM10Rtj9bfYjSO+djhO+8ZXMbxZ59+NKm8ujWRdK6uvTgceuOsuHPDpEzGHIqeT+zGY0O+Jvil1sOvuu/Ip4QcYNbKJV7uTazSqs4QOtzNTygiU0U1DQcbszfzyDjOq5FTCvXVutW489eRDPL83MXL0ilhjo/3oY0TPOTHidD0LdQZa5ziOMziJwkPiQp2Ir7zyShMuWq/6WwKhUSSo4/Dhhx9uliJ1Kl5ttdVMiEhUSNhIEGnfKEK0TS4KnjgvjdBfH/RH4fS32GgqFKd4jIFo3DcS99U+2l/L0c8dd9xhQk9IxGk+HvOtGDKWH8kzffNLSahKOseKXWJH1omQROoApg7D9JPKonXEMPzisp/ixr/9FAfsux3ySmfuvPqaq+OoYw7HAw/eiXPOOMH69ajjr0Z01ijIxTIVrj6CWlQbbAYHHPJF/Ou+q3HsEfthtZVGmmVomWVG45P77Yu//u0a/OjH30Mm1YVsqohcNo1SsYS//unPuO4mCh/mr5NOOR5rrjYOLYXExFOivkD68Fc6i4/vuyf23n0ti9dPLzgPd95+BzNEkz4yzwufQ+uwZlz5x9/ir1f/nGLqo1hhbKsdf/jokdj/4INw50MP4qQTj8PItjSySo90BfnmAmoa60ef3Ci0YZOtt8NTj92AM0/+HDZcd1kTPmK3PXbHFX+4Er/89c8xZqlmSwcTjzawpCw/SlXdMLwB6WSNUho7juM474woAiRWNFbO+eefb5X8WmutZW9WReEjgbLyyiubGFJHZO2n18KPPfZYexVdwkdEgSDhEwWDXJyPwifOx/BFNJTEODUKrRiu0D4irpNoadyu/WMYmkZRE8OLx48oHo1+5Bq3LyjzWH6UqAoonmA8sCw/j750L8757kl9LD82Ip8e9Gs6eIjAkmn5YYRkkagVUEqNgD5qmknNoSTSl94F46zxgdQ0Yx8+TdmI0OE8mAEoiCr6GCnPMZWS2VG2D/4pfZQAUiCcU18i24XpklZzj8JK9M2xDKoN37fSXhYWf9VcJP9Jmr54ITMaVIf+y7lmlGXiYfg2OnWipjWZFLknp/ocRiqVQTHTyrjlLC5Z+stVFb8KkozOh5m2mmfwup4Z9TtGWd/a4lQjW2cYTi7p4imWUZa44jXLVNR3R2MCKR7K4DqmXWTbrpGdK0qPjM6gggKPp3DCOSk15ZieDNNyhY6vOaUvQ3gnWKq65cdxnCUcVfaqM1VJC1XOjSKiP3F9T13L/WPlHq0sWqcw9FaWxIxEjfxEYRHnZd3RK+Z6bVz0D+/9REwvNedtt912PfNqyuufpgORVuIuiKuycuuPApYbDJgo0evlrLBzqdnIYyar6HrlLMOE1ECNAsEGQJTYYTWtjWawYGamSMqy0s1SBGogQo2snKlJOJXpQoOOjRhNl3DfKsWV+uBIlGieKcVwKFbsNfsuC4eyxZZNWHA/7V+zYzIeadmqeKxaZ/gEh+0vx+30ZIM0pvMUVBppuYQ8BYzilLUxdhQPxp9iSnEJ8QpCRvHN1mK4nTwHNW/Rj52sgq6ZCApCSCfP41Bg1cxyo+RQ02CRwpH7pubaNIhBHSc4iUdF1Pr/SEAy7UMKOY7jvD+JlgoJDVW4MiSofowiSOuiHxHrT9WvonF/of3ffPNN66ysPjh6hV0Vu4SPkKhRmDvttBNOPPFEC0vWHXVY1voojIYKMS1Nr/DcB5o2unBVGuivkhqX+2zjgQYTEgHlTIJKhhV1ipU3K/Bg9VHFTcfzSVULdE2stEOyVDmRM6tFjb8mgphB1UtZjtW5rEWJWTRkwUkhQxEh64ssIbKcyL+mGmU6W4sWEskl7S+BwHATCRhZmiSOykgo0KoZygimt/bPJUUTXFIP2lfQO8VVlo7hyMpk4XP/MJQznYSH/PJYEk16TV/x1DnUxUk1w7hrfUJhUs0iZ/2CqqhmyyjTIa1j6g00+aEAkgWLLk3/2YQikkIrqxuWaSHLluIk8WNiUMeX4KLgqzEcOcXTcRzn/YhEToWVamyGUVNSrDPj+kbx093d3eNPb1ZJ9Mif3tBS05TG0dHbVfokhN64kh/5X2655WykZa1XGDfddJP5l1iKaH1svYnia6gQ07z/tD9pJVCj0wUYaDljPX0HN9YcJyFAAaBKWYLBOudK0JAekSOnalyLmprgUALWLRtGfbuFabtRP9kOrPjl6Ne86niyfugY2l9CRcIg3gRqYkvTv6YhfL2Kb1aXJEuhEb6hFbaFEMJhwp/Q+p5jWbjhnMJ+Ej9cUpNbWs1r2qYAdDzNaR8LkMs6dy7agtKIwkf7GBI4WXOKQIriJ1uleKubx2QZCrFXOJwzF8SXxceOa4E7juO8L5HQaKxsZY0QqkO1TdMogvSqeIViR1YJjY+jN7L0Orre0FL/HQ0UKBSGXkHXOn3ZXJ95kHVHb3TFcXUUjkSU5nUcWYm0X+zGMlSQXtH5a9rfRU0T3TySUAnVmFgLmnDxIi/JBDFAIcBzkmOkWR0r3kwGnaaapVjhm6DhClk4JAjUP0hWGGFWkLq4CEgUhIrfApezCffl/pzj/jVUefAqw2BwjIea0Ep2HMXDREIUEfXwUjUKzmoB6aoycZ5+tV5+FF+FKl96tbzK40iU5O3tKjNIyY8sLwxT8Vfc9QFVEzOyxGh/9feRsNJxJUwojnSeOm6+nDYrkMSSrEMSNurrE9JB4egQ/DFxpr5GnNdxTBzVRbKtK9CPxvlhuHZUx3Gc9ydReKjO1HxEFptolVE9KbEjf3JvvPEGzjvvPNtHzVsak6dCISPxEgXP/fffj2effdaauz796U/3fL5C+wuFp8o8zkcUjgSRaLQKvd9ZUP0yj/jRxenvbD3d/AKKfpZkKAMoFFS5s3K2vj3KLPr2OpeZCjWzjFD4sMKnJOE2SQ1ZL7S3Kn0JE661JOBPfRoEiZJRFpbe9NF+Op6as6LlxyxIdvyQ7LLvyAUrS7hZLDTuGzSGHTHETdt7/Gm9/NWbzXQMrrK+NTpchj+6MbTdRBVhgEHUad6OwqAyXM0pw0/poIybLE1ZHkLNWhYmfUq81dKhycwc5y2SghNZeTRTTzGuqMdT58kw7Vzq3h3Hcd6PNIqRWFdqKutMFCHapvkXX3wRn//8562D8imnnGLbtL/ewpLIueaaa3rG3PnIRz5i24Xq2sbvW0lYxWYzEa0/IsZHxOM7vfSmTj900RrFTpybnwBa0pFASFczyFRlUcmxbi5QdjSjmpLFRH1sykgkflJqGgqixAbtg/rIMADuL3FjnZdTWWbC0DHaUoaVfLD+SABpe6jtNaGuoI963x+Gof30tlSCArfVrNN06BMjZa5jJcjYevWV6UaS7WS8umzevsQOddJW2BIqOg+JOIatZjzupziUsjlU6PR6ucWBN4ydA4We+hrp7IIQC5YaGahqTANZqtJVCTadO7cw/LTCl5jRsVOKA59iMhWGH6xk6i9laWRx0nknDI9xpx/tF9NPuSbEwXEc5/2JhIeaWFRPViqxy0AQKRI+P/jBD6zPjpq29PVyIZGi19Jl5XnyySdtquaviPZTmDHsuE5OwkpWHU213GiwiPs0xmOosCA6ZR7xM4/oeYtABoPFp5FQAfO37oJY4dQcV5kn/fael+1TXzZ/9SX510z/ij1uCzaW4Hr80Ok3WJEoTGxJ6kiWEvmVfUo7a16WqGBpiXEKFpYQqsED2fnUtytUhSEBZiJMYdl+0YsudziuwrdDaTVngt+wxc7Q9pF44j62cxCEYT+dnXngcpiPKSNn5y8/DVYqW+k4jjMEkOiIdaearM4//3xrmjruuOPsDS4JFaGmLn0nS5Yg9fmRhUb1atyucLSf1kkkxeYrCRsta3vcJwqjONU2+dH+Mbz3O0qH6N6OecSPeKsde7bxwkazmi5ynF9yUWUsp2YbWVWYiVLlYOUwi0eW86GyDwJE1bisJLLkBIGilh47SxMkejOLlT3XWefeujgwgWAVPbfa8eiByyZSJAS4r70FJX/yo2a3WobpqpCVyTnPWVliwn6Mj1l4ClyW6VIZux62xJGaoAyFxRuEcclUZbXRsSSgOLWt4ZwUHfUTUn8hpPQGlvbnOeq4Ok/r+6PwJaJslxAHi5+asGQ9Y3olSpss/Wu/cGw7f6WFnUCMZzh6r3Mcx1kykWBoRMuNlWkUEY1iorG+jPOqE9WfRyMpawBCdU6OdaT68mgcHoWt9Wr6akT7RgHTWMeKxuarxno3bo9T0Vgnx/CGAo1p8Fb0ps77HGVJVdDRIhGsEnKqrIPICKqDCWc1tir0YD3RfvIXJ2G/xpskbrCNRPuo4g/H03IIU/O9xw17BL+6FBJA0X4TQwpxCgIpuBgnzvb8aT4iAcQj0vVZXz+ngNb2xqPnfDmx/j22Nh5DP9zQkDZRDCmuJg77hKtJSMu4fzzH+lbHcZwljmgpEVHwaDlWppVKxUSErC/zExMaZ0fWHH0pXa+p65MT2l9OzV16ZV2fotD3tLROx4yWG2fREq604ziO4wxhovCRuJEoiaInzqv5SAIoipXYBKVtTz/9tL1+vuaaa5qw0cdFm5ubMXbsWJxwwgl4+eWXbd3BBx9sViO5KK5iGM6ixcWP4ziOM+SRyJEgkchp7DfTaJWJ1hpNJYI0IKHe2lp//fV7XlmXKNJbW9/85jdN9GhAwjFjxvSEo7CHUjPUkoqLH8dxHGfII+ESLTASOEKWmShU9MaW5uVHAw1qVGX137n88st7XjVX09YVV1yB5557ruf7WgpLgkr7SQBFEaRlbZM1qVFgOYsGFz+O4ziOQ6JVJzZHaVnCRAJFr5OrT48+K7HCCivY21nxTSr181FfHlmCNBCh1mmb9m/sN6SpXGOTWRRGzqLFxY/jOI4z5JEAaRQ9EjxalviZPHmyDUa46qqrmtCRX63fcsstTfCov4+sQFovF61Fmo9Cp9G6o+1a1nbRuM1ZNLj4cRzHcYY8EjyNyCLT1dVlY/SoOevcc8/tESnbbrstXn31Vfschd7skpiJ+0c/UdzE19M1r+axRmtQ3CeKIGfR4eLHcRzHGVLEt60aiVYeITGit7ZaWlr69N3R6+u33347brnlFiy//PK2Lu4TrUZRyAwkaNR0Fv2Jxnln0eIp7ziO47zvkUiR6BGxWUpNUlG8aJsEy2233WZNWBqAUEjgqLlLn6NQnx81dcmf9osdoGO4zuDBxY/jOI4zJGgUPUJNUhIvao669957TeRsv/329jaXmr0kgvRWlz5BodGaJYTivrHJSgxk5XGWbFz8OI7jOO97oljRNPa5kcVG397aa6+9rB+PvrGl9WreOv744/HUU09ZR+fYQVn7NTU19bz2HsP05qvBh18xx3Ec531PtPrE5ioJnUMPPRTrrLMObrzxRhMyq6++uomdF154wQYnVB+dSGzakj+t19SbuwYvLn4cx3Gc9z2xf48sO+q/s8Yaa9i3tqKAUQdnWYH0KrvWSdzIaR8tqxlMyMqjZU3VbKZwY1OYM3hw8eM4juO875FQ0ecmdtppJ/skhQSMLEBq7pLAiV9al5OwiS5+0FTIn4jL3d3dJori6+zO4MHFj+M4jvO+57TTTrNmLY3NI/Gy8sorW3OXlkW0CknwxP5AEkISNnF8Hq0XUSSp/0/05wwuBhQ/8QK/JcwoUQVr6hffcRzHeS+R0IjEpiZZZiKN8xF9TX2bbbaxPjxR4Jx44onW52e77bbrqce0vrHuk0CSEBIDjc8Tl2X5adzmLF7i9Xw70vL4dk7oN847juM4zqIkNlNFgSOLjNZJfERLTOyXE0WSvsM1fvx43HPPPbZdAxPedNNN9vq6iCJmINH0/+29B4AdxZX9fV+/PCONIggBEoggDCxrf7bx2uTknCPY5GCcvfbf3l1wIGO8gMOuIwYsgo3D2msbBzBJBAG2cQSvyUFIAgkRFCa82O8753bfN62nmdFEaTRzf1JNV1dXV1f3q646fau62tm62UjDJNbpAis0dCww/bmw0f+o9lbF7DiO4zijCYUP2yIKHBMr1u6YiDFrED89wTl7zj77bA3nfhzIzEkKjzjiCI3HMFIul5uiydm6oagxLZPUNCwvSa1Dt4Hlx0j6Seu64ziO42xO2A5RALHhMiFEYcPvbxE2cLQGceAyx/awW4vb+V2u2267rTljM/djPKbBNPP5vIY7Wz+b0jFJF7AAbMppn2YqGt3uOI7jOJsbNlgUONbTwLaJQqZYLOr222+/Xa09X/jCF3SdAodjezjm58ADD9SwVsyCxHScrR+WCQpe0y22NH/SBVaQko47J9eJd2o5juM4Wwq2S2zE2CbR+mOWH3ZlsUuL3VkUOuTlL3+5PPDAAzp3j0HxRNjw2dM/BZJZkpyJwQa6JV4SCze30RB1KxRG0t8frfs4juM4zmiStM7YAzqtPfz+1plnnqltEAc0s3vr7rvv1nBi1qJkG8WusmSYt18TA/6O5jbFRuKHBSJJcr11m+M4juNsDsw6Y11VtPbwVXWD/scff1zDCcUSrTq0FukAVwgmLtkwtrW1NcUUw52JATXKYHXK8H/1xEG49ALkOI7jjAacVJDYE3xyuWLFCv3yOt/k4vrOO+8sixcvbk5WaOi4jrhdSi6t3eL2ZBvmbP1YORkMrlgcx3GcLY5ZdAgnFWRDRlFiS8JuLoodLglnab711lv1ExWOMxRc/DiO4zhbHHZPUejYYGYKHs7HYwKIX1unxYfWG27n97n4OvvcuXPjFBxn8Lj4cRzHcbY4JnQobtglxXW+jUWBwze5+HkKbqM4uvTSS+W73/2uiiLGcZyh4uLHcRzH2eKYiKGgIVxfvny5HH744Tqeh8KIVh5OWHjKKac0xwXZrM6OMxRc/DiO4zhbHIoejvsx8bNo0SKZN2+eCiDCj5MuXbpUDjroIBU8HBdEQUSRZPs4zmBx8eM4juNscShgOO6HXVvHHHOMnHTSSeqnIOLr63yji2KH3V4meOzVdYY7zlBw8eM4juNscSh0Hn74YbXw/PCHP9Qwfq7ipptu0okLKXQI4xEKHhM+ts1xBouLH8dxHGezYBMLtooVipg77rhDFi5cKEuWLNF4nLTwwQcf1DE/jG+iJ4lNfNjXNscZCC8xjuM4zphDAUOxwmVS/NDPb3BxLA+7s7jOj5PaIGcKIRc3zmjjJcpxHMcZcyhg+IYWlxzbY29p7bfffip+GM4wip5Pf/rTuo1CyIWPMxZ4qXIcx3HGHFpw+IaWwbe42LV1zz33qCjaYYcd5NFHH9UxPzagmZYfs/44zmji4sdxHMcZc2x8TqlUUpHz/ve/Xz9NQfh5iieffFK/xE5Lj3WLUfh0dXU193Wc0cLFj+M4jjPmmPVm5cqVsvfee8vNN9+s60ceeaS+xs5X2i0ORQ8tP6S9vX2DMUKOMxq4+HEcx3HGHFpvKHho3SmXyxrGmZqvueYa9XM7nYkeWoC8u8sZK1z8OI7jOGMOu7j4jS4by8Nvc/EbXVynZYdhHPDMpVl+rLvLBz07o81GJcpUt9HXOoOsgPaGbRjPcRzHmVhQpPTVBWX1P8WLbWc3lkHhw8HNBi1Axx13nPrZjpi44UBnw9oXxxkMJpjpBlN2hiSnkwKnkbgJeCAvqI7jOBMbihQTKuySsjbA2gaKF25ntxZfZ+f2K664QoWPWXE4vie5zgHQjjNSTIeYFjEh1B8biZ9WEZNcpz/ql8Vu8G8ghgY4iOM4jrN102rxYXtgQoh+285lPp9X/1lnnaVvdRGKJVqADjzwQF23eX4KhYK3H86IYblLllGWSdMvfZWvPi0/tkMrNGM2E/fC6jiOM2mg0Ek2LiZ8CBsXrnNpcY4//nidvJDtyU477SS33XabHHDAAfoAzTi0EpkA8oHNzkhhubIyaAwkqgO+dph0Tz/9tLrkOperVq/Siaii1xH5Jd0ogaS6chzHcSY2yQaFIobr1gZwye4udmtdffXV2hhNnz5drrzyyqbFhzCcXWMmoLiP44wECuh169bJs88+K6tWrVLdsnr1al1/7rnnmprGXLDddttJ0m2//fbqbH3u3Lm6nLPNHFXqkbqC4IGzgsvCP5DCchzHcbZ+kg+7SeFDZz0Dr371q7V7i9vYfjzzzDMqfBjHxvnQ4sOuMa5zP28/nJFCfdLR0SEzZ86U2bNny7bbbqvLWbNmyYwZM5qaxtwG3V4sgCy8VqjN6Ta4fD6nhZWFmMKHy2Qcx3EcZ2LSWs8nxQx7Bfg0zS+w33TTTWrJ4YdKly1bpkKH7QXbFXsDLPltL4YzLccZCSxPLEssk3Qsc6ZTuDStYm4D8cNIVgjN31yHY9mnaalWq0uYGOnPODoI2nEcx5mQJNuDpGBh9xWtO8ccc0zzcxUc22N+i8cGiI0S2xCG8Umd6fB7XyaKHGe4sEyZGCcsWzaWjNta3ZAUC9WS7hSgMMcJGBRGjuM4zsTFRAqFjMHuKwofDmgmhx12mL7OzvaC0MqTbISSDZSl42N+nJFiFh3zm9juDzfXOI7jOIMiKXrM8s/BzXfccYf6+bmK3/72t+qn4Il6CmoDNkKOsyVw8eM4juNsEnuaNlFDP4XPnXfeqUKI/ksuuUStOIxrL8hw3bu1nPGGix/HcRxn0FD4UNRQ7LCriwNN6ecnK5KWIQogbuPSu7Wc8YaLH8dxHGeTcLwOhQ8HKB977LEqfChsDj74YLnlllt0u73BZXFp/WEc6yJznPGCix/HcRxnk1DE0OLDT1Z873vfU4Gz884761tdJm4odih6zNrD7i5ag5IWIccZD3iJdBzHcTYJxc53vvMdOfvss/UNr/nz58sjjzwSb+2d9JACycb4UACZNchxxhMufhzHcZxNcsMNN8jHP/5xteJw9tzLL79chQ4Fj1l2KJCIjfGxri/HGW+4+HEcx3Ga1prW8TkUN5y353Wve51OaMjt/FYX5/OhuDHBk+zasjCKI8cZj7j4cRzHcdRaQ6GThOtLlizRz1bQzzgc6My3u0qlkoobH8zsbI24+HEcx3EUWmySY3SefPJJ/UaXiSK+zs5PV5BCoaBLWnxoAXKcrQkXP47jOE5T4HAwM605TzzxhBxyyCEqiDhu54orrlDhY11aBvfz7i1na8PFj+M4jtMUNRQztOYcffTRsnTpUl0/7bTT5Pjjj9fwZDzCdfM7ztaCix/HcRynOXaHQoZdXXfddZdafE444QQ555xzdBu7t6xbzLq6koOeHWdrwcWP4ziO03xb6zWveY1+qJRdWS996Utl0aJFG3ybyyYyNBjPv93lbG24+HEcx3EUCh0Oaib8bMXdd9+tQodveXFJoUPLDy09yQkMbV4fx9laGL74aTSa/bxc+uuOjuM44xuz0JjlhnW3+W+//XY56aST1L/LLrvIjTfeqH4b02ODmmn5MSuRT2DojCeG0v26kfgxQWMk11u3OY7jOFsHFD4mWihk+MDKxoJhFEAc20MoaL75zW824xIf0+NsDVCjDFanbCR+WMiTBX0whb51H8dxHGd8wa4pChp2VVHs0M+GgnU3x/k8/vjjGu8zn/mMvPa1r21ahEhy7h/HGa+YFhmMHglMKSUdnwiS68RtPo7jOFsvtPzQ0bJj9TobiTPOOENuueUWXafoofjhdhNHXHr3lrO1sIFuiZfEws0FVPebcrxhwkbvU4DjOI6zdcGuLhuYTD8bAA5uPv/88zVsp512kuuvv15yuZxus24xE02OM96hXmG5Nd1iS/MnXdCXmSjpJ63rjuM4ztYF63E2DGwI6F+2bJl2d1HoEH6stFKpqJ/WHhvgTMHkb3M5WwOb0jFJhzIeaEG3wt6fC1L9T19uZiTHcRxn/ELhY0Lm2GOPVTFEbrrpJn21nVYfYk/PrX7HGc/EoibSLAlNY+PdNnCtaqgvp4nGCTuO4zhbHxQwFDdc8ivtfLWddfrZZ58thx12WFPgcGkNB4UP49DvOFsTpl9MtyTX6TZ624sMyooTJxB5I7XlOI7jbDmSb2W1WmxMwNDKQ+FD+BmLz3/+8xrPtieFDut1q+cdZ2tgsOXVFYvjOM4EgAIm+SaXWW8IwyiG+Dr7W9/6Vu3+2m233eSyyy7T/XxMjzPZcPHjOI4zAaDQscHMZvHhOjHrPGdwLpfLGvfSSy9VAUS/z+PjTDZc/DiO40wQbPiBWXxo0aHVhyLo0EMPlVtvvVXDObcPBziblcjn8XEmGy5+HMdxJgAUMhQ/7N6ydVp5aPW54IIL5LbbbtNwih6KH7MQMZ5bfpzJhosfx3GcCQDFDIUPxYy9pZXP53X25rPOOkvjzJs3T60/FD021ofx3PLjTDZc/DiO40wQbJCzdWeRc845pymKrr76avUnB0NTBJm1yHEmCy5+HMdxJgAmYDi+h8KGS77Gfvfdd2v4mWeeqV1eFD5JccS4NlbIcSYLXuIdx3EmAPaGl1l0li9fLuedd55+smKXXXZpdn0RFzvOZMfvAMdxnAkAx+3YWJ+enh750Ic+FG8Rufzyy2Of4zjExY/jOM4Ewaw/P/rRj/QL7RzQfMIJJ8ghhxyi4Y7jRLj4cRzHmSDQ+rN06VI58cQTtWtrzpw5smjRoqYochwnwsWP4zjOBIEDmY877rim/5prrlG/jQNyHCfCxY/jOM4EgBMV3nHHHXLnnXfqOq0//HCpW30cZ2Nc/DiO40wA2OXF8T0UOxz0bIOcafXxeXwcZ0Nc/DiO40wA+O0ufrWdLF68WJeEFiF/td1xNqTPO4JPDf3R3NaIplCPvL1+x3EcZ+zh/D2E9S8/WWEfLaUIOuCAAzSc+KcrnMmElftNsZH44Y7JnQdKaCCR5DiO44weyQdM1su5XE79/HipzenDLi52d3HJ+tnG+/i4H2cywDJvblP0awvdSATZcgAx5DiO44wN7LriJytsIkOriy+88EJ54IEH1H/JJZfIggULmkLJ3vLyt72cycRgdMpG4iepnMxpOFx/CVocx3EcZ+zgpIUmbFjv3nzzzXL22Wdr19bhhx8uJ598cnOMD+P5w6rj9M2Iur2SuAByHMcZWyhokgLo3HPPVT8FDz9iSsuQjfGhALL6m9sdZzIwWP0S8GZJOvYN97Veb3ifseM4zpaCdbFZdLjk2J4lS5boNvtiO4UR45nYsfg+6NmZDLDss7xz2eqSuoauT8tPkn5VlFt6HMdxNhsct8NK3ATNKaecout8u4tfbGcY62jGo9jhNsL4jjNZMJ3Sumwl4JPCYFw6tfGAueSYIMdxHGdsobChyDn//PPjkMjqY6KI9TG/6E7oZ1xiS8eZqLC8N/UK7pO+lknX54DnJMn1vp4gTFW17uc4juMMHZrkjb7G6lDIUPCwPt5///21u4uVu1EsFnXJ7VZn91V3O85EglqkVeQPpEv8jnAcxxkHWDcVn0ptAkPrvmKlTsc5fT72sY81K3pagGw/x3EGj4sfx3GccQCtM31Z0unnNi6fffZZ+fa3v63hfLWdVh/HcYaOix/HcZxxAMWNWXTs7Swby0O4jQObTRjx1XaGscvLRJPjOIPDxY/jOM44wSw8hCLIxvJQBN12221y2WWXaZwTTzxRrT6M4zjO0HHx4ziOMw4wq49ZgEwEEYqgCy64QP0UQmeccYb6LU4yruM4m8bFj+M4zjjARI/5k4LmpptukhtvvFH9xx9/vOy4447qpxXIrT+OM3Rc/DiO44wTbPyOOUJxY1Yfwk9a8I2w5CzOjuMMDb9rHMdxxgEUO9btlbT83H777XLLLbfoOq0+8+bN01fhk5+sMKHkOM7gcPHjOI4zDqC4oRWHwsbEDP38artxxRVX6DKXy+nS5/hxnOHh4sdxHGecQNFDYUMhRP8Pf/hDfcuL3WH2aju7u2ghot/eBjMrkeM4g8PFj+M4zjggafHhJy4oaEzw0MJDCxDD2N3V+kq84zhDw8WP4zjOOIAWH4oaCh0KmyuvvFJWrlyp1p3LL7+8KXJKpVLz+18M8wHPjjN0/K5xHMcZJ/DbXRQ7dLT00Bq0/fbby0knnaQih11ehUJB3/YiDKNlyCxGjuMMDhc/juM44wSz4ixatEieeOIJ9Z933nlq4aFFKPmGF4US4TYf8+M4Q8PFj7P1kOLTbUNSdA3+ZfFNc5Sobo5I+KPoCU9im+NskrjMsHxtBsuKiRsuzzzzTA077LDD5KijjlJRRGtQ0sKTz+djn+M4Q2Uj8ZO8uZLmVAttPmEktpGk33HGghTFT4Ov9lL8MCAHX0YaNYQxvBEP/OS2DRzD6WkJdjdpnMI6KllPJdb5l67OogLXqHONnhoWLFu9cUcCx+pQ3BAbw8O6k2EmbjjWZ/ny5eo/7rjjmq+1k74sPNzPcZze+8OWvIf60yYbiR/ulEyg6de/jrPlqKOx0IIMl0qh6KZQ6cOl0izGCLdCGpdZXTfnODF9VYUMoxRhsWJ5SQVqX5S6VpyjU5AofDhWx0SOiSDWsQyz7qvvf//7up1+TmpI+qvAHcfpn6SGaaVPy0/yRjN/8tZrTax1H8cZCzKZHIROFmUthYaC853UpEqrDwd98ukcxA/uEqKImquzEdOtvU2Yu8nllHiFNVWytrJ1SGuIHfgZB67WQPUY5OAoshHA/UeAWWgogliHsovL6k4OZGbX1sMPP6yzOTMurT5Wr/ZXgTuO04vdT3bf2LIvNhI/jjNe0W4CPJqn4vEPbCwCPKGz2Uql+aReh2MTRmcNmm6FH04D8Mfd5HP88XsXcLbCtaiUsDJEMerVOPDoViypsUcKBQxFjr2pRcsPK2cTQlznN7zMf8455+g2lnvrInMcZ3TYSPzwZks+ZZiff1tVleNsTrQBoIWHhTEFgZOiP3YNPE2jqQrUpaKGDMVUna7Hk8JRLLmbfC4qNPqPZYNlhH81DPVZmhK5UcUaPxbKshSJDf7V2g5RR6PWs7e5TPTYOss2BT3H+1Ag8dX2+fPn67ZI5EfxHMfpG7ufuGzqlnjZF0FS0PTnyGjc+I4zXFj+gkwaSzRHjbrUahW0aRwkWoPu6cLGEmJ0otGiW4+GDGGNEjRSWYKwBwW9G+sMczcpnXCJMiDdKB9RWWg0OtVJ7IJUT7SNLuyCIEKpiw0uo6U9KHBYp9KyY4LGuryuuuoqFUEc4Pye97xHt7GLjFg97DhO3yQ1S1+W0uR2uhRuvA3uKuuPtv5pwvV60CN/f+L3ct7Fp0sj1yM7L5wjU6bnsBFPTDq4gvHip5oUE6cvI489tEx61tdlz/kvks9+8HTJVnvnqXCcwYMCheLVqJckE5TlH/f9QcqltTJt2mzZYd6LJVuYLtV6BYUQhbrBp3kqe+6AXWklYgr9PwQ4ExytjvD7R+UgKiNp1lm6btvTqP8oSrAM8zJ19i6ox/IDPj0OBa1wW9LiJIYUO6x3d999d53bZ4cddtC3vQjD2U1GsZSskx1nsmP306233iqHHnqohnG83IEHHqj+5L3GuK1sJH74FMKdrF/aDhCmS3Lf47+T87/0GQmzPbJgjw3FDyuTqCrBPi5+nLEgFj/ZXE3+8Zc7pXP9M2gUGD5DanWUV7Rm7K5INUIIH4oflkcWRDiUyRDlGKWZKTmTDtRJ+Onp+KxGcZwJA11qCUHZCFIZKVeqks8XZErHXNnnX16PiFOwlTtyET3cjZRWIcOnVHZ3sauLdS39Rx99tG6jRcgEkuM4vfQlfm6++WY56KCDmtsGIqDISToOtutrPY2nIt6wTFDT1GVv4ps6kOOMlHq1Lhm+7YVlNo2yifIY1qqSS3NED57YpQZXlTQcmgx1aS5T5Q3W3U0+x3IRuagc0J9KhEdxypINKniY60J9x27UqIu1oRZFmtGpgIYPRQ9hPcqHTMJKmv5rrrmmuX7sscdu0C3mwsdxBgfvmaR+GcilcLNtcEfTzEq4MUldeuS+pb+Tcy86TcJst+y8x3YydTonmaur5YfNj6Xklh9nLEgHLJM1iJ818uDffy89peckly3IjvP3gYovouRHg58DFD4+0Zvlh+VRl2ju+ITvTF5YEsKA5YPdXrHFOhY2YViX5cuXyfrOtTKlY3vZ61/eifCp2IRyxdfdIZHggRs9aPVhhW0Pjx/4wAfkm9/8pq7TURjZK/H+gOk4vdg9kbT8LF68WA455JBB3S8ufpytAjQFKFgoZRA3jfo6eejv90hn12qZPm2W7LLnfpLKTkEhLWvZi7QOX22PGiqdGdrbjcmNlgcUApYF9omyjLD/ixVVwLe7UO+hynv473+T559fKdNmzZe99n0HIk1FVAhu+AJh3TUy8cMuLIoZe7uLsIvrBz/4gX6u4t5779WxPwbrY9bFJpIcx4kYqfjxu8nZamAD0IBLBZwlF0/DaLxCHdSclrAcSr2RUVdrZCHJ0cCoy6HpgkNYrZHDdneT00G40IXwhygfup6LwlBm+JkU6p9ytYYy04iFBh/ouOR7XxwvNnLYhcVK2YQPK+nf/e536n/Zy16mwoeCh+F0LnwcZ2zwO8rZKmDDo/20VPNB1BBpA4ElP2+hXVucoQ4uRaMl2xYuMwjPhLoM8MTvbnK6NFyKA+IzdTguWV5QdjKBlh/9RArKFT9rwQkzQ0qgGsoXrUOImNLCNPCT5GCwcT8UODbW5/HHH9ey/MEPflC3mdWdYcml4zijh4sfZysBDREEToPjMzgIVeCog9hoQRDxydgsQ7Y0f7RelxD72bq7yeXqjbgMqKtJHUt+t6seRo5xUIi0HFFaq8xJpamH6IEA4ZuEI4cWH7PosPvrsssua4qb9773vU0/RT6dvRmm+XMcZ9Rw8eNsHUD41Bplqaeq8NdUBKXSbLTgr1ejBoVvJMJlEv+yseO/gAOm0+4mo0sFaXWBlhG+vZpwKBcM5zcsKJAaEByc9dnmLVM7I8TPaEARQ1FTKpXk9ttv1/EKFELnn3++ihxag2gVYjyWaRND3u3lOKOL31HOVgO/4xV9y6sXPNfjb0OCbCZqLHQ1ajQaeKKnYxS2IdxmDYq7yebiMhA7/mE4JAaEBtdpRuSAeg6tj9784mseUXmCftI3DUeOiZhCoSCXXnppc4JDzuhMKw/XKYYYj45+CiG3/DjO6OLix9lq0IZIx2CgIWqw+yDuHkApVusP/HRRW8aN8MGxXYs6MvAXO7mbfI6/vZUPfb0dQfw2nHajohqEfEZAFI9FRzV2wPFBWGIfvmlIG9BIULGVEDHf+9739O2vE088UXbbbbfmIOhWTAg5jjN6+B3lbB2gweK/qAGyhmjDxohNl4ZpMBs7Ch8sNdyZ7DTLR/w3GkMWlw4Korjc9MKyM7qlx0TMt771LbXqUPC8733vU2HkOM7mw8WP4zjOZkDfVIz58Y9/rN1d7Oo6/PDDN9jmOM7Y4+LHcRxnM9LV1SV33HGH+k844QRdOo6zeXHx4ziOs5mgtefnP/+5WnrYBcbZnen3Ac2Os3lx8eM4jrOZoODhFPwUQRQ8RxxxhL7e7gOaHWfz4nec4zjOZoCDmilyvvvd7+o6Z3TmmB9Odug4zubFxY/jOM5mYtGiRc3BzUceeaT6/U0vx9n8uPhxHMcZBVrH7VDU2Le8CIUOu7wYjxagAw88UJcugBxn8+Pix3EcZxSgkGkVOzZxIcUNRc/VV1+tYccdd9wGkxom93McZ+xx8eM4jjNK9GfBoRDijM4mkA4++OB4i0hnZ6dOeOg4zubDxY/jOM4okbTmUAjxTS5+woJwbh9afyiEjj32WA2jEJoyZYpbfhxnM+Pix3EcZxSg2KGwIRQ99PNNLn6slNuuu+46FUcnnXSSWoCIxU+KJsdxxh4XP47jOKMABY9hr68zrLu7W6688kpZsWKFWnj2339/FT0URK3jhBzH2Ty4+HEcxxkFaOEh7NoyQUMR1NbWpl1eZt3hV9yJWX3MCuQ4zubD7zrHGRMG/lAltyZdn2wQiQNpG/BuyvXu0ksU0vuvN465QRFHDHAcOoUNOPMGZ3lgRH4kvTeMIa2uN/7Grjfe1oa9xk6hk7To3HTTTbpu3/Ki1YeOuOXHcTY/wdNPPy3mVq5c2a9btXqVrFu3Tqdl1ycV3Lh205oJ13EmNnxWSD4vsMwnncE4ySbcmvHW+H24WEjQ2b+Qfk0m3oawpFgI2H0Su5Q6RGF0PW7CMZGk24go7Y1h3JSEcNwt1QgRLdSjR2Hcpw4f6wPmF+Fq1UC8FGJgc5QnSz9yfeefR7I4RnT88U5S0BCz6HBG52XLlmk9yS4vQr9ZfvimF0WT4zgjY/369fLMM8+oW7VqlTpbb9U0wdy5c8Xcdtttp8vtt99e/Uk3Z5s5UiwWe1/JTNy8rTe940w8ko1v0t9a7gdopLkpVgLJvSK/bmwm19yuyXEtCrHw5vYWBjg6sK3xsr9E+iWSU3qv674UPpFUSUJJ03uMaGuv1DH6zkMcGmMbW48wPmF9SItPLf5uF9fpZ5eX1ZH8lhfhWCA+PFq96V1fjjMyeO+1t7fLzJkzZdttt1W3zTbbNJetmgYPW9FNaY43pN2UdLyJ1Y/E2afNG1qfUhDGG9YEkONMbHgHJJ1h5Z/L5L1gcbikBaRlP0SN7R5Y4VgQLmN/A/dVA0JDHULhuGRcdSo4ep1ZWmy9Fztm0g0fTT2RhJ4x1jWfzfzHx2e4rsX5Yv7UWaeZnUvQkv9WGEI3/i0j9ko760XWmYT14+9//3v1H3PMMbLzzjtLuVzWsUCtXWOO4wwf3ku832ig4ZLOHiroN01jLrBIycgmamxd/ZoAqiHsFIa9VRTXiR3EcSYu1hCT3nvAmvleknGsSU/Gj7fghtpwS5QG77bmv1gEIbJuiVIz0ZAQERqGbRY1JtpDO6ewlnQgEa9/eiM1hQ/rgzjYxA8PanmLcx5nBC6OS4/G0XwyV33lP4pjxHs03XjG3vBiXUhhQ+vOnXfeKffff7+Gv/71r1dLkA2MJlZvughynNGFRpqkIcc0TVPbxPEUi9TqdBscRQ/Xdef4prU4CHKcCQ7vAnNG3MBvRBRPG+xE47+h47bIReNm6GKam3CvqbNbdUM5oBYTc81wI0ozCm0RQHq8VixfRq/ftrQeATnDP+bNHGLFebZ1PSKDsdTNXI/D+s8/94+IQsc/rBeTY3cohh544AFdctu+++6r4fSzUmZcEz8US47jDB8z1Bj2EKJ6Bc60irnozouxSK1Ot+nfKE4Q9IYbSMtxJjBogCEYzEXwHsC9EP+N/tFvzbuuAOyD1aaI4VI3WTw2mCGC8fSfivwRiKWqIbamaJJxuoqlEqeEe5LRk0Sr8T6aCS6jVaL7Rd5BgJjNG90SQUUSLdRFh2COIqLY0UYKMA6UtvUI7t+a/94MJrK6VWBixub8ufvuu5tPn7vvvrua5LnOStmtPo4zejSH6PQhRrgtqWlUx8TbmrTu3JqQiR47kCXU1wEdZ2KhTXTkjdG7QQUKl1wh5mmJq2N5zDEkEgQpiJ5UqqZLvjXVoABChGhvHsEEE59W6uoiS07SmpM4apydVvoKG5jkHvTDacajOoDHtlwyiKGaW60L+DYY9tBAnCdED/MbxI77DjX/451k3WldYDfffLPWlZzbh4KoVqs1rTwmerjOOI7jDB/TIqZRkvSlTzYSP607Jtft5tbur2QXWB8Hc5yJBhv66F/UyFOOxK07N8dEN1nUuEdrkS+Ow3smjtOLrWOplp/4KBRA6hAUC4gg4fS19qaQaEnXDqeud0u03us2TTJW5O8Ngc/yGK/q+cUuCtdA5GDDvGv+NTzatlH+sUZs7+SW8YrVh/ZgSDirMznkkENUENnbshz0TNHDeBREZgVyHGd42D1nJB8o7IEjyZDuOBM5XKSCaDA0D2g3veNMWPoq3i3Ch93BbKrr9RruCTTwvOEQp17n/cFbDY08FmzsQzZ48EEfIJgyChsQN6VvfmGJtKr1iqSzgdQbFWyq6764o1VYSKMuaQglDhVmemm9k5lYbwVg42iiPFo+LU5vPMMqj2R3DMP0vPCftpwUGu9GnZYp5DSf0TzWkJdUGnlmJpi/AA9I9apeHu6T1nBaq7CoViNxxGuBMB3qjA2BXoiEU1HVmn+68QuvG68Zl6wPFy1a1Kwbk19xJ/l8Xpfc1pw+xHGcUSGqt6J6rD8G3uo4Tj9s3BDXamjw0fjnigV96qhWOJdLKPlCu8R6AXclwtDoZwsFqVb5xJ9BSmnsxwaT40EaUkNkCqdCe5uUaz0QHBQCdalVy5LKZvUY6XxBG9o6j4klxVRSKhCVMiogIomk6wPAhpj5VksE/HwricKEx2AYt9dwToEeO5Seri404jkVPhQ5tXKZkaWBuJlcbOWAYuvu7kF+i8gjBBvOWy9EiFzR8oFrUWd3ENKNRFFf+Tc3vmGFyydMXiteR77pxWvA8J122imO5TjOeMDFj+OMGDbLDTR0gaSzaanrPC45yebyCMtJd1cJDSDEUQgBkUtLOpeRUk83GsosdqN1CKKnCgFRS0smDXEQ0loEcdHdCXGEzbT6IFoGaQqtSGnsv66TGyRbbJcsBAix7qY4O/BDMMBFcoK3uvnNbYg9LdHSE0KUhBAyTIhaJZeNRFq1xoTTEiAvPAyx7pvs1HasQMTpNSjhnDiwNyPFYpuUIJSCHERTuSaVMoRONo8scT6OANcph+uUjnKVzH+0YGjsxjcUh4TXg9eR4304zueUU07RcMdxxg8ufhxn0MSNcFNQENokuMaxcDWpVcoqBOhKPSUJUmz8p2IdDX0mKz3lipQhCrKFIoRSXmoQMxQoWYikdAABAH8BYoFdYipuIDKi7qeU1BqBVOo4EtLMt0/F/jmp9PRIGcexhpckbSTsSItyGK0NBPOsDTfSYtcdBRD9aRVDIXvapJBvl1K5LpVQpNg+RUqlSORwe8/6db1dX8gCz6lWqUs9bEihbapUqkg/1y65tg4NL3eX1SIWjR/UHKiL8h+dA3Mc+bYO+FvxWpAnnnhCl1xnuOM44wcXP44zGJotMJvjXhfJiaixpsWEFow0HC03hXwbxEEV4qQqQTovkm4TybRJGGQhXAqyvqtLxQL3q4dVpMWuMogJCCQKikKuKJVSXdKSR3ppCVN5yU+ZIV1lHC/IQ0Sx6ygnuXxR8xI5Ew2DkQy950FHawW71EwE8Vy4iSKoVq1KGqIryBQkheOV0L5X2Y0FwVagkEshPmeAz2WlUa2olafcCVFWDySDc+3B+dSZ5zALAZeGeEpLrjgFIrAdogjpxG9HRfmGeOKSigj/mbutAQocXje6K664ojmZIcf7MMxxnPGDix/HGTT9NcORtUK7iSBmyqWSNnYc01OcMg2iAoJAstLZA8WQYddQUdas71YLTz2swVUgHAIIjG7JTS3qYGF2cVVLNQifnGTTUyBKIIAggl7orEi+fbp0Yptk8tIIMlKu1DiERolkTK81ysI2ZuNQWo9o8aERKZ3NqBDieJ8A55QrtguyKp1ru4W50jE8jZTkshA067t0EHQAAVOulJEQqhVua+uAkIOQgTBqQKRl8lOlp4ZtmSLOYZr0VEIpl2t6rnVcKyN5DlsTSYHDT13Q8Zq+8pWvbFqDHMcZH7j4cZwhETXNGxNZfqRW01eaV69eLRdedLG84qUvl+kzdpapHTvKMcd/UH780+ulu5ySAhp/vjmVSkOgBDUIn/WSKaSktv55NKIQUuWS/PY3N8qR7zpWZkzdVWZMXygHHvI6+do3L5Onn12LuBBEKQgUuHQmh2MnLAvUPE0xZCuW7/7yj1hR3xO0C8VLA+KN36pCWAr+7m75zre+IzvN30ve8Ja3y1p2tUF4hbVQchA2Af7VoMDYuZPK5yQslWX5/Q/LRV+8SPbc859l6vTdZdZ28+TDH/+U3HTbXVKqQizkilLG/hkIKBNvSWgJo4vy30eEcQZfXyc1lAF+z8sGOy9cuFCtao7jjB/8jnScQRHZIuhUOqhQ4DtO1jDDh0aPg3gXXfUj2XnhYXLBl66Ue+9fydjCl5lv+OVNcuKxp8qRRx4vT654XtZ09kgutv5kc4gRloUapnNNp7zznUfLUcd9Sn514x8hKnh0kfv+/IB88dwvyr7/3yvkrrv+JLV0QSochFyNxuY0EClUbYP86KvjUfcRJx00p8F620ejgaIJB6NJE/lqFz83UUccdmnRBJQpFCTs7pFHH3hQvvifX5X1FQic7FQJ0+0QbBAwSIFvr9FSxMQz6bQ0ynW54bobZZ99XyNf/K+rZOmyThxbpNRVk//5wU/lbW94t3zuM5+TdSUOkp4l3VBCtJow/5wbKMpjdD50etURxlMbz/D1dXZ9UfQsXrxYRdBJJ52kAsgtP44zvnDx4ziDgQ1xLBpCdvGggdNxOtQs2MKunka1Jj++7Cr54L/+p1QQf/eXLZQfXXu5PP3UX+VPd/5MPnnyG6UNbeDiG5fIxz95loRBu6zrqkgu14Z9ITbYzdTZLe8/8SNy063/JxU0pp8843S57+El8tgjN8qPvvsZ2W2btHQ+2yXHHf0B+esDT0iPZHVQNMWYzreTYxcT/GFFhZTQFtPAQXXAbahdc6l0VrusdG6dOgdlQ8XAVRpYFvIqqNilRgtQWOqRcF2nfPpDH5Nn1yN/EGmdjSk4v+m4GhzTgmuSSUtPrSwNpJ1Furf/+gZ5/8mnyXok8+LDXyX/+4tF8syTd8mflvxATj7yAJmGvS792hVy9oVfk2d7EAkiLhJvuJKqfHixIapwTSnGos+C6A8w7qGIe/TRR+XJJ5/U9f3331+7vsyq5jjO+MDFj+MMEnujig01VIRaJUIIC0gC6Iu6rHtyhZz12a/QhiIHvult8vNf/1oOPuwgKRazsnDvXeWCi8+Wi87/iOSDUG687jdywy13Sg0CKISA4RtPYbksN/72JvnN4vukGwLkmv/5X/mP0/9dtt12hmw7e6q89W2vk5t/+zN58S5z5IWVT8mXv/ItkewUFQg1iA92rXBOHb4+n8u3SZlz8kAY1SDKUhyPQqtENiulahVR0lLjmBQOyqVVAueR17ezajxRHXeUzWIfbPrSl78h9/z9OazzhGs47wzSLaLyoOAr4/hVHA8Nf61TauvXyvlf/G/pwvkc8Loj5MoffV8Of/UR0lYsyD577S7f+q//lC+de6owqUu+don8/cGlOiC6jLwQSoQGzp1CMxJCsWjAIrr64xtaeDi/j73ddfjhh6vw8QHPjjO+cPHjOINB2+FQRY6O7eGTfArNfzqQTAYKIazIdy//nrzQ3ZDt5u0qX/7q16SjvSj5dEPKpW6ID3YsleXIo98ie84rSA6i4cablkiYnSldHBSc4Ze/Rb797culO52TNx57qhx+yCulUF8rOQiRFMRGI9Mms+fPk3NO+7C0I+71v7xe/u/+xxGegqNcCGRKfpqkGhAT0ED5whQVOkFbm1SYX4474ZtlQUOqlFxTO6TexVfz0xI0siI9CEObXUBa+XRdws4XZMmvfyMXXXGtTFswR/7lFQskh+NCPkFIQTjpCB+KIU5uuFYy6R6585Yb5PZ/LJd16Tb5/Bn/JrOnBbK+u1PSBb7qnoLYysvRJxwlL3vJ9tIo1+Tan1wrnV3dUpjSHsscdsRlVPxod5ceA6jwpBvfUCDfcsst6mf31/z58zXMX3V3nPGFix/HGTSqgLQh5tO8NsUQQykIn/Vr1shPfnmrVLD95FNOlW2mt0sRIiMd1mTq9A6p1WuSKbbLjG1my6uP2F/23mOWFLKcJblTCoU2qZer8tSDD8jv/rhKJN0ur3nTOySTqkgm7JJMNiPVnoqEQU5qpbIcvN9LZO7UtFTWrZcbb1kilTCQbDYvaTSwje6SdHdDjGWnQuDk4DLIE250jilChqulHpnWPgViJSVr19clPXWOhI0cRF0aWi4r2QDCo3s9hEmPdK96Vv7jc+dLBcc/+8L/lL0WQvzQSFTtEc423YCQ4qvtuWxa0rSAIe0brr9ewuIU2f3lr5Q9d9tVCmEV55mRWhjq3ES0cAXFjLz9ra/Ta/iTa34oL6xdq3MfaXXUoMWHXWDs6orkDkUQr3s0vmp8Q6Fz6623qhXuPe95j64Tt/w4zvjCxY/jDAa0xJy/L6UtMgeworGm8KmVpFHpkaWPL5P7VpRkXWOWHHbIATI9V5VG11psK0tPuQyR0CblEoRINS/nfPmrcvef75KLzvmEzMiuRzIQORAG995/v2QyaPQzRfmn3feQVJ0DoOtSrkG+5PI4Zkrn0knPKMr+B+6Ju7cmv//jnyEsilLtFlnyy1/IbnNeLHPn7ynvPO5DsqYCIZHlgGrkOf7+VgaN8uUXfknmTnuRzJy7t5z7zR9KLTcNrTPH70BmIL8pxoc4+vzF35a/La/IsSe8V17/6v0lw1kOIX4yQTSXDc4wekuryu6vtDR6UnLLzX+WsNYj+7xsH5mWb5eguyoBBGCGFrDuHoifENcikFfs+xIIOwi1F56V5StWqkhr0PqEKkk/iArNkGpAkEGUUfik4i/dj3c46ePSpUvV6rPbbrtpmI/3cZzxh4sfxxkM1A9o6fk5Bm3wISLS7EYiqbo88fhj0s0BwO0dsnD37SVTXYPGvS65IC/Z3FQImJyEwVQJstOhHmgJEukoiEzJVqRWWS+1akmeeHKFdNdwjFxKtttuJhLmPDH8NlgRIigHacLjQRiE3TIVO7OrbNnSp6S7h2+LFeVVBx8k73vf/lIrN+T6626Un/9qsdQDCBBOugh1RJH2wF//Jued/3XhrDpHvOUdctzJp0iIc6rW2LWGtOslnFtWrv/Jr+SSa26WnfbZRT7xyY/izCDEYmtXlpM0ppAm/DWolCrEj9SyUnp2rVT14ojss/fe+to/rT6pagXiqKLXKyi2SaPULbNnT5Pp2ZRUutbgvJ+C1srjzDI4vegcowvOGa9tnUcb31DkXHvtternZy34PS+1EKZSOhbIcZzxQ1x7O44zECk2+3WOjclpg98I+BkINNYMp/h54kGIh6q8/NCXIuQ5ycp6ueH6G+Qdbz9OOqYskBnTF8jhr32nXP3DX0qpKy3psCiNGru91khbjq9612Tp0hV6R+710t0lD42U4ltYUEkchFzuKSM+BUBdgql52efFe0vYE8pj9z6k40m6Q6Qxo0M+dfq/yYsXTJNsqSJf+MJ/ydKn1mE7REgBoq17jZx//gWyvBxKes4cOevMT8v0XI+kap06YLlWeRZpZ2TVPx6Sf/30BVIJUnLBV74u220zUwppWl6iDqhaGfnA/zREEycoTGWnSKo4XZ7rKcmyZ/hh00AWzNkeEeoQQyXJt7dJyIl92P5z7AsEUUfHFJk1JSsd6bQ8uXylVNn1JtH3vXrFT4C/uCBq9eHODB/f/PrXv1axQ9FzwgknaBj9Ps+P44wv/I50nMEAwaPdMDqxINv+ULu+GvyqeqUsTz21HCIAIqR7raxb2yX773+EHHXMp+X6m/+oc9wEaLv//Ls/ygdO/pC85S3vkYcfXyU99YwUp85g6yiNcknSmQzEgki+jWNkIEooBdjehw1payuKfm6CqqNakgripyCxUhANPTq6OYAoE5k2d65c9IXPyxTs+uT9D8k3v/INiLQAu1Tk8suvkd/c/CBSSMvXL/2OvGi3HSUbdkmWmYN44izTnatWyafO/KI81RXK6WecIfu98uU4CgRNtQfZ5CBnZAnRObiaUojCit1ydZxDLY18Y3sKwrBIiw+uEUKl1gVxVSzEAgBnpV2HoRRwXJ3dOlvU8Uy8rjzhqGdRVxLwQoxvKHp4jhQ7HOhMP8NoBXIcZ3wR1GqonBKON2pf6/VGXZ8weWPjf1Rhqyci6XeciUYkRNCw1UM0aDR7VCWE47w6lAL6cc5yTUovrJc3v+lk+cv/rZFTP3GqLPnD9fLEY3fKn2/7vvzH+98ss7MpWfK738s7j/+APPZcSTpDdmlNU2tJpcZPQ0CHQFDlddbkNO6rAKIE8oMDjCEYOJGivp4OlZSBLJE6v6LekDLf38oUJZUpyP6vPkD+7V/fK1PCbvn+174md95+l9z1l4fktPOuki7cpid/9MPy+lfvJwWcRwDxkg4yUi/j3i6F8pMfXSs/WvxX2fOg/eSDp75Ppso6nNd6xKFdpszsSTpLi4xIBg17FuGpVEkki3MPQxVgtITVG5BBqC/yuYJU4E9hH84b1GAdAlEUUBHWtaMLAggyiddWLTx1FT500dgfhCnj/zmNdSAHO3O8z2GHHRaHin7jy+tHxxl72L1s2mVTbqMahU8qdEZyvXepiw3wm9uZ2KB8s0Fnt5NaJ9j1hduHT/f8vARkAWXQI3/7myx/6gW5+kc/lc+fc67ssefuMq2jIC96yYvkzPM/J1ctukjSaOAf/sd98o3vXCPlxjQ8YOCeSmchJgLJpVNSh7CpVOr6AdQUv53V3S0pjhmh8ELDGmI9SPN18Oh16kwOYZQUEGC8qdm/9NGPnSr7LtxR8lKTMz53tnzwY5+RtbUs8vEK+fhHT4Xw6ZZaz1qdc0jCHgmyGXnwzw/LZ8+8RIL2Nrngy1+SjmJKiqmytBWyOoEhBzrzmNVGKKV6FdollO6ebjTunKcolGy2QLsUToamIVrGUBHh5ArFonQjz3yQSvENMbWIBNBGlEEQB9gPgfAxdY4roiNYh8fWxjusH/kl9+g3iLBX3JN1quM4Y0NSqyRdXwR8a2MwLkjR5N93Qi58nImOWiCyVClVSYdZCep8+woChN+CQOMcciJBtHMcBnTkMe+Sg199ANrzCu6bEAKliFYQ0ggC4/A3HCwnHnWgZBpV+emPr5Onn4GIwP6pLIfINCSoNSAy2iGsipx2h8YRyWU4AzIEFntPcIBUsV1nWg6lCmG0Bvcf9g+j+ZYF+QimzpTC9Cnyjf/+nEzF/Xrvn5bKg/evkKAwRb7ynW/Kgh1mSq66TtpzSLzeJY3Sc1Lv6ZQPffoCWVNLy9nnni0v2XtnKaQbUupch3OsqA6pVtOan0yxTdJtBSlB/LRPmyG1MsQMhBX7vKKnqbpk8xBzEEUUZBSGFHZZdtuhruBLY1B7km/nx1qZblXCWCRQuLG7jI7XlXv3yqGtQ0BQkB5yyCEq/lh38gOnjuOMPexqVr0SL83xnkyu0wVJddSfI1tHteM4Y4PONsyJ/1IQORAbAefF4RtPfLsJ/zk7coEzAKLNfvPb3yyFtgya7SqEDCdGhKuHwtmg+SHTN7/uICYlL6xaLaufXSNpftW8u1vSDY6kgXQoQzwEecllizT24LgQDbT88Ovo7FeCACpVIBiQp0xHQdPOIE9Sw/Ha2qRzzTq2wLLwX/aRj33sTbFsyMtRp35QdtljIdKocIiQ1DkDdL6gcS/+4sXy+789JEe8/u1y7JHvkzzEVKOSlXxultTqRYizGVINOlSs1EolCJ4eiLCpsrYMMSOoWBoZySBvUzJRTbG+BFGFo6aDLOLXIHyycbc5rgHOt1quyXocv4LT4SCiQpaDnbkCqCIpgHiqOK8GhJPO/RNtHbfwe16EFStfeY/GOEXdXv62l+OMLUnNYvdekuR2jROHN6EVJ2nJMT//Jnd0nMkFv1jOYc5owNGQsSnOZgLJpHEvBCnZfu6OECTwpzpkzrZzEaciQb0kDU7Aw9mXCzn9ijlnat5px3naRdaoPi/Llj0otVpd0m0dMn/+PA5hlhWPPy7lteslW8dRaiIlHLPGb3bheBRX4fqSLH9imVqZFv7zi6SAGz3PMUe0ntRr0t4+Famn5fllT8lPr/2t2lDYwfSLX/xcHn7kMaxAiFT4ptZUCbtEep7ulB9c+UscWeQ3v/q57Dl/D5ndvoNMn76HdHT8k7RP20dyHXvLN65CWsjCX+64TfbedrZsM22OHP3hT0u2UNRB39sVpso2bagfkM+lK5/S8T98VZ1ahtYenRmbYMOa59fK8udrUgtysuO87RCnomIHe0DoIDJEZrN7Eb6QVdU4r3eWL1+uS37d/U1vepN2f5no6asydhxn9KBW4f2W1DBJLdOK35GOMygobKA2aH3RQbh1nfdGLTJomndbuKtwJp5CPi/dPWUdxMu3s3RyPjTfFB9VCIRaT0/0ijjbcexfLBZ0HAyFy+577Mb3quTZ1Sulu2u91MslxONYmjREB/an6NJXywvy978/qHmYv2C+zqXD6QHTFEj1qjTQ+IbdFbn464vkoRVVmTkrK7O3mSrdyx+Vi889ByItkHJYxB45PSd+zitAAtQmmVRVapVOSKea5IOMVPGP0PhkBih+z4vnxHFKRQgfTtIIpSe5babJNrOmIA8NfW0/U2iTMq+RNvwQRcg7rTzM4/PPPSdMhYO0F+w8DyKvi7KHh8L1pYOfEzMiPvflXET9V2Pjg4ceekitPnw43GGHHdTUTtHjn7ZwnPHHRuKn1bJj/t4Q1Ektaqp1H8eZcDTY8hchEPhadojGuIIGG0KDDRvWd997gQ5krnQ+hUbwUURvl+4qrUW4xXC/NKpVyRWzEqRT8tiDj+r9lMrPlG1m78gbCK4uO+26E+JQJITy1wfvlWyOH8Rkl1ZN6hBN+hV2xO1e/Zw89Ojz8Ivss9eekuPU0yoSKI4gEiBObrv5dvnGldfJCxAinznjNLnsa+fJzHxFFv/8f+Xrl3xfavlttesslQll2o7byq333CiPLL1Nlj99D4TLPbJixV/lgcdvkieW3i5PP/0HWfrIHXLiuw6SIg6176GHyB8feUwefvh++fo5n5Vq9xoctyZBRyivOPAluC5p+dsf/iGr13VLNZeVKs6Zs0vzA6ua6XRd/vyne3BtcjJr+11kznazpC3fgJiMREII6RWN8WF8ykHKItrKGDZ+eeaZZ1ToUPgYrCspiFwAOc7YY1qkqVviZV9sJH5aTUZNv/51nElMnZ0v2hmDOweNcQO3j76RlZN5u8yTN7zmnySDJv17V3wXoohvNLWh0W/T+AGtNxAwHDF81Y9/KSXcUC9+yUtkwU4QPyFECITNvD32kIULZ0ij0i0/+58fSiXEcVI5KfeUpL2tIPzIeqNSk8V33Sur1kHo5HJy8EGvkhw/bFqvSFgpIUIo659ZKR/+6KelG4LtsDe8Ud5z1JHyhiMOkJPeeYR+EPW8874gf/6/hzihEKQFziGTl6mzZsqMWVOkoyMrs2YVhZ//mrVNQWbMzsmMaWnZZnpOpubQgCPfjWxW2qZNl+nFvMzpmKLjdbR/DgLu1W94tWTh/+uS2+WB+yHych1ST6Wlyu0QiewSq63pkp9ee5Net1e96lWyLY5d5xfmoyubkDhW6yCE1zqxZTxy3XXXqbXniCOOaNabVvlSADmOs3lJaphWNhI/SaW0gYLSv1FiSmIbSfodZ6LBr4tn+PXykJML5iRsFCEccmiT87gpMpIqFOW4k96lN9SflyyWq791qaRqRdwXU9H4I5SNfyMll3z7KvnFkn9IOZOV4085WtrzZcmnOCgaDX8mJx895WQpQGP85vvfl9/cfI+sT00T4RfdIW4atR5ZtXK1nHXh1bI+DOQ1b3+HvOTFu4vUuiUN8ZRKB8heSc69+GJZ1dWQjhkz5TOf/bx0TJuhY4FO/8T7Zdc5GWmU18hHPvYRWV9pSDk1RSr1vARBu6T4ba2Q59qQTDqDc+REhThHziwNUaXf/AL6CQvkn6/b12s11Am6B/LfLq884AA54J/mSr5nrXzpC1+V1c9UJVfokFpYw35dEmZEvn3N9XL3fWu0S++juAZFiK9UiGNT4CDpdAiRiXqGA8rZzchwrV36rsO2CGbJSQ5kZt3IepBdXVwmK14f8Ow4Y4/db7bkfdifNtlI/DiO0xdoyHQgLsehYKEDU2gF4gc5iwjIy2GvPQKi4k0c/iKnf+oTcsLR75PFN98u6zrL8o+Hn5SPfuTf5bQzvg4hIHLQG18v73nXayWX7pIqRA1nRZYgI299+1vlrYe9THIQHEe/5yg555wLZemy1bJ8xXPys59dJ4e/9m3y90eXyzZz58lp//phydc5Poffkoe4gij55bXXybeuukPW1Rvy76f/h/zTXruqRShdyEvHTvPkzDM+KVnEe+jeP8iXvvotafA7GhBXPaWyzkLNr1jgZKCBKEQgaPT7Wjz9qOOJjm9sUY1UqhCC2JgJUMGksxA3GSlOmyn/8akPSwfCFl/3a3nfu4+Un//sWlnfWZFHHlkhJ530Sfn0Zy7Rt7w++pFTZN+X7gYBtR6pcoLHGtKDyGL3HbbrQGetuBjGCQGiCm1LwQHMhllykpXtqlWr9LX9HXfcMX6zLRqASXzAs+OML/yOdJxBwFet6xy8iiVfYU+HFbiavvIeNtoQMkXCdJucde5Zcuopr5Gp+ZTc+Jsb5V1vO0p2nPcyefG+75BLf3irdKItfPu73yaX/vf5UghfkPZcWcJcIGWkTT2Vyqflvy4+S9580B5ShAD6+oVfkRf/8yGyyx5HyHtPOlMeXt4jM7edJtdc+V/yql23kxlhN4RCRecIfPLhR+QTn/qilNMFedURb5OjjnqHtGe6pEBxxC63VEHe+M53yzsOQ9qlunzl4q/Jr29cIpV0XQpT0jgXzlXUkDoywq4qtbiEEDZUOipC4m6pRl3SUEqctifVqOobbRxnlMm1Yd+MHPHmt8hX//uzOG5D/nL3nfK+935I5s9/pbziZe+Un/3P75iMnPr+E+Sss/5NCsUeqdZXSa6A8wiQx3iANVKO/9KaUsWS3WpbVvywS4vixuDr7CaC+Jo7t2WzWZk3b56G84nTtieFk+M4Wx4XP44zCNjsRwNx2QXDLg82ZuwOaiAsi0UeDV8bGruMfPlL58sdt39PPvrhN8uCnTuEPSSztumQI49+h/zsF9fIdy/9mmw/q13S9W4pd3dKig1ltiA1jh8q5GXW/Lnygx9dKT/5/n/LG1/zKhUL7BF68cv3kbO/8Dn54z23y36v2FsyAURNab1kC1npqZTls2ecI8+thbqCKjnzzM/KjKk5KWZoNYF4yCPtDNMvQPRcINMhzji26JwzPicvvPC89KAhj765xTOF8EAyAUQQ/6nkQUMeIp+0YxT5WY/SGp3DCCoIabPrD1ejGk0bz9fG3n3MUfKXP10n/+9jR8tee8xR3TJ9aoe88fVvkt/+5ldy0YXnQ0xUJQy7cM0gKCCiNBFWSRBQDbjIzhSJLp01WrdvOWjJSY7dKeBa0sLTA2G5bNkyte5QANmnLSh+uM79KJwcxxk/pHBjblCj2BNK682KW1zuW/o7Ofei0yTMdsvOe2wnU6fzS8x1fTrUgaBxSvpNHvVn5LGHlknP+rrsOf9F8tkPni7ZKl/KdZxhoA0zh+hW5cH77pG1656WadNnyh577Y9yWIzG1mhzzW4TK9ZsvE3jj6zxZBcMU0vrK9hMiw1zGncAGms2dPWK5PgNq0ZFQo6TSfHTE1OkVM2oNSWT5fgYCid2JTV0UsRqpSQ1+NlwUlrR8c0w7lupNCA4MvpR0FqDb5gFEBhV/WhotbtH+G2tDD9oWu+UbA5hJTSy+akqorpLVZ2DKKyVpC0d6ltmtUpV0nxdny/GQ1xwjh3e7UEW59Io4yp160dYU/U88sd4ugLhVcHJ8z6nKElLTy4vaQieeneX5PCb1Es9UihCAKk0AnwtHefPAdu0BvGUWT/wcxZZiLtKrYJwHK3cKfk8Z1oNkfeSZJHvgIOC6Pib4fKyqzHUqa0p4jRADzE8NAUQ5TPqUkPdpdatGrLdLQ/8/R5Z98JKmT57J3nRvu/GFZge7cVLhH8UNH3VkVdccYWcdNJJKnT4iYuddtop3hLBfVwAOc7owXuN9yO/p3fooYdqGC2wnF3dtg2EtQqO4wwIGkkd/xJZfzjZX/TKO8VYDYIolGIGDwNVCJgsGvwggyU/74CGMixLex43Y0hxgUaegqJWlbBSl3qFHyiFAGAqEAw1CASO/eGbXJliVrJ5DqAtQyStRYwyxE+3ZKBQ8jnsA/FUb1SxPS2Vcl2PW0e6qfIL0pEri1R7pGPadIivCtKu6AtqAYRUhZMnYiWb6pFi0CMpnbcHjTqEUS2Fc+Tp6oQ+kbWFkjNkntJZfbBpS0EoldZINs28Ip1iO+LhutDEhfPt6VqnkzrmChwwza40HL/SBeFTgaBbjTyulVJpHfbHdaw1pFqGaEu3YV+KMrP2REfGEQCrKbgRCZ+RY+N3KGJoAaJVh47Wn1tuuUUr3DxEIYWPfdKC27ifCx/HGV+4+HGcQRB90oKOg3CjsT91iJBGwIG47LapaOOfSeeku6uGOEWpNTL64c9CLpR6GWIhFUZz8tRrktdlCBHDLiO+7VXVr6VDCUmI9r8TAoJz4+DAOjliAWKIPT/FXFEq3WVJZSB4whLyUYf4yUk2M0XfzqrXkEeIG/bIFSDGKl0QS1kKMQiRIKUfSc3kCtog8+2xECImx24nHF+77zjxIRUH0mXXHq1oFHu0SeH0sUarGs4DIbQ8Me+0atRwTvxYKcVQ28xZEEDrIdRKuCYUVki1mIPQ6YK/LG1T2yTPCQ9xopmgiJRxDXBdaVXjoGeB2IO6gp8WMORDRQ+rKi63HPYkSZFDx/E9arGDEDJxs++++6og4ictCLcxjr/t5TjjC9YojuMMEVpDeonsE+wa4ne22LBrc40/U6a0o9GvoOFs8GUsKZVtPpvIslKvVrR7irKiXq+qdYazQXPmZ35JPYX02P5TdPE1sWzc0Ja7e3TMScgByhA8tSr2QtwcRQ4EWKMMUYRjUtTkIXYqFRwvnUUSoXaVBUwU24N8DnnokRzabh6Dli3NPJUW96cX4kO7fpAFHReEhp+RqjgXViAZCLkA+aINjK/rd69bL8W29igc55LOsLuOIohfcM9LuasH4bT6QDhVahAI7E5DmnpMiB8VPbHjdeL13cJWH0IRY6+40888U9yY5Ydhu+66q4oibrO49HOb4zjjB78jHWcQ6Dg2NM7s6orG/VAspKNxMBxDw7E0bOD4nruUJSMcJ1OG9kCjn6LVJCfVIIfWvxg15+xSCtAoQmvUdAJAjYYGM7K2BBBSASdVrKeQVgECiFYS6iukyVFGOYiWMu00RYiTHMRMRjKcdTosqbRCCwx/RWedrpchQIKiVGsZydLqU3oBMbr1gA0IHooTfuw0A2GUhkLjB1M5wFq3I2MqfdQ6BeEGocY3uuiyEC1884sDwGkR4vgkaC6Iq4J24VHtcV+Oc0oFuD4NnHstjzwhDzVctUxa3xpr1EvIP0UPxKOKslZHsWVuy5EUO7ZOiw7Dli5dqv7ddttNt9NKxHCyqbEHjuNsflz8OM6gQEPHhprWCTR6bI8DvgquY4AogCAgAjT02M5xLvo6vAoDjlvBNiqbOJ3etpBbeQuq0tB/iAgXrSs4FiLpMoXGlZYUFWHMh8VhZiASKJqibir+QxDCKVp4FBIdi3uxi4qOeUGYngcaa+SXn5hgFjgYmA4xomNrGuZ43CgtYl9cj44KpwuE6aBpWpIQ0MyvyiEsmF8KPYge5DnaiUTH1OOqw19Gj3z6d0tjVhyKGvofeeSRpn/OnDlN0ZPs6qJQchxn/NBbgzmO0z9od6PGPRIT2iBrVwzHw0TjgDgmhhYi7dKio/DQNo/xGIuCqIqwSAiEDY6xyUIXcI6dyPEtK9pzOKqGb00hEK4Cf1XT074z4RtYdaljW52WphRnneZEh8wZLTWRuFEBgjQaQdSVxIHZzId+JJQNuAoSiCXO7EyhotaXCvKAYyQFWLzQtDR9iDCIJIbr+CeIvxDijr6AA7D1/NNSSxXg8tgP1wHp6nmoK0fr6mhF4TkhbeZB82KO63QQEzoQestiFhyKnKSY+dOf/qTrDF+wYEEciiy74HGccYuLH8cZJJQWaNIih3awt2lLNnJmteCtZbdXLEvYQELA0HGXyNJDMRFZXihWVLAgLEoDf6GeGvr+OdOJ01R/dMwoTxQXFGXcgH1ji42mEacZrUXCTRPgMRhPG3Smy2W0F/1RWsinCqRoS5TXKC2GRH+jlHVAOM+Nx+AGhquQ47ngXzMd+8u8mCP8G6WVdM1zVn8Uc7zx/PPPqzBidxcnOCQUPsnurqTfcZwtD2sVx3E2BdprtfbQi4ZM33yiMFGrRh03Eq0ejMOJALNwOWynRcQsJRQFAZYcZ4NEOG+OdovR8sGurDhxXWoEXXKcczWdgeO4Ir5BRGsRLSGBpDlepx5bi+A4CSNnZq6lsliyywk7I55ZUpBylBc1UXFm6igeLUiROInCI4sWpQfzVtf9mFbUzUdRgtzhZOmYR77mTxedP/eNYBitSHq9sD9f6o/yQSsOHfNm8ZlqlF7kaFmiMEI+4nR7U97yUMyYoGlra2tag2bNmqXdXcnt/qaX44w/XPw4ziBgM6Yubqy1qY7Fj65FAZFDwx5ZPMx6wY0k2lfXoxY9ToOx2NDHjqIh3juKzVCmaYKBKfEI7MaCSNBoUbdb1PUWB8V/9bi6T5RX7hl1I8WWGRyfQibKa2TZ0Q+LcldgwkwFCJzlWV0cN+DgZkbTQzIeU45EH4PYLRaNjYqE24bwSAyjgIiuW4Tuic2xGNL1LY91Z5mo4boNgu7o6Ghud2uP44xfXPw4zqCJJAkbYe1mUuHDtajh1sY73q6iSNVAtJ3hFCacgodjn1OIXoejZSeyctByFE2WSAsKXQM7cMhPmkJCG9TIMTUVPpygMA0XC4MoPQqnKiRGNJ5G86jpcxB2NCiaY3coRpg9Hof55l78dplac1RQwWnmIFoQUQdYx+KOV0FnXo6UjgodjkVC1jWHEfCpZQuBukevqIlEE8OZN/qZLo6jFqocHJa0EhHNO8+Fr733pj4eoLihAHrmmWfiENH5fWgFStK67jjOlsfvSscZBGx2rfFGs2cBTaJV/FVB0BtzI7Ch+SZVUwQYUbqUCs11OCapIgICxMbOED1SfDxbRvIsshyR5jGwjPIUxaCO0bVoN/p0QWf70mcRo78WHu2nzvaK02t6NGGKMuaXgon/CMNJlI/EjrEvjqnHpWPaTIPO9t0ymHWH2JgeChuO+UnO4MxtSWsQ8a4vxxlfbCR+zGRrJNf7uoHNtNu6n+NMPOIyrg0zu43YhUM/7gu1UFhjj3iMym26i66olUW7zbTbJx4grOYShnGsEOcDoqWFQYgcRCJJu5AYT49h8Tl+Jo/7Lq/7EFqIOE8Px+bwG1y91hZNUMOi7i618zTTiwZi43Bx/jhOCTd2lAc4/cApvBx4rWE69ieNY/EcEI+no477ReemxPEZR19aa/DVdo514vbo+rGbCwlil+iNNH0LTEUTj8N8W54T6W4hkt1Y9JvAWb16tc5ybXMAURBxO9etznTrj+OMLfYwkmQgXRLwph2Mq9MM3gITdtHjTD7YKMeu2SDzPjDXD7o5snhEsVp9kVixVCL7TW/6tODwb7RKgRMNdLZ9KJKoTSxfUbjtT39v11OUXvSPcD/dFzBOZJminwH0cH/8QyRNQwVQFIFxovFGvTYnC9OsYCVK27ZwEaXBfEVhFAmsY7iM42haSTe+MIFDuJw7d25z3aw+LnocZ/NALVIzvYL7r69l0m10ZyafbkhyfYNtLnocx5lEtNaNRlcXv1nGSbWzzUq2Na53eznO5sHuvdZlKwH7qpOOTy59radj07rjOM5kJFmZmtWbbs2aNSp6+DV3qy8tLkUP47gFyHHGHt5/vNe4bHVJXUPXp+UnqZSS/oHgDe44jjNRSdZxVk/SrVu3TpfcXqlUVPBYvcmKmOFePzrO5sHuPZL0t7KR+LEbNek0HK6/hCyO4zjORMUEThKuv/DCC7rcfffdm6+60xJkcH2gSthxnM1Pv7ZY3qzJG9Z8fhM7jjPZodgxIWRjfmj14XifVoFEfMyP42w+BqNTRtTt1ddN7jiOM1FJ1nnJupJjCDiuwMLoTwokH/PjOGOP3XPJ+7Q/+rwjB9qxuQ03uN3QvNn95nYcZyLDuo/1HJcmekjS2kPRQysPu71MCDmOMzokLajWtdx6jw32nnPF4jiOM0RYCVer/OSGyHPPPacV8S677NJ8zT0pgkhyDJDjOEPHHj54L7GLmdZWwvtwOMYXFz+O4ziDgKLGrD6sbK3CZUXMMAof6/qi8OF2rpNkN5g7d+6G7gjvNd5XfLGAYVynP2kRGiwufhzHcQYBK1uz4NDPStjW6aflhzCM64xjlTLDKIrcuXM3PEcodOjnvcWlrQ8HFz+O4ziDgJWsWXIoarhuX3SnuDGBY3HoN/Hjlh937kbmWkUO7y067/ZyHMcZY6wCtsqW433oT4oe0t3drUuGs+I2vzt37obnSPJe6svCOhRS2DF+fSuC/dbEBhMZdemR+5b+Ts696DQJs92y8x7bydTpOWnwK838ujP+WUr68UP1Z+Sxh5ZJz/q67Dn/RfLZD54u2WpW4zjOkEG5Sgk/SFeVB++7R9aue1qmTZ8pe+y1P8phUerxF8X185rNYo3Gp6nxNyjqzqSDZYNEFSU/xMqwAPUXy1Uq6JYH/n6PrHthpUyfvZO8aN93o8RMj/ZC0Qn5FX5UtlbpsgK+88475aCDDtLKl0vWm/Rbhc3qlaLIxio4jjM8TOiUy2UpFAoa1tPTIytXrpSlS5fqfbd48WI55JBDNJ4Jpv4Yovi5G+LndBU/Cyh+pkXih19o3lD88Hs2rFYy8uhDKyB+avKi+XvK5z5wuuRqG6brOIOFxStgIyUVeQiN1Nq1kfhZuHckfkJJo+yh0UEjRcmjRR9lk2EsjVEKGxR3Z9IQCZgmENIh6in14l/QYJdVCeLnjwnx8x6UqWm90jmuUG3Jyva2226Tww47TLezcmYY606rRy3Mlo7jDJ/kvUVa18dM/Nz7JMXPaSLpbtllIS0/eVQOFD98CorET4M1jIofHLyRlUcfXiHdavnZSz7/gdMkV3Xx4wyPSNjwVeKyPHzfH2TtuqcgfmbJ7mr5ae8VP/BF1h/uxD3j7ojeAGcyoj896iktJxAi6RKWNaxT/CC0UYX4+YushfiZNntn2WvfI1GK2nVXk8+GVa6sbE387LDDDrLPPvtIZ2enWntsnA8tReZ3HGd42D1nDxN2P+XzebnhhhvUPybip0bxs+wuOe/C07GxW3bdfTuZElt+tFshFd/cbGAoflC3RJafp6SrM5Q95+3p4scZPvrgTgsjLT8leQjiZ11T/ByAbW14ks9oHHZraGcXbwD6IM6jNFAuI58zydBqUH98ih/UWyk8tAXdcFUtLSqJIFIehPhZs2alTJ+1s+z5iiMR2sadQFSWDKtck+JnyZIlst9+++m2ZOVMNlURO44zMPYQQez+IzfeeKO87nWvU1E0FPEzpE7oBtJqBA1dhvSbY1iAhkW30fYTL2NHQcRtIeK4czcsB+ESosHSrgqKGJYnLYcoX1q2esuXlUOG1XVp6ST97iaTo6UnxbKDuimqzAJUS2kUpQyWcCEf3iCCEAXFBDIHHloZ1V9X19y3H2yQM4UPsQrYhY/jjBwKn1qtpiKIUOzQtRpqBsuQxA/h8w8d/9NR/ESwYohdvI1E2xPb3LkbjtNWiE5NihrKdS1fDEdjBWkDF//jNvyz/Zrr7ialix7EaO2pR0sVQixIFEF09Ee2HQ6WZy3HMhU5+jcNK2ETOhQ+ScsPK2kLc+fO3dAd4YMFRZA9VNDZw8ZQGd5eJK4s1DVBBm1Vw5G5RL0RhbhzNwyHcsRuLDotZixXuuR61Fix6yJAY8Ulw1m4k9v7TNfdpHAUMWG6KmFQht6poHqqwbEA6cZ40SxUvUvd0JvKQLSa5G2dsIJOVtju3LkbmrOxPoRvT3Kd4bzf6B8qQxM/fDKKnVUIWiXEdYQ6rTMYJ1qSyA+PhtuTljt3Q3GJMtUsR2xc4Fq2Rw5Fm3GbZbQ33N3kc1oE8C/qAmNB0YCojGg5idBVLqNVwG3cn643Xl/QHG8mecIKmetWMSefYt25czc0l7TwcGZnPlzw/iqVShs8aAyW3tQGgT49WwMTolKh0walf8c5NHRf3Q+HY4Plzt0wHIelUuhIg328WdwQWKof21UEIQ63h1zScTxHGqWW273sTW4XlxP6URaiQfD000V2wRQqKf7j/D9hwHpL3xlUF9kNByZpkrf1ZIWdfIp1587d0FwtfhmL2EMG7zfO+ZN86BgsvXfmIGAVgNojWjEgcKJli2NlEUfV/ah+HGeYaBmC+o8KFda03LH40lnDFJUxrmnIBkXO9nUmI1F5iAUxHtoCiJ/AHt5QLnSAM1w0Nqi3pFipGUzpST6lGqy0KYCSYY7jDB2OqbP7yKw+I6FP8cMbdmNYKYRSrVclnUnrDR0yH3hC0vxohQEPl1hoRrkXKpN6yFfUGIdztNSwL2dIjRzXR8sNlN5oH4suyLCvsSxBmn2PfccZqRvN6zRQWmNxfehEqoMK25TTsoPr3GhU4ThgFcmw7GmZYxmroVziiYC/B8+Fb3YhLmeoauB4ooNcN053qG6gazhazo4x2scZKL2xOKfxdH+wdgpC1Fv1jKQpfmwcMyoxTnDIyTwaYUVFUECrj1p+QqlrGYoItcKLnjqtjmRlbE+m5rfwJH3XqZufZIMxnHESzuiStGY4m4b3ld1b9lBh1tXWe9Lor5wHlthAjqAaw41Tk/YpRaniBytXWfFkpFJho0LzbhYHzOiSc/6EqGB4TE5+mEJFUoNoElSE0uhBJdPddFy3MPMP1w2Uxmikv5Grd6GOxDmNRdqxa71OI3HJtFrTHa1jtDrOyTOYsE053QculWFDCgGEshTWyxDVrMwrENtsvLqh5hEvxD5wgZR1vzR+oyCFfYdx3FbXet1G01m6dozkcUbjmAOlMRrpb+TG0f0RNPD7U9yEqIcarIeYLy5LqOO4xLZ8GnVViAYJ4lyVUUMyFDV4eOO8ZWkVRL2VLknWkwxnY8aKl87iUHCYP0lyX6OvMCO5bTjOSPqTtMYfqkvS1/bRcq30FWc4bqC0Bto2VGdpEWu4SWu80XBJ+to+FGcMNnyorpXWbbyPeL14byXvMxOQjGfbk4LH7tdWl8KOzaMywBJNDiDSA6S75N5ld8r5F39eqvWSLNhle5k5u0PWd61FFdH7NBEEED51JslKIyXPPvOClEtVWbjDTvL/3neyFKrj4wlouPAa2cUk9PNC8xpZ2HDRHwTp9MVopL+5SZ6L5b2vsMFBqw8KP3avoTwtW/a4dPU8J9OmT5e5Oy5EeS2oQGcnBr81p90ZOFadny3IYsnfiGH4N1wG+g0G+u0mE7wO4/L+wG+PWHA2ThFrjJ7iPEC0LEKg1Cvy+OOPSXepRwpT58oLPTMk37a91Mo8LqR0taL1Ih2Pxa9J33333XLmmWfqOS5atEgWLFjQzAvrUlrAWWlns9kNKuThMNLrR5LXiX7miecz0ryRvn6b0chzX7Qea7SO09c5kNFKn+kk7w/rvkn+LqPBWPwWlmZrOv2FD5X+rr3Ba1Wp4CEF8XgNeU91dXXJXXfdJeecc46W4VtvvbU50Si38x60+BvlGzfwBiGMTFonDqpnom97feFLZ0k2l5JKtQeVQY/k8LSUzWWkiqclJIfGKbL40J+GEKqgoWLFsWDb7eRtrzxActXem2wT5zpkeG6Wpp1ncn2kx7M00+noQtbrnGCJEy+xW2/jiztUWvNMLIym+JGmPxBMerSuD2lNq69zIwPt00rYqEkakbKpLK4HP6zSo6ImlAK20frIIdFIBFpcn9Rxs7CbNsjxibyKfTcs00OFN5F1fSTz2t+5DYehXI+hwrQtzdY8J7cNF0tzfN4f2B4vVfjQp4IIxSWg9RqVJSpI5pWW7L/940n5f59ZhDoOjVWcLGuuVCzmkoIheVzWm1aHEmvcTAQm6a/R6C98NEjmw/w83mgca7TSmegkr5OVj7Fma/xt+rsPWu8lft6CHzslt9xyi87wbIKSYsnGCnG/JCkkskHKfYkfJlKTktz72O/l/P88Uyq1suQL2chEjKcljgXij8gDUOiE+C2ZrKaBJbfNnTZd3n7wQRA/vT+0ndxoER1/wwuWXB+t4/EiMj3+AHYcnmvyBxkulk86Owb9dsyxwNIdreuTPAdbTx6jNXxQx0XjhKIldTROYYWqPi2pdFkf6OthTtKZPARPTUJsz/AzF/VI+ZdrFYgflF9sC4QDXod/jsyn/eb8Pbg+pHMYBEzLGK00jWQ+7TjJ9dE63ni8P6KBzNweucj6g30gg0KrE5G9dIpdXxm5+57/k3///GUoNyKFNAQNKlPmPgURx4o12Wi1tbXp7M7MQ+s58ryTYihJ8ton6S98tLH82rUcKa3pjFa6ztCZCL8F80ws37znWF5Zbk3cJM+J23/1q1/ppy4ItzE+w209SZ/f9mKitoMBmSPPrn9KnnnuKVQAaEwgejhdPJ+/c/msflqe+6BZQHVCARQNHAyYQWRgWiEv2xSLEiB9OySPY45hXI4ES4NLq4R4oUY7fTpLn2Y3Vn48zkhh+slj0G8/cuvvMRyYHmF6xI5n4aN9DDuH5DEsPLnNwgemoVacbDoLCZND/Mjyw0f4epiFxkaaCOnu7JaOto6oIUPDw4HQkmN5wHXU15tHVgb4ezDPvFbJc7BzGiksV8lrYs6OMRIsDS4n3/2Bc1aTDxp7FI5I/ETfgqtr1mhRzEi1XEVe0/L06nXy6PL1KENTJUDZKXX3SL69iPjR76J7xOfJOtMeFpmnZNkgzKPlz8KIpcMwC2dYMtxIpjdcuD9/j/b2dvUzz5Y3+71GAvPI9EiyXJHRyD/TSN4fdgwy0rQNy2df98doYefBJX+PItpF/gajcX0sjdbzGI30DaZNLD0u6UZ6jyfzT5LHoaPG4Pw+dHbfW3yG8VwPPPBAXefcP3wF3mhdJxuJH/ZjM9HkzRxlAo1PrYxwChwUQK0GIvGD21WXgXAfxo0csqb7cclnLA3nj2GHZLqjUCk2YbpME8tGfBOmWOnEYbocLXgeyPsLq1fLjNmzRy/t5LXp6zxGQus14Hrs9HeOf/MR09dx4ptQf+/WbYM6L8RTh/0bWaTHp+lu3NXctxiFS1WeW/2szJo5B8nGFSNf64nf9oniDOZY/cDr1Fe50oARpJvE74+BSV6bvs5jQLid+0f7RHP+IEwtQljFAxu7taLtEASpdtRr2IxwLWb9/BasM2llbIX3FCvk/hppC2Mca6QY1xqR1rjJ9eHA/Vfj99h2223Vz+Nw2VfehgsbJabDxtbSJ6ORf6bReq0YNhppG5aWiTiex2inT6xcPPPMMzIb90fyWg2XZD7p5zFMJPA8Rgs7Bx6Ljsfh0jTDcEnmn9hx7De39OnnNttu55iMY3Bbf+fep+WH9HkiiNkIcbNw1GlsQlYhhCTY3RVHQXXCH5JLhnMfZA4/LoqrhjOTxArvWDDgeYwC0Tmn5KmnnpLtt98+Dh1deAy7CcfyPPh7cDnWxyDD/c2ttFVrdckGfKuQ66hoWf6Elp9IBz2N32OHufg9uANh+WOXB/5RjvPfSLByZZXiaDMa12owTMb7o7dIxL5GdG3jBStDrklYLUmQy6N0QQAhqFYuSz6LxpxzKQD+PvxtkhUrryfD6OzcB8vm+s3JihUrZIcddojXRpfk77E13x+b6zyY7vLly/X32FrPg78Fj0M31u0H7zGO7zEYxnOis+vJ82W5MOyck/eq0RtrMCAddnlF7Qf/sClBpZDKYImCCMd/DGV3VySIsERjFR2qN6OWWUL/aNFXWqOZvmF5T17o0caOsTWRvNbm53mwoFphJX3FGwgrbTncYHbJo/KGdfgziMA4LHdx5KbjfvZvtBir34bp8nrQ9XWtRkpfaY1m+oblfTzdH4wd7RH7NlzgD1dQqnI0j7NsodGAy2UzKoIMO6dkZcqK38IHylfyWpuf8Ud6fwyWzfV7DPW3GSxMl9eDrq9rNVKS6RI73mhjx2C5SR5vNGk9j7FgtNNNXmvz8xi8N5Jll9u4zm3J38xEnjmjVfiQEd4JTLwvl6S/cMcZGhuXoijEwjfY1hIwmsLHmciwnLBatHI1+g2f4zhbnrF7DHAcx3EcxxmHuPhxHMdxHGdS4eLHcRzHcZxJhYsfx3Ecx3EmFS5+HMdxHMeZVLj4cRzHcRxnUuHix3Ecx3GcSYWLH8dxHMdxJhUufhzHcRzHmVS4+HEcx3EcZxIh8v8DcvjdLdDLzSUAAAAASUVORK5CYII=;" vertex="1" parent="1">
          <mxGeometry x="-580" y="150" width="575" height="730" as="geometry" />
        </mxCell>
        <mxCell id="ksuQdM8JzwMH5ROLxWta-3" value="" style="rounded=0;whiteSpace=wrap;html=1;" vertex="1" parent="1">
          <mxGeometry x="110" y="200" width="215" height="280" as="geometry" />
        </mxCell>
        <mxCell id="ksuQdM8JzwMH5ROLxWta-4" value="" style="rounded=0;whiteSpace=wrap;html=1;" vertex="1" parent="1">
          <mxGeometry x="110" y="200" width="50" height="90" as="geometry" />
        </mxCell>
        <mxCell id="ksuQdM8JzwMH5ROLxWta-5" value="" style="rounded=0;whiteSpace=wrap;html=1;" vertex="1" parent="1">
          <mxGeometry x="110" y="290" width="60" height="190" as="geometry" />
        </mxCell>
        <mxCell id="ksuQdM8JzwMH5ROLxWta-6" value="" style="rounded=0;whiteSpace=wrap;html=1;" vertex="1" parent="1">
          <mxGeometry x="50" y="370" width="50" height="110" as="geometry" />
        </mxCell>
        <mxCell id="ksuQdM8JzwMH5ROLxWta-7" value="" style="rounded=0;whiteSpace=wrap;html=1;" vertex="1" parent="1">
          <mxGeometry x="50" y="342" width="50" height="28" as="geometry" />
        </mxCell>
        <mxCell id="ksuQdM8JzwMH5ROLxWta-8" value="" style="rounded=0;whiteSpace=wrap;html=1;" vertex="1" parent="1">
          <mxGeometry x="50" y="290" width="50" height="52" as="geometry" />
        </mxCell>
        <mxCell id="ksuQdM8JzwMH5ROLxWta-9" value="" style="rounded=0;whiteSpace=wrap;html=1;" vertex="1" parent="1">
          <mxGeometry x="50" y="200" width="50" height="90" as="geometry" />
        </mxCell>
        <mxCell id="ksuQdM8JzwMH5ROLxWta-10" value="" style="rounded=0;whiteSpace=wrap;html=1;" vertex="1" parent="1">
          <mxGeometry x="550" y="200" width="215" height="280" as="geometry" />
        </mxCell>
        <mxCell id="ksuQdM8JzwMH5ROLxWta-12" value="155x60" style="rounded=0;whiteSpace=wrap;html=1;" vertex="1" parent="1">
          <mxGeometry x="550" y="325" width="60" height="155" as="geometry" />
        </mxCell>
        <mxCell id="ksuQdM8JzwMH5ROLxWta-19" value="100x50" style="rounded=0;whiteSpace=wrap;html=1;" vertex="1" parent="1">
          <mxGeometry x="715" y="200" width="50" height="100" as="geometry" />
        </mxCell>
        <mxCell id="ksuQdM8JzwMH5ROLxWta-20" value="65x70" style="rounded=0;whiteSpace=wrap;html=1;" vertex="1" parent="1">
          <mxGeometry x="695" y="300" width="70" height="65" as="geometry" />
        </mxCell>
        <mxCell id="ksuQdM8JzwMH5ROLxWta-21" value="45x50" style="rounded=0;whiteSpace=wrap;html=1;fontSize=8;" vertex="1" parent="1">
          <mxGeometry x="550" y="200" width="50" height="45" as="geometry" />
        </mxCell>
        <mxCell id="ksuQdM8JzwMH5ROLxWta-22" value="90x50" style="rounded=0;whiteSpace=wrap;html=1;fontSize=8;" vertex="1" parent="1">
          <mxGeometry x="513" y="240" width="50" height="90" as="geometry" />
        </mxCell>
        <mxCell id="ksuQdM8JzwMH5ROLxWta-23" value="" style="rounded=0;whiteSpace=wrap;html=1;" vertex="1" parent="1">
          <mxGeometry x="550" y="260" width="50" height="50" as="geometry" />
        </mxCell>
        <mxCell id="ksuQdM8JzwMH5ROLxWta-26" value="40x60" style="rounded=0;whiteSpace=wrap;html=1;" vertex="1" parent="1">
          <mxGeometry x="610" y="440" width="60" height="40" as="geometry" />
        </mxCell>
        <mxCell id="ksuQdM8JzwMH5ROLxWta-27" value="&lt;font style=&quot;font-size: 8px;&quot;&gt;80x70&lt;/font&gt;" style="rounded=0;whiteSpace=wrap;html=1;" vertex="1" parent="1">
          <mxGeometry x="550" y="245" width="70" height="80" as="geometry" />
        </mxCell>
        <mxCell id="ksuQdM8JzwMH5ROLxWta-32" value="40x..." style="rounded=0;whiteSpace=wrap;html=1;fontSize=8;" vertex="1" parent="1">
          <mxGeometry x="480" y="200" width="33" height="40" as="geometry" />
        </mxCell>
        <mxCell id="ksuQdM8JzwMH5ROLxWta-34" value="40x..." style="rounded=0;whiteSpace=wrap;html=1;fontSize=8;" vertex="1" parent="1">
          <mxGeometry x="520" y="370" width="30" height="110" as="geometry" />
        </mxCell>
        <mxCell id="ksuQdM8JzwMH5ROLxWta-35" value="28x55" style="rounded=0;whiteSpace=wrap;html=1;fontSize=8;" vertex="1" parent="1">
          <mxGeometry x="480" y="342" width="30" height="28" as="geometry" />
        </mxCell>
      </root>
    </mxGraphModel>
  </diagram>
</mxfile>
